<?xml version="1.0" standalone="no"?>
<!DOCTYPE svg PUBLIC "-//W3C//DTD SVG 1.1//EN" "http://www.w3.org/Graphics/SVG/1.1/DTD/svg11.dtd" >
<svg>
<metadata>
Created by FontForge 20090914 at Sun Jan 31 16:35:27 2021
 By www-data
Copyright 2016 Google Inc. All Rights Reserved.
</metadata>
<defs>
<font id="SpaceMono-Bold" horiz-adv-x="612" >
  <font-face 
    font-family="Space Mono"
    font-weight="700"
    font-stretch="normal"
    units-per-em="1000"
    panose-1="2 0 8 9 3 0 0 2 0 4"
    ascent="800"
    descent="-200"
    x-height="496"
    cap-height="700"
    bbox="-47.999 -338 662.998 1119.99"
    underline-thickness="50"
    underline-position="-50"
    unicode-range="U+0020-U+FB02"
  />
<missing-glyph 
 />
    <glyph glyph-name="fi" unicode="fi" 
d="M384 644c0 12.667 2.50098 24.833 7.50098 36.5s11.833 21.667 20.5 30s18.667 15 30 20s23.666 7.5 36.999 7.5c26 0 48.167 -9.16699 66.5 -27.5s27.5 -40.5 27.5 -66.5c0 -13.333 -2.5 -25.666 -7.5 -36.999s-11.667 -21.333 -20 -30s-18.333 -15.5 -30 -20.5
s-23.834 -7.5 -36.501 -7.5c-13.333 0 -25.666 2.5 -36.999 7.5s-21.333 11.833 -30 20.5s-15.5 18.667 -20.5 30s-7.5 23.666 -7.5 36.999zM24.001 495.999l117 -0.000976562v102c0 28.667 9.66699 52.834 29 72.501s43.333 29.5 72 29.5h94v-120h-42
c-18 0 -27 -10 -27 -30v-54h275v-496h-126v376h-149v-376h-126v376h-117v120z" />
    <glyph glyph-name="fl" unicode="fl" 
d="M368 376l-101 -0.000976562v-376h-126v376h-117v120h117v102c0 28.667 9.66699 52.834 29 72.501s43.333 29.5 72 29.5h300v-700h-126v580h-122c-18 0 -27 -10 -27 -30v-54h101v-120z" />
    <glyph glyph-name=".notdef" 
 />
    <glyph glyph-name="NULL" 
 />
    <glyph glyph-name="NULL" 
 />
    <glyph glyph-name="space" unicode=" " 
 />
    <glyph glyph-name="exclam" unicode="!" 
d="M372 700v-488h-132v488h132zM401 81c0 -13.333 -2.5 -25.833 -7.5 -37.5s-11.833 -21.667 -20.5 -30s-18.834 -15 -30.501 -20s-23.834 -7.5 -36.501 -7.5c-13.333 0 -25.666 2.5 -36.999 7.5s-21.333 11.667 -30 20s-15.5 18.333 -20.5 30s-7.5 24.167 -7.5 37.5
s2.5 25.833 7.5 37.5s11.833 21.667 20.5 30s18.667 15 30 20s23.666 7.5 36.999 7.5c12.667 0 24.834 -2.5 36.501 -7.5s21.834 -11.667 30.501 -20s15.5 -18.333 20.5 -30s7.5 -24.167 7.5 -37.5z" />
    <glyph glyph-name="quotedbl" unicode="&#x22;" 
d="M459 408h-80.001v125c-16 7.33301 -29.167 18.833 -39.5 34.5s-15.5 33.167 -15.5 52.5c0 12.667 2.5 24.834 7.5 36.501s11.833 21.667 20.5 30s18.667 15 30 20s23.666 7.5 36.999 7.5c12.667 0 24.834 -2.5 36.501 -7.5s21.834 -11.667 30.501 -20
s15.5 -18.333 20.5 -30s7.5 -23.834 7.5 -36.501c0 -19.333 -5.16699 -36.833 -15.5 -52.5s-23.5 -27.167 -39.5 -34.5v-125zM232.999 408h-80.001v125c-16 7.33301 -29.167 18.833 -39.5 34.5s-15.5 33.167 -15.5 52.5c0 12.667 2.5 24.834 7.5 36.501
s11.833 21.667 20.5 30s18.667 15 30 20s23.666 7.5 36.999 7.5c12.667 0 24.834 -2.5 36.501 -7.5s21.834 -11.667 30.501 -20s15.5 -18.333 20.5 -30s7.5 -23.834 7.5 -36.501c0 -19.333 -5.16699 -36.833 -15.5 -52.5s-23.5 -27.167 -39.5 -34.5v-125z" />
    <glyph glyph-name="numbersign" unicode="#" 
d="M344 90v114h-76v-114h-108v114h-102v108h102v76h-102v108h102v114h108v-114h76v114h108v-114h102v-108h-102v-76h102v-108h-102v-114h-108zM344 388h-76v-76h76v76z" />
    <glyph glyph-name="dollar" unicode="$" 
d="M354 606c45.333 -9.33301 80.3311 -27.999 104.998 -55.999s37 -61.333 37 -100v-14h-114v14c0 8 -2.16699 15.833 -6.5 23.5s-11.5 14.167 -21.5 19.5v-90c102.667 -14 154 -63 154 -147v-6c0 -44.667 -13.5 -81 -40.5 -109s-64.833 -45 -113.5 -51v-62h-96v65
c-27.333 4.66699 -50.666 12.5 -69.999 23.5s-35.166 24.167 -47.499 39.5s-21.5 32.5 -27.5 51.5s-9 38.5 -9 58.5v20h114v-14c0 -15.333 3 -28.666 9 -39.999s16.333 -20.333 31 -27v108c-46 8 -82.167 23 -108.5 45s-39.5 54 -39.5 96v6c0 22.667 4 42.5 12 59.5
s18.667 31.667 32 44s29 22.166 47 29.499s37 12.666 57 15.999v63h96v-66zM393.998 248.001c0 10 -2.33301 19.167 -7 27.5s-15.667 15.166 -33 20.499v-95c15.333 4.66699 25.833 11.334 31.5 20.001s8.5 17.667 8.5 27zM223.998 460.001c0 -9.33301 2 -17.168 6 -23.501
s13.333 -12.166 28 -17.499v79c-12 -4 -20.667 -9.5 -26 -16.5s-8 -14.167 -8 -21.5z" />
    <glyph glyph-name="percent" unicode="%" 
d="M338 562c0 -24 -4.33301 -45.167 -13 -63.5s-20.167 -34 -34.5 -47s-30.666 -22.833 -48.999 -29.5s-37.166 -10 -56.499 -10s-38.166 3.33301 -56.499 10s-34.666 16.5 -48.999 29.5s-25.833 28.667 -34.5 47s-13 39.5 -13 63.5s4.33301 45.167 13 63.5
s20.167 34 34.5 47s30.666 22.833 48.999 29.5s37.166 10 56.499 10s38.166 -3.33301 56.499 -10s34.666 -16.5 48.999 -29.5s25.833 -28.667 34.5 -47s13 -39.5 13 -63.5zM185 496c16.667 0 31.334 5.66699 44.001 17s19 27.666 19 48.999s-6.33301 37.666 -19 48.999
s-27.334 17 -44.001 17s-31.334 -5.66699 -44.001 -17s-19 -27.666 -19 -48.999s6.33301 -37.666 19 -48.999s27.334 -17 44.001 -17zM580 138c0 -24 -4.33301 -45.167 -13 -63.5s-20.167 -34 -34.5 -47s-30.666 -22.833 -48.999 -29.5s-37.166 -10 -56.499 -10
s-38.166 3.33301 -56.499 10s-34.666 16.5 -48.999 29.5s-25.833 28.667 -34.5 47s-13 39.5 -13 63.5s4.33301 45.167 13 63.5s20.167 34 34.5 47s30.666 22.833 48.999 29.5s37.166 10 56.499 10s38.166 -3.33301 56.499 -10s34.666 -16.5 48.999 -29.5
s25.833 -28.667 34.5 -47s13 -39.5 13 -63.5zM427 72c16.667 0 31.334 5.66699 44.001 17s19 27.666 19 48.999s-6.33301 37.666 -19 48.999s-27.334 17 -44.001 17s-31.334 -5.66699 -44.001 -17s-19 -27.666 -19 -48.999s6.33301 -37.666 19 -48.999
s27.334 -17 44.001 -17zM521 510l41 -78l-472 -242l-41 78z" />
    <glyph glyph-name="ampersand" unicode="&#x26;" 
d="M373 294h-111c-28 0 -50.667 -7 -68 -21s-26 -35 -26 -63v-6c0 -28 8.66699 -49 26 -63s40 -21 68 -21h111v174zM499 496v-81.9971h92v-126h-92v-288h-250c-33.333 0 -63 4.66699 -89 14s-47.667 22.166 -65 38.499s-30.5 35.666 -39.5 57.999s-13.5 46.5 -13.5 72.5v12
c0 40 11.167 72.167 33.5 96.5s50.5 41.166 84.5 50.499v18c-34 9.33301 -62.167 26 -84.5 50s-33.5 56 -33.5 96v12c0 26 4.5 50.167 13.5 72.5s22.167 41.5 39.5 57.5s39 28.667 65 38s55.667 14 89 14h109v-120h-96c-28 0 -50.667 -6.5 -68 -19.5s-26 -33.167 -26 -60.5
v-6c0 -28 8.66699 -48.333 26 -61s40 -19 68 -19h111v82h126z" />
    <glyph glyph-name="quotesingle" unicode="'" 
d="M267 533c-16.667 7.33301 -30.167 18.833 -40.5 34.5s-15.5 33.167 -15.5 52.5c0 12.667 2.5 24.834 7.5 36.501s11.833 21.667 20.5 30s18.667 15 30 20s23.666 7.5 36.999 7.5c12.667 0 24.834 -2.5 36.501 -7.5s21.667 -11.667 30 -20s15 -18.333 20 -30
s7.5 -23.834 7.5 -36.501c0 -19.333 -5.16699 -36.833 -15.5 -52.5s-23.5 -27.167 -39.5 -34.5v-125h-78v125z" />
    <glyph glyph-name="parenleft" unicode="(" 
d="M570 -30v-125.994h-42c-49.333 0 -96.166 7.16699 -140.499 21.5s-83.166 36.666 -116.499 66.999s-59.833 69.166 -79.5 116.499s-29.5 103.666 -29.5 168.999v264c0 65.333 9.83301 121.666 29.5 168.999s46.167 86.166 79.5 116.499s72.166 52.666 116.499 66.999
s91.166 21.5 140.499 21.5h42v-126h-36c-34.667 0 -66.667 -4.66699 -96 -14s-54.833 -24.333 -76.5 -45s-38.667 -47.167 -51 -79.5s-18.5 -71.5 -18.5 -117.5v-248c0 -46 6.16699 -85.167 18.5 -117.5s29.333 -58.833 51 -79.5s47.167 -35.667 76.5 -45s61.333 -14 96 -14
h36z" />
    <glyph glyph-name="parenright" unicode=")" 
d="M78 -30c34.667 0 66.667 4.66113 96 13.9941s54.833 24.333 76.5 45s38.667 47.167 51 79.5s18.5 71.5 18.5 117.5v248c0 46 -6.16699 85.167 -18.5 117.5s-29.333 58.833 -51 79.5s-47.167 35.667 -76.5 45s-61.333 14 -96 14h-36v126h42
c49.333 0 96.166 -7.16699 140.499 -21.5s83.166 -36.666 116.499 -66.999s59.833 -69.166 79.5 -116.499s29.5 -103.666 29.5 -168.999v-264c0 -65.333 -9.83301 -121.666 -29.5 -168.999s-46.167 -86.166 -79.5 -116.499s-72.166 -52.666 -116.499 -66.999
s-91.166 -21.5 -140.499 -21.5h-42v126h36z" />
    <glyph glyph-name="asterisk" unicode="*" 
d="M448 141l-73 73l-33 74l-16 -7l28 -73v-106h-96v106l28 73l-16 7l-33 -74l-73 -73l-67 67l73 73l74 33l-7 16l-73 -28h-106v96h106l73 -28l7 16l-74 33l-73 73l67 67l73 -73l33 -74l16 7l-28 73v106h96v-106l-28 -73l16 -7l33 74l73 73l67 -67l-73 -73l-74 -33l7 -16
l73 28h106v-96h-106l-73 28l-7 -16l74 -33l73 -73z" />
    <glyph glyph-name="plus" unicode="+" 
d="M97 407h152v152h114v-152h152v-114h-152v-152h-114v152h-152v114z" />
    <glyph glyph-name="comma" unicode="," 
d="M211 81c0 12.667 2.49805 24.834 7.49805 36.501s11.833 21.667 20.5 30s18.667 15 30 20s23.666 7.5 36.999 7.5c12.667 0 24.834 -2.5 36.501 -7.5s21.834 -11.667 30.501 -20s15.5 -18.333 20.5 -30s7.5 -23.834 7.5 -36.501v-122
c0 -25.333 -8.5 -46.666 -25.5 -63.999s-38.167 -26 -63.5 -26h-64v78h48c18 0 27 10 27 30v12c-5.33301 -2 -11 -3 -17 -3c-13.333 0 -25.666 2.5 -36.999 7.5s-21.333 11.833 -30 20.5s-15.5 18.667 -20.5 30s-7.5 23.666 -7.5 36.999z" />
    <glyph glyph-name="hyphen" unicode="-" 
d="M150 332h312v-114h-312v114z" />
    <glyph glyph-name="period" unicode="." 
d="M401 81c0 -13.333 -2.5 -25.833 -7.5 -37.5s-11.833 -21.667 -20.5 -30s-18.834 -15 -30.501 -20s-23.834 -7.5 -36.501 -7.5c-13.333 0 -25.666 2.5 -36.999 7.5s-21.333 11.667 -30 20s-15.5 18.333 -20.5 30s-7.5 24.167 -7.5 37.5s2.5 25.833 7.5 37.5
s11.833 21.667 20.5 30s18.667 15 30 20s23.666 7.5 36.999 7.5c12.667 0 24.834 -2.5 36.501 -7.5s21.834 -11.667 30.501 -20s15.5 -18.333 20.5 -30s7.5 -24.167 7.5 -37.5z" />
    <glyph glyph-name="slash" unicode="/" 
d="M399 825l114 -36l-299 -914l-115 36z" />
    <glyph glyph-name="zero" unicode="0" 
d="M222 350c0 22.667 8.33301 42.334 25 59.001s36.334 25 59.001 25s42.334 -8.33301 59.001 -25s25 -36.334 25 -59.001s-8.33301 -42.334 -25 -59.001s-36.334 -25 -59.001 -25s-42.334 8.33301 -59.001 25s-25 36.334 -25 59.001zM48 428c0 90.667 22.833 161 68.5 211
s108.834 75 189.501 75s143.834 -25 189.501 -75s68.5 -120.333 68.5 -211v-156c0 -93.333 -22.833 -164.333 -68.5 -213s-108.834 -73 -189.501 -73s-143.834 24.333 -189.501 73s-68.5 119.667 -68.5 213v156zM306 106c24 0 44 3.83301 60 11.5s29 18.5 39 32.5
s17 30.667 21 50s6 40.666 6 63.999v172c0 22 -2.33301 42.667 -7 62s-12 36 -22 50s-23 25.167 -39 33.5s-35.333 12.5 -58 12.5s-42 -4.16699 -58 -12.5s-29 -19.5 -39 -33.5s-17.333 -30.667 -22 -50s-7 -40 -7 -62v-172c0 -23.333 2 -44.666 6 -63.999s11 -36 21 -50
s23 -24.833 39 -32.5s36 -11.5 60 -11.5z" />
    <glyph glyph-name="one" unicode="1" 
d="M264 126v508h-18l-66 -240h-126v12l84 294h258v-574h174v-126h-504v126h198z" />
    <glyph glyph-name="two" unicode="2" 
d="M557 126l-0.00292969 -126.003h-492v138c0 36.667 5.5 68 16.5 94s26.667 48 47 66s44.833 32.833 73.5 44.5s61 21.5 97 29.5c26.667 6 48.5 12.833 65.5 20.5s30.5 16.334 40.5 26.001s16.833 20.334 20.5 32.001s5.5 24.834 5.5 39.501c0 28 -10.167 51.333 -30.5 70
s-48.5 28 -84.5 28c-38 0 -68.333 -11.5 -91 -34.5s-34 -54.833 -34 -95.5v-44h-132v56c0 32.667 5.83301 63.834 17.5 93.501s28.334 55.667 50.001 78s48.167 40 79.5 53s66.666 19.5 105.999 19.5c42 0 78.667 -6.16699 110 -18.5s57.5 -28.5 78.5 -48.5
s36.667 -43.167 47 -69.5s15.5 -53.5 15.5 -81.5v-12c0 -58.667 -16.5 -107.334 -49.5 -146.001s-86.833 -66.667 -161.5 -84c-31.333 -7.33301 -57.166 -14.833 -77.499 -22.5s-36.166 -16.167 -47.499 -25.5s-19.166 -19.5 -23.499 -30.5s-6.5 -23.5 -6.5 -37.5v-12h360z
" />
    <glyph glyph-name="three" unicode="3" 
d="M238 300l-0.000976562 208.002l174 48v18h-348v126h456v-220l-186 -54v-18h24c24.667 0 49 -3.83301 73 -11.5s45.167 -19.5 63.5 -35.5s33.166 -35.833 44.499 -59.5s17 -51.5 17 -83.5v-12c0 -31.333 -5.16699 -60.333 -15.5 -87s-25.666 -49.834 -45.999 -69.501
s-45.5 -35.167 -75.5 -46.5s-64.333 -17 -103 -17c-39.333 0 -75 6.33301 -107 19s-59.167 30 -81.5 52s-39.5 47.333 -51.5 76s-18 59 -18 91v42h132v-36c0 -32 10.333 -59.667 31 -83s51.667 -35 93 -35c35.333 0 62.5 9 81.5 27s28.5 41.667 28.5 71
c0 31.333 -10.167 54.166 -30.5 68.499s-46.166 21.5 -77.499 21.5h-78z" />
    <glyph glyph-name="four" unicode="4" 
d="M232 700h250v-442h102v-126h-102v-132h-132v132h-312v182zM152 276v-18h198v376h-18z" />
    <glyph glyph-name="five" unicode="5" 
d="M66 312l0.00195312 387.998h468v-126h-336v-190h18c9.33301 26 26.833 48.5 52.5 67.5s60.167 28.5 103.5 28.5c32.667 0 62 -5.66699 88 -17s48 -27 66 -47s31.833 -44 41.5 -72s14.5 -58.667 14.5 -92v-6c0 -35.333 -5.83301 -68.666 -17.5 -99.999
s-28.667 -58.833 -51 -82.5s-49.833 -42.5 -82.5 -56.5s-70.334 -21 -113.001 -21s-80.334 5.83301 -113.001 17.5s-60.167 28 -82.5 49s-39.333 46 -51 75s-17.5 60.5 -17.5 94.5v24h132v-12c0 -35.333 10.833 -64.5 32.5 -87.5s53.5 -34.5 95.5 -34.5
s75.167 11.333 99.5 34s36.5 54 36.5 94c0 38 -9 66.5 -27 85.5s-41.667 28.5 -71 28.5c-19.333 0 -35 -4.16699 -47 -12.5s-19.667 -18.166 -23 -29.499h-216z" />
    <glyph glyph-name="six" unicode="6" 
d="M411 502c0 23.333 -8.5 43.502 -25.5 60.502s-43.5 25.5 -79.5 25.5s-64.5 -10.5 -85.5 -31.5s-31.5 -48.5 -31.5 -82.5v-90h18c11.333 23.333 29.666 42.166 54.999 56.499s54 21.5 86 21.5c28.667 0 55.667 -5.16699 81 -15.5s47.333 -25 66 -44
s33.334 -42.167 44.001 -69.5s16 -58.333 16 -93v-12c0 -35.333 -5.83301 -67.833 -17.5 -97.5s-28.334 -55.167 -50.001 -76.5s-47.834 -38 -78.501 -50s-65 -18 -103 -18c-34.667 0 -67.167 5.66699 -97.5 17s-56.666 27.166 -78.999 47.499s-40 44.666 -53 72.999
s-19.5 59.5 -19.5 93.5v255c0 36.667 6.66699 70 20 100s31.333 55.5 54 76.5s48.834 37.167 78.501 48.5s61.167 17 94.5 17s64.5 -4.83301 93.5 -14.5s54.333 -23.667 76 -42s38.667 -40.666 51 -66.999s18.5 -55.833 18.5 -88.5h-132zM306 112.002
c34 0 62 10.167 84 30.5s33 47.5 33 81.5s-11 61.167 -33 81.5s-50 30.5 -84 30.5s-62 -10.167 -84 -30.5s-33 -47.5 -33 -81.5s11 -61.167 33 -81.5s50 -30.5 84 -30.5z" />
    <glyph glyph-name="seven" unicode="7" 
d="M60 700l492.001 -0.000976562v-206l-253 -370c-13.333 -20 -23.833 -37.167 -31.5 -51.5s-11.5 -30.5 -11.5 -48.5v-24h-142v30c0 13.333 1 25.333 3 36s5.16699 21.334 9.5 32.001s10.166 22 17.499 34s16.333 26 27 42l261 382v18h-372v126z" />
    <glyph glyph-name="eight" unicode="8" 
d="M306 -14c-39.333 0 -74.666 4.83301 -105.999 14.5s-58 23.167 -80 40.5s-39 37.833 -51 61.5s-18 50.167 -18 79.5v6c0 24.667 3.5 46.334 10.5 65.001s16.333 34.667 28 48s24.834 24.333 39.501 33s30 15.334 46 20.001v18c-14 5.33301 -27.5 12.333 -40.5 21
s-24.333 19.167 -34 31.5s-17.334 27 -23.001 44s-8.5 36.167 -8.5 57.5v6c0 28.667 6.66699 54.334 20 77.001s31 41.834 53 57.501s47.167 27.5 75.5 35.5s57.833 12 88.5 12s60.167 -4 88.5 -12s53.5 -19.833 75.5 -35.5s39.667 -34.834 53 -57.501
s20 -48.334 20 -77.001v-6c0 -21.333 -2.83301 -40.5 -8.5 -57.5s-13.334 -31.667 -23.001 -44s-21 -22.833 -34 -31.5s-26.5 -15.667 -40.5 -21v-18c16 -4.66699 31.333 -11.334 46 -20.001s27.834 -19.667 39.501 -33s21 -29.333 28 -48s10.5 -40.334 10.5 -65.001v-6
c0 -29.333 -6 -56 -18 -80s-29 -44.5 -51 -61.5s-48.833 -30.333 -80.5 -40s-66.834 -14.5 -105.501 -14.5zM306 112c39.333 0 69.666 8.83301 90.999 26.5s32 40.167 32 67.5s-10.667 49.833 -32 67.5s-51.666 26.5 -90.999 26.5s-69.666 -8.83301 -90.999 -26.5
s-32 -40.167 -32 -67.5s10.667 -49.833 32 -67.5s51.666 -26.5 90.999 -26.5zM306 588c-30 0 -55 -7.66699 -75 -23s-30 -34.666 -30 -57.999s10 -42.666 30 -57.999s45 -23 75 -23s55 7.66699 75 23s30 34.666 30 57.999s-10 42.666 -30 57.999s-45 23 -75 23z" />
    <glyph glyph-name="nine" unicode="9" 
d="M201 198c0 -23.333 8.49902 -43.5029 25.499 -60.5029s43.5 -25.5 79.5 -25.5s64.5 10.5 85.5 31.5s31.5 48.5 31.5 82.5v90h-18c-9.33301 -23.333 -24.666 -42.166 -45.999 -56.499s-51.666 -21.5 -90.999 -21.5c-30 0 -57.833 5.5 -83.5 16.5s-48 26.5 -67 46.5
s-33.833 44 -44.5 72s-16 59 -16 93v12c0 33.333 6 64.5 18 93.5s28.833 54 50.5 75s48 37.5 79 49.5s65.5 18 103.5 18c34.667 0 67.167 -5.66699 97.5 -17s56.5 -27.166 78.5 -47.499s39.333 -44.666 52 -72.999s19 -59.5 19 -93.5v-255c0 -38 -6.33301 -72 -19 -102
s-30 -55.333 -52 -76s-47.833 -36.5 -77.5 -47.5s-61.834 -16.5 -96.501 -16.5c-34 0 -65.667 4.83301 -95 14.5s-54.833 23.667 -76.5 42s-38.667 40.5 -51 66.5s-18.5 55.667 -18.5 89h132zM305.999 587.997c-34 0 -62 -10.167 -84 -30.5s-33 -47.5 -33 -81.5
s11 -61.167 33 -81.5s50 -30.5 84 -30.5s62 10.167 84 30.5s33 47.5 33 81.5s-11 61.167 -33 81.5s-50 30.5 -84 30.5z" />
    <glyph glyph-name="colon" unicode=":" 
d="M401 81c0 -13.333 -2.5 -25.833 -7.5 -37.5s-11.833 -21.667 -20.5 -30s-18.834 -15 -30.501 -20s-23.834 -7.5 -36.501 -7.5c-13.333 0 -25.666 2.5 -36.999 7.5s-21.333 11.667 -30 20s-15.5 18.333 -20.5 30s-7.5 24.167 -7.5 37.5s2.5 25.833 7.5 37.5
s11.833 21.667 20.5 30s18.667 15 30 20s23.666 7.5 36.999 7.5c12.667 0 24.834 -2.5 36.501 -7.5s21.834 -11.667 30.501 -20s15.5 -18.333 20.5 -30s7.5 -24.167 7.5 -37.5zM401 415c0 -13.333 -2.5 -25.833 -7.5 -37.5s-11.833 -21.667 -20.5 -30
s-18.834 -15 -30.501 -20s-23.834 -7.5 -36.501 -7.5c-13.333 0 -25.666 2.5 -36.999 7.5s-21.333 11.667 -30 20s-15.5 18.333 -20.5 30s-7.5 24.167 -7.5 37.5s2.5 25.833 7.5 37.5s11.833 21.667 20.5 30s18.667 15 30 20s23.666 7.5 36.999 7.5
c12.667 0 24.834 -2.5 36.501 -7.5s21.834 -11.667 30.501 -20s15.5 -18.333 20.5 -30s7.5 -24.167 7.5 -37.5z" />
    <glyph glyph-name="semicolon" unicode=";" 
d="M211 81c0 13.333 2.49805 25.832 7.49805 37.499s11.833 21.667 20.5 30s18.667 15 30 20s23.666 7.5 36.999 7.5c12.667 0 24.834 -2.5 36.501 -7.5s21.834 -11.667 30.501 -20s15.5 -18.333 20.5 -30s7.5 -24.167 7.5 -37.5v-122c0 -25.333 -8.5 -46.666 -25.5 -63.999
s-38.167 -26 -63.5 -26h-64v78h48c18 0 27 10 27 30v12c-5.33301 -2 -11 -3 -17 -3c-13.333 0 -25.666 2.5 -36.999 7.5s-21.333 11.667 -30 20s-15.5 18.333 -20.5 30s-7.5 24.167 -7.5 37.5zM400.998 414.999c0 -13.333 -2.5 -25.833 -7.5 -37.5
s-11.833 -21.667 -20.5 -30s-18.834 -15 -30.501 -20s-23.834 -7.5 -36.501 -7.5c-13.333 0 -25.666 2.5 -36.999 7.5s-21.333 11.667 -30 20s-15.5 18.333 -20.5 30s-7.5 24.167 -7.5 37.5s2.5 25.833 7.5 37.5s11.833 21.667 20.5 30s18.667 15 30 20
s23.666 7.5 36.999 7.5c12.667 0 24.834 -2.5 36.501 -7.5s21.834 -11.667 30.501 -20s15.5 -18.333 20.5 -30s7.5 -24.167 7.5 -37.5z" />
    <glyph glyph-name="less" unicode="&#x3c;" 
d="M97 246v208l418 116v-120l-340 -91v-18l340 -91v-120z" />
    <glyph glyph-name="equal" unicode="=" 
d="M97 494h418v-114h-418v114zM97 320h418v-114h-418v114z" />
    <glyph glyph-name="greater" unicode="&#x3e;" 
d="M97 130v120l340 91v18l-340 91v120l418 -116v-208z" />
    <glyph glyph-name="question" unicode="?" 
d="M328 390c28.667 0 51.166 9.00098 67.499 27.001s24.5 41.667 24.5 71c0 28 -9.66699 51.667 -29 71s-45.666 29 -78.999 29c-18 0 -34 -3.16699 -48 -9.5s-26 -15 -36 -26s-17.5 -23.667 -22.5 -38s-7.5 -29.166 -7.5 -44.499v-42h-132v54c0 30 5.5 59 16.5 87
s27 52.667 48 74s47 38.5 78 51.5s66.167 19.5 105.5 19.5c35.333 0 67.666 -5.83301 96.999 -17.5s54.5 -27.834 75.5 -48.501s37.167 -44.834 48.5 -72.501s17 -57.5 17 -89.5v-6c0 -27.333 -4.16699 -53.333 -12.5 -78s-20.166 -46.334 -35.499 -65.001
s-34.333 -33.667 -57 -45s-48 -17 -76 -17c-9.33301 0 -16.333 -2.66699 -21 -8s-7 -12.666 -7 -21.999v-33h-126v86c0 26 8.83301 47.833 26.5 65.5s39.5 26.5 65.5 26.5h19zM375.999 81.001c0 -13.333 -2.5 -25.833 -7.5 -37.5s-11.833 -21.667 -20.5 -30
s-18.834 -15 -30.501 -20s-23.834 -7.5 -36.501 -7.5c-13.333 0 -25.666 2.5 -36.999 7.5s-21.333 11.667 -30 20s-15.5 18.333 -20.5 30s-7.5 24.167 -7.5 37.5s2.5 25.833 7.5 37.5s11.833 21.667 20.5 30s18.667 15 30 20s23.666 7.5 36.999 7.5
c12.667 0 24.834 -2.5 36.501 -7.5s21.834 -11.667 30.501 -20s15.5 -18.333 20.5 -30s7.5 -24.167 7.5 -37.5z" />
    <glyph glyph-name="at" unicode="@" 
d="M60 510v120h314c65.333 0 117.333 -17.333 156 -52s58 -86.667 58 -156v-340c0 -28 -8.83301 -51 -26.5 -69s-40.5 -27 -68.5 -27h-123c-25.333 0 -43.833 5.5 -55.5 16.5s-18.5 24.167 -20.5 39.5h-18c-6 -15.333 -16.833 -28.5 -32.5 -39.5s-38.167 -16.5 -67.5 -16.5
c-23.333 0 -44.833 4.5 -64.5 13.5s-36.667 22.667 -51 41s-25.666 41.5 -33.999 69.5s-12.5 61 -12.5 99v6c0 38 4.5 71 13.5 99s21 51.167 36 69.5s32.667 32 53 41s42.166 13.5 65.499 13.5c25.333 0 44.833 -4.83301 58.5 -14.5s23.5 -21.5 29.5 -35.5h18v36h120v-296
c0 -18.667 9 -28 27 -28h6c18 0 27 9.33301 27 28v262c0 80 -40 120 -120 120h-288zM212 100c27.333 0 46.833 10.167 58.5 30.5s17.5 46.5 17.5 78.5v6c0 32 -5.83301 58.167 -17.5 78.5s-31.167 30.5 -58.5 30.5c-25.333 0 -44.666 -10.167 -57.999 -30.5
s-20 -46.5 -20 -78.5v-6c0 -32 6.66699 -58.167 20 -78.5s32.666 -30.5 57.999 -30.5z" />
    <glyph glyph-name="A" unicode="A" 
d="M425 150h-238l-34 -150h-138l167 700h248l167 -700h-138zM215 276h181l-81 358h-18z" />
    <glyph glyph-name="B" unicode="B" 
d="M46 126l66 -0.00292969v448h-66v126h307c33.333 0 62.833 -4.66699 88.5 -14s47.334 -22 65.001 -38s31 -35.167 40 -57.5s13.5 -46.5 13.5 -72.5v-12c0 -40 -11.167 -72 -33.5 -96s-50.5 -40.667 -84.5 -50v-18c34 -9.33301 62.167 -26.166 84.5 -50.499
s33.5 -56.5 33.5 -96.5v-12c0 -26 -4.5 -50.167 -13.5 -72.5s-22.333 -41.666 -40 -57.999s-39.334 -29.166 -65.001 -38.499s-55.167 -14 -88.5 -14h-307v126zM244 125.997h96c28 0 50.667 6 68 18s26 32 26 60v6c0 28 -8.66699 48 -26 60s-40 18 -68 18h-96v-162z
M244 413.997h96c28 0 50.667 5.83301 68 17.5s26 31.5 26 59.5v6c0 28 -8.66699 47.833 -26 59.5s-40 17.5 -68 17.5h-96v-160z" />
    <glyph glyph-name="C" unicode="C" 
d="M308 106c25.333 0 46.168 3.83105 62.501 11.498s29 18 38 31s15.167 28 18.5 45s5 34.5 5 52.5v18h132v-18c0 -83.333 -21.833 -147.5 -65.5 -192.5s-107.167 -67.5 -190.5 -67.5c-80 0 -143.333 24.333 -190 73s-70 119.667 -70 213v156c0 44.667 6 84.834 18 120.501
s29.333 65.667 52 90s50 43 82 56s68 19.5 108 19.5c41.333 0 78 -6 110 -18s58.833 -29.333 80.5 -52s38 -50 49 -82s16.5 -68 16.5 -108v-18h-132v18c0 16.667 -2 33.334 -6 50.001s-10.667 31.667 -20 45s-22 24.166 -38 32.499s-36 12.5 -60 12.5
c-22 0 -41 -4.16699 -57 -12.5s-29.333 -19.666 -40 -33.999s-18.5 -31 -23.5 -50s-7.5 -38.833 -7.5 -59.5v-176c0 -22.667 2.33301 -43.5 7 -62.5s12 -35.5 22 -49.5s23.167 -24.833 39.5 -32.5s36.166 -11.5 59.499 -11.5z" />
    <glyph glyph-name="D" unicode="D" 
d="M46 700h254c86.667 0 151 -20.167 193 -60.5s63 -102.833 63 -187.5v-204c0 -84.667 -21 -147.167 -63 -187.5s-106.333 -60.5 -193 -60.5h-254v127h66v447h-66v126zM300 126c46 0 78.167 10.833 96.5 32.5s27.5 55.5 27.5 101.5v192c0 40 -9.16699 70.333 -27.5 91
s-50.5 31 -96.5 31h-56v-448h56z" />
    <glyph glyph-name="E" unicode="E" 
d="M82 700h442v-126h-310v-160h298v-126h-298v-162h322v-126h-454v700z" />
    <glyph glyph-name="F" unicode="F" 
d="M88 700h448v-126h-316v-160h310v-126h-310v-288h-132v700z" />
    <glyph glyph-name="G" unicode="G" 
d="M260 354h300.001v-354h-120v78h-18c-8 -26 -23.333 -47.833 -46 -65.5s-56.667 -26.5 -102 -26.5c-32 0 -62 6 -90 18s-52.333 29.833 -73 53.5s-37 53 -49 88s-18 75.833 -18 122.5v164c0 45.333 6.5 85.5 19.5 120.5s31 64.5 54 88.5s50.5 42.167 82.5 54.5
s67.333 18.5 106 18.5c40 0 75.667 -6.5 107 -19.5s58 -31 80 -54s38.667 -50 50 -81s17 -64.167 17 -99.5v-12h-132v12c0 42 -10.833 73.833 -32.5 95.5s-52.167 32.5 -91.5 32.5c-37.333 0 -68 -12.5 -92 -37.5s-36 -67.833 -36 -128.5v-148c0 -108 44 -162 132 -162
c39.333 0 69.166 10.5 89.499 31.5s30.5 49.167 30.5 84.5h-168v126z" />
    <glyph glyph-name="H" unicode="H" 
d="M61 700h132v-286h226v286h132v-700h-132v288h-226v-288h-132v700z" />
    <glyph glyph-name="I" unicode="I" 
d="M72 700h468v-126h-168v-448h168v-126h-468v126h168v448h-168v126z" />
    <glyph glyph-name="J" unicode="J" 
d="M517 210c0 -72.667 -19.6641 -128.168 -58.9971 -166.501s-93.333 -57.5 -162 -57.5c-35.333 0 -67.333 4.83301 -96 14.5s-53.334 24 -74.001 43s-36.667 42.333 -48 70s-17 59.834 -17 96.501v66h132v-66c0 -31.333 8.66699 -55.833 26 -73.5
s41.666 -26.5 72.999 -26.5c29.333 0 52.166 8.66699 68.499 26s24.5 42 24.5 74v366h-72v124h264v-124h-60v-366z" />
    <glyph glyph-name="K" unicode="K" 
d="M209 0h-132v700h132v-287h29l185 287h149v-6l-216 -335v-18l228 -335v-6h-155l-191 287h-29v-287z" />
    <glyph glyph-name="L" unicode="L" 
d="M82 700h132v-574h318v-126h-450v700z" />
    <glyph glyph-name="M" unicode="M" 
d="M22 700h232l40 -526v-102h24v102l40 526h232v-700h-120v468l12 160h-24l-52 -628h-198l-54 628h-24l12 -160v-468h-120v700z" />
    <glyph glyph-name="N" unicode="N" 
d="M401 66h18v634h132v-700h-258l-82 634h-18v-634h-132v700h258z" />
    <glyph glyph-name="O" unicode="O" 
d="M48 428c0 90.667 22.833 161 68.5 211s108.834 75 189.501 75s143.834 -25 189.501 -75s68.5 -120.333 68.5 -211v-156c0 -93.333 -22.833 -164.333 -68.5 -213s-108.834 -73 -189.501 -73s-143.834 24.333 -189.501 73s-68.5 119.667 -68.5 213v156zM306 106
c24 0 44 3.83301 60 11.5s29 18.5 39 32.5s17 30.667 21 50s6 40.666 6 63.999v172c0 22 -2.33301 42.667 -7 62s-12 36 -22 50s-23 25.167 -39 33.5s-35.333 12.5 -58 12.5s-42 -4.16699 -58 -12.5s-29 -19.5 -39 -33.5s-17.333 -30.667 -22 -50s-7 -40 -7 -62v-172
c0 -23.333 2 -44.666 6 -63.999s11 -36 21 -50s23 -24.833 39 -32.5s36 -11.5 60 -11.5z" />
    <glyph glyph-name="P" unicode="P" 
d="M204 264v-264.001h-132v700h274c36 0 67.333 -5.83301 94 -17.5s48.834 -27 66.501 -46s31 -40.667 40 -65s13.5 -49.166 13.5 -74.499v-24c0 -26 -4.5 -51.5 -13.5 -76.5s-22.333 -47.333 -40 -67s-39.834 -35.5 -66.501 -47.5s-58 -18 -94 -18h-142zM204 389.999h129
c29.333 0 52.5 8 69.5 24s25.5 36.667 25.5 62v12c0 25.333 -8.5 46 -25.5 62s-40.167 24 -69.5 24h-129v-184z" />
    <glyph glyph-name="Q" unicode="Q" 
d="M243 -8c-62 11.333 -110.003 40.667 -144.003 88s-51 111.333 -51 192v156c0 90.667 22.833 161 68.5 211s108.834 75 189.501 75s143.834 -25 189.501 -75s68.5 -120.333 68.5 -211v-156c0 -80.667 -17.167 -144.667 -51.5 -192s-82.166 -76.666 -143.499 -87.999v-18
c0 -18.667 8.33301 -28 25 -28h62v-120h-118c-27.333 0 -50 9.16699 -68 27.5s-27 41.166 -27 68.499v70zM305.997 106.001c24 0 44 4 60 12s29 19 39 33s17 30.833 21 50.5s6 41.167 6 64.5v168c0 22 -2.33301 42.667 -7 62s-12 36.333 -22 51s-23 26.167 -39 34.5
s-35.333 12.5 -58 12.5s-42 -4.16699 -58 -12.5s-29 -19.833 -39 -34.5s-17.333 -31.667 -22 -51s-7 -40 -7 -62v-168c0 -23.333 2 -44.833 6 -64.5s11 -36.5 21 -50.5s23 -25 39 -33s36 -12 60 -12z" />
    <glyph glyph-name="R" unicode="R" 
d="M543 0l-132 -0.000976562v210c0 16 -4.16699 29 -12.5 39s-22.166 15 -41.499 15h-152v-264h-132v700h268c36 0 67.667 -5 95 -15s50.166 -23.833 68.499 -41.5s32.333 -38.167 42 -61.5s14.5 -48.333 14.5 -75v-24c0 -28.667 -7.66699 -55.5 -23 -80.5
s-39 -44.167 -71 -57.5v-18c23.333 -2.66699 41.833 -11.667 55.5 -27s20.5 -34.666 20.5 -57.999v-242zM205 389.999h126c32 0 56.333 7.5 73 22.5s25 36.167 25 63.5v12c0 23.333 -8.33301 43.5 -25 60.5s-41 25.5 -73 25.5h-126v-184z" />
    <glyph glyph-name="S" unicode="S" 
d="M426 486c0 28 -10.8369 52.333 -32.5039 73s-52.167 31 -91.5 31c-33.333 0 -59.666 -6.83301 -78.999 -20.5s-29 -32.167 -29 -55.5c0 -12 2.33301 -22.833 7 -32.5s12.834 -18.334 24.501 -26.001s27 -14.5 46 -20.5s43.167 -11.667 72.5 -17
c73.333 -13.333 129.333 -35.666 168 -66.999s58 -77.666 58 -138.999v-12c0 -32.667 -5.83301 -62.167 -17.5 -88.5s-28.5 -48.833 -50.5 -67.5s-48.667 -33 -80 -43s-66.666 -15 -105.999 -15c-46 0 -86.5 6.5 -121.5 19.5s-64.167 31 -87.5 54s-41 50 -53 81
s-18 64.833 -18 101.5v30h132v-24c0 -42 12.167 -75.5 36.5 -100.5s62.166 -37.5 113.499 -37.5c40 0 69.667 8.66699 89 26s29 38 29 62c0 11.333 -2 22.166 -6 32.499s-11 19.666 -21 27.999s-23.667 15.833 -41 22.5s-39.333 12.334 -66 17.001
c-35.333 6 -67.666 13.833 -96.999 23.5s-54.833 22.5 -76.5 38.5s-38.5 36 -50.5 60s-18 53.333 -18 88v6c0 28.667 5.83301 55.167 17.5 79.5s28 45.5 49 63.5s46.333 32 76 42s62.834 15 99.501 15c41.333 0 78 -5.83301 110 -17.5s58.833 -27.5 80.5 -47.5
s38 -43 49 -69s16.5 -53.333 16.5 -82v-36h-132v24z" />
    <glyph glyph-name="T" unicode="T" 
d="M54 700h504v-126h-186v-574h-132v574h-186v126z" />
    <glyph glyph-name="U" unicode="U" 
d="M558 700v-458c0 -80 -21.167 -142.667 -63.5 -188s-105.166 -68 -188.499 -68s-146.166 22.667 -188.499 68s-63.5 108 -63.5 188v458h132v-458c0 -41.333 9.66699 -73.666 29 -96.999s49.666 -35 90.999 -35s71.666 11.667 90.999 35s29 55.666 29 96.999v458h132z" />
    <glyph glyph-name="V" unicode="V" 
d="M24 700h136l137 -634h18l137 634h136l-158 -700h-248z" />
    <glyph glyph-name="W" unicode="W" 
d="M580 0h-230l-32 532v96h-24v-96l-32 -532h-230l-24 700h120l16 -532v-90h24v90l32 532h212l32 -532v-90h24v90l16 532h120z" />
    <glyph glyph-name="X" unicode="X" 
d="M176 700l118 -286h24l118 286h143l-144 -340v-18l144 -342h-143l-118 288h-24l-118 -288h-143l144 342v18l-144 340h143z" />
    <glyph glyph-name="Y" unicode="Y" 
d="M240 246h-30l-201 454h144l144 -334h18l144 334h144l-201 -454h-30v-246h-132v246z" />
    <glyph glyph-name="Z" unicode="Z" 
d="M53 700h498v-216l-396 -340v-18h408v-126h-516v216l396 340v18h-390v126z" />
    <glyph glyph-name="bracketleft" unicode="[" 
d="M236 754c0 30 9.5 54.5 28.5 73.5s43.5 28.5 73.5 28.5h132v-120h-81c-18 0 -27 -10 -27 -30v-712c0 -20 9 -30 27 -30h81v-120h-132c-30 0 -54.5 9.5 -73.5 28.5s-28.5 43.5 -28.5 73.5v808z" />
    <glyph glyph-name="backslash" unicode="\" 
d="M513 -89l-115 -36l-299 914l114 36z" />
    <glyph glyph-name="bracketright" unicode="]" 
d="M376 -54c0 -30 -9.5 -54.5 -28.5 -73.5s-43.5 -28.5 -73.5 -28.5h-132v120h81c18 0 27 10 27 30v712c0 20 -9 30 -27 30h-81v120h132c30 0 54.5 -9.5 73.5 -28.5s28.5 -43.5 28.5 -73.5v-808z" />
    <glyph glyph-name="asciicircum" unicode="^" 
d="M546 424h-140l-91 210h-18l-91 -210h-140l134 276h212z" />
    <glyph glyph-name="underscore" unicode="_" 
d="M61 -48h490v-114h-490v114z" />
    <glyph glyph-name="grave" unicode="`" 
d="M397 570h-102l-84 136h134z" />
    <glyph glyph-name="a" unicode="a" 
d="M399 72c-13.333 -31.333 -32 -53.498 -56 -66.498s-52 -19.5 -84 -19.5c-30 0 -58.167 5.66699 -84.5 17s-49.5 28 -69.5 50s-35.833 48.667 -47.5 80s-17.5 67 -17.5 107v16c0 39.333 5.66699 74.666 17 105.999s26.666 58 45.999 80s41.833 38.833 67.5 50.5
s53.167 17.5 82.5 17.5c35.333 0 63.833 -6 85.5 -18s38.834 -30.667 51.501 -56h18v60h126v-346c0 -20 9 -30 27 -30h19v-120h-86c-22.667 0 -41.167 6.66699 -55.5 20s-21.5 30.666 -21.5 51.999h-18zM287 106.002c36.667 0 66 12.167 88 36.5s33 57.5 33 99.5v12
c0 42 -11 75.167 -33 99.5s-51.333 36.5 -88 36.5s-66 -12.167 -88 -36.5s-33 -57.5 -33 -99.5v-12c0 -42 11 -75.167 33 -99.5s51.333 -36.5 88 -36.5z" />
    <glyph glyph-name="b" unicode="b" 
d="M183 0l-126 0.000976562v700h126v-276h18c13.333 27.333 32.666 48.5 57.999 63.5s57.666 22.5 96.999 22.5c29.333 0 57.166 -5.66699 83.499 -17s49.333 -27.833 69 -49.5s35.334 -48.167 47.001 -79.5s17.5 -67 17.5 -107v-18c0 -40.667 -5.66699 -76.667 -17 -108
s-26.666 -57.833 -45.999 -79.5s-42.166 -38 -68.499 -49s-54.833 -16.5 -85.5 -16.5c-22.667 0 -42.334 2.33301 -59.001 7s-31.167 11 -43.5 19s-22.666 17.167 -30.999 27.5s-15.5 21.166 -21.5 32.499h-18v-72zM315 106.001c39.333 0 71.166 12.167 95.499 36.5
s36.5 57.5 36.5 99.5v12c0 42 -12.167 75.167 -36.5 99.5s-56.166 36.5 -95.499 36.5s-71.166 -12.5 -95.499 -37.5s-36.5 -57.833 -36.5 -98.5v-12c0 -40.667 12.167 -73.5 36.5 -98.5s56.166 -37.5 95.499 -37.5z" />
    <glyph glyph-name="c" unicode="c" 
d="M562 182c-11.333 -58.667 -38.168 -105.997 -80.501 -141.997s-98.833 -54 -169.5 -54c-36.667 0 -70.834 5.66699 -102.501 17s-59.167 27.666 -82.5 48.999s-41.666 47.666 -54.999 78.999s-20 67 -20 107v12c0 40 6.66699 76 20 108s31.833 59.333 55.5 82
s51.334 40 83.001 52s65.5 18 101.5 18c69.333 0 125.5 -18 168.5 -54s70.167 -83.333 81.5 -142l-124 -32c-4 29.333 -16.667 54.666 -38 75.999s-51.333 32 -90 32c-18 0 -35 -3.33301 -51 -10s-30 -16.167 -42 -28.5s-21.5 -27.333 -28.5 -45s-10.5 -37.5 -10.5 -59.5v-6
c0 -22 3.5 -41.5 10.5 -58.5s16.5 -31.167 28.5 -42.5s26 -19.833 42 -25.5s33 -8.5 51 -8.5c38.667 0 68.167 9.66699 88.5 29s33.5 45.333 39.5 78z" />
    <glyph glyph-name="d" unicode="d" 
d="M434 72l-17.999 -0.000976562c-5.33301 -11.333 -11.833 -22.166 -19.5 -32.499s-17.667 -19.5 -30 -27.5s-27 -14.333 -44 -19s-37.5 -7 -61.5 -7c-30.667 0 -59.167 5.5 -85.5 16.5s-49.333 27.333 -69 49s-35 48.167 -46 79.5s-16.5 67.333 -16.5 108v18
c0 40 5.83301 75.667 17.5 107s27.667 57.833 48 79.5s44 38.167 71 49.5s55.5 17 85.5 17c40 0 71.667 -7.5 95 -22.5s41.666 -36.167 54.999 -63.5h18v276h126v-700h-126v72zM302.001 105.999c39.333 0 71.166 12.5 95.499 37.5s36.5 57.833 36.5 98.5v12
c0 40.667 -12.167 73.5 -36.5 98.5s-56.166 37.5 -95.499 37.5s-71.166 -12.167 -95.499 -36.5s-36.5 -57.5 -36.5 -99.5v-12c0 -42 12.167 -75.167 36.5 -99.5s56.166 -36.5 95.499 -36.5z" />
    <glyph glyph-name="e" unicode="e" 
d="M189 207c0.666992 -14.667 4.16504 -28.168 10.498 -40.501s15 -23 26 -32s23.667 -16 38 -21s29.5 -7.5 45.5 -7.5c31.333 0 55.333 5.5 72 16.5s28.667 24.167 36 39.5l108 -60c-6 -12.667 -14.333 -25.834 -25 -39.501s-24.5 -26.167 -41.5 -37.5
s-37.667 -20.666 -62 -27.999s-52.833 -11 -85.5 -11c-37.333 0 -71.333 6 -102 18s-57.167 29.333 -79.5 52s-39.666 50.334 -51.999 83.001s-18.5 69.667 -18.5 111v6c0 38 6.5 72.667 19.5 104s30.833 58 53.5 80s49.167 39.167 79.5 51.5s62.833 18.5 97.5 18.5
c42.667 0 79.334 -7.5 110.001 -22.5s56 -34 76 -57s34.667 -48.333 44 -76s14 -54.5 14 -80.5v-67h-364zM307.998 395.999c-32 0 -58 -8.16699 -78 -24.5s-33 -35.166 -39 -56.499h234c-4 23.333 -16.5 42.666 -37.5 57.999s-47.5 23 -79.5 23z" />
    <glyph glyph-name="f" unicode="f" 
d="M74 496l141 -0.000976562v102c0 28.667 9.66699 52.834 29 72.501s43.333 29.5 72 29.5h202v-120h-150c-18 0 -27 -10 -27 -30v-54h195v-120h-195v-376h-126v376h-141v120z" />
    <glyph glyph-name="g" unicode="g" 
d="M432 72h-17.999c-5.33301 -11.333 -11.833 -22.166 -19.5 -32.499s-17.667 -19.5 -30 -27.5s-27 -14.333 -44 -19s-37.5 -7 -61.5 -7c-30.667 0 -59.167 5.5 -85.5 16.5s-49.333 27.333 -69 49s-35 48.167 -46 79.5s-16.5 67.333 -16.5 108v18
c0 40 5.83301 75.667 17.5 107s27.667 57.833 48 79.5s44 38.167 71 49.5s55.5 17 85.5 17c40 0 71.667 -7.5 95 -22.5s41.666 -36.167 54.999 -63.5h18v72h126v-618c0 -22.667 -7.16699 -41.334 -21.5 -56.001s-32.833 -22 -55.5 -22h-334v120h258c18 0 27 10 27 30v122z
M300.001 106c39.333 0 71.166 12.5 95.499 37.5s36.5 57.833 36.5 98.5v12c0 40.667 -12.167 73.5 -36.5 98.5s-56.166 37.5 -95.499 37.5s-71.166 -12.167 -95.499 -36.5s-36.5 -57.5 -36.5 -99.5v-12c0 -42 12.167 -75.167 36.5 -99.5s56.166 -36.5 95.499 -36.5z" />
    <glyph glyph-name="h" unicode="h" 
d="M206 0l-126.003 0.000976562v700h126v-284h18c12.667 30 31.334 53.167 56.001 69.5s55 24.5 91 24.5c24.667 0 47.334 -4 68.001 -12s38.667 -20 54 -36s27.333 -36.5 36 -61.5s13 -54.5 13 -88.5v-312h-126v282c0 35.333 -8.5 63.166 -25.5 83.499
s-41.5 30.5 -73.5 30.5c-37.333 0 -65.166 -12.5 -83.499 -37.5s-27.5 -58.5 -27.5 -100.5v-258z" />
    <glyph glyph-name="i" unicode="i" 
d="M87 120h168v256h-156v120h282v-376h144v-120h-438v120zM412 643c0 -13.333 -2.5 -25.833 -7.5 -37.5s-11.833 -21.667 -20.5 -30s-18.834 -15 -30.501 -20s-23.834 -7.5 -36.501 -7.5c-13.333 0 -25.666 2.5 -36.999 7.5s-21.333 11.667 -30 20s-15.5 18.333 -20.5 30
s-7.5 24.167 -7.5 37.5s2.5 25.833 7.5 37.5s11.833 21.667 20.5 30s18.667 15 30 20s23.666 7.5 36.999 7.5c12.667 0 24.834 -2.5 36.501 -7.5s21.834 -11.667 30.501 -20s15.5 -18.333 20.5 -30s7.5 -24.167 7.5 -37.5z" />
    <glyph glyph-name="j" unicode="j" 
d="M126 496l318 0.000976562v-594c0 -34.667 -9.33301 -60.334 -28 -77.001s-43 -25 -73 -25h-235v120h180c20 0 30 11 30 33v423h-192v120zM474 643.001c0 -13.333 -2.5 -25.833 -7.5 -37.5s-11.833 -21.667 -20.5 -30s-18.834 -15 -30.501 -20s-23.834 -7.5 -36.501 -7.5
c-13.333 0 -25.666 2.5 -36.999 7.5s-21.333 11.667 -30 20s-15.5 18.333 -20.5 30s-7.5 24.167 -7.5 37.5s2.5 25.833 7.5 37.5s11.833 21.667 20.5 30s18.667 15 30 20s23.666 7.5 36.999 7.5c12.667 0 24.834 -2.5 36.501 -7.5s21.834 -11.667 30.501 -20
s15.5 -18.333 20.5 -30s7.5 -24.167 7.5 -37.5z" />
    <glyph glyph-name="k" unicode="k" 
d="M244 314h24l132 182h138v-6l-160 -227v-18l176 -239v-6h-144l-142 194h-24v-194h-126v700h126v-386z" />
    <glyph glyph-name="l" unicode="l" 
d="M75 120h174v460h-168v120h294v-580h162v-120h-462v120z" />
    <glyph glyph-name="m" unicode="m" 
d="M576 0l-125.997 -0.000976562v348c0 14 -3.5 24.5 -10.5 31.5s-16.167 10.5 -27.5 10.5c-13.333 0 -23.833 -4 -31.5 -12s-11.5 -20 -11.5 -36v-342h-126v348c0 14 -3.83301 24.5 -11.5 31.5s-16.834 10.5 -27.501 10.5c-12 0 -22 -4 -30 -12s-12 -20 -12 -36v-342h-126
v496h126v-48h18c4 18 13.167 32.833 27.5 44.5s33.166 17.5 56.499 17.5c22 0 40.667 -5.83301 56 -17.5s25.666 -26.5 30.999 -44.5h18c5.33301 18 16.5 32.833 33.5 44.5s38.167 17.5 63.5 17.5c33.333 0 60 -11.167 80 -33.5s30 -53.166 30 -92.499v-384z" />
    <glyph glyph-name="n" unicode="n" 
d="M204 0l-126 0.000976562v496h126v-74h18c11.333 28 29.666 49.667 54.999 65s55 23 89 23c24 0 46.5 -3.83301 67.5 -11.5s39.5 -19.5 55.5 -35.5s28.5 -36.333 37.5 -61s13.5 -54 13.5 -88v-314h-126v282c0 35.333 -8.5 63.166 -25.5 83.499s-41.5 30.5 -73.5 30.5
c-37.333 0 -65.166 -12.5 -83.499 -37.5s-27.5 -58.5 -27.5 -100.5v-258z" />
    <glyph glyph-name="o" unicode="o" 
d="M564 242c0 -41.333 -7 -77.833 -21 -109.5s-33 -58.334 -57 -80.001s-51.5 -38.167 -82.5 -49.5s-63.5 -17 -97.5 -17s-66.5 5.66699 -97.5 17s-58.5 27.833 -82.5 49.5s-43 48.334 -57 80.001s-21 68.167 -21 109.5v12c0 40.667 7 76.834 21 108.501s33 58.5 57 80.5
s51.5 38.667 82.5 50s63.5 17 97.5 17s66.5 -5.66699 97.5 -17s58.5 -28 82.5 -50s43 -48.833 57 -80.5s21 -67.834 21 -108.501v-12zM306 106c18 0 35 3 51 9s30 14.667 42 26s21.5 25.166 28.5 41.499s10.5 34.833 10.5 55.5v20c0 20.667 -3.5 39.167 -10.5 55.5
s-16.5 30.166 -28.5 41.499s-26 20 -42 26s-33 9 -51 9s-35 -3 -51 -9s-30 -14.667 -42 -26s-21.5 -25.166 -28.5 -41.499s-10.5 -34.833 -10.5 -55.5v-20c0 -20.667 3.5 -39.167 10.5 -55.5s16.5 -30.166 28.5 -41.499s26 -20 42 -26s33 -9 51 -9z" />
    <glyph glyph-name="p" unicode="p" 
d="M178 -200l-126 0.000976562v696h126v-72h18c13.333 27.333 32.666 48.5 57.999 63.5s57.666 22.5 96.999 22.5c29.333 0 57.166 -5.66699 83.499 -17s49.333 -27.833 69 -49.5s35.334 -48.167 47.001 -79.5s17.5 -67 17.5 -107v-18c0 -40.667 -5.66699 -76.667 -17 -108
s-26.666 -57.833 -45.999 -79.5s-42.166 -38 -68.499 -49s-54.833 -16.5 -85.5 -16.5c-22.667 0 -42.334 2.33301 -59.001 7s-31.167 11 -43.5 19s-22.666 17.167 -30.999 27.5s-15.5 21.166 -21.5 32.499h-18v-272zM310 106.001c39.333 0 71.166 12.167 95.499 36.5
s36.5 57.5 36.5 99.5v12c0 42 -12.167 75.167 -36.5 99.5s-56.166 36.5 -95.499 36.5s-71.166 -12.5 -95.499 -37.5s-36.5 -57.833 -36.5 -98.5v-12c0 -40.667 12.167 -73.5 36.5 -98.5s56.166 -37.5 95.499 -37.5z" />
    <glyph glyph-name="q" unicode="q" 
d="M434 72l-17.999 -0.000976562c-5.33301 -11.333 -11.833 -22.166 -19.5 -32.499s-17.667 -19.5 -30 -27.5s-27 -14.333 -44 -19s-37.5 -7 -61.5 -7c-30.667 0 -59.167 5.5 -85.5 16.5s-49.333 27.333 -69 49s-35 48.167 -46 79.5s-16.5 67.333 -16.5 108v18
c0 40 5.83301 75.667 17.5 107s27.667 57.833 48 79.5s44 38.167 71 49.5s55.5 17 85.5 17c40 0 71.667 -7.5 95 -22.5s41.666 -36.167 54.999 -63.5h18v72h126v-696h-126v272zM302.001 105.999c39.333 0 71.166 12.5 95.499 37.5s36.5 57.833 36.5 98.5v12
c0 40.667 -12.167 73.5 -36.5 98.5s-56.166 37.5 -95.499 37.5s-71.166 -12.167 -95.499 -36.5s-36.5 -57.5 -36.5 -99.5v-12c0 -42 12.167 -75.167 36.5 -99.5s56.166 -36.5 95.499 -36.5z" />
    <glyph glyph-name="r" unicode="r" 
d="M54 496l210.002 0.000976562v-72h18c9.33301 27.333 25.166 48.5 47.499 63.5s49.166 22.5 80.499 22.5c49.333 0 89 -15.5 119 -46.5s45 -78.167 45 -141.5v-22l-130 -12v14c0 27.333 -7 49.166 -21 65.499s-35 24.5 -63 24.5s-50 -9.66699 -66 -29s-24 -47 -24 -83
v-160h114v-120h-342v120h102v256h-90v120z" />
    <glyph glyph-name="s" unicode="s" 
d="M236 356c0 -16 8.33398 -27.501 25.001 -34.501s47 -12.833 91 -17.5c50.667 -5.33301 92 -20.5 124 -45.5s48 -59.833 48 -104.5v-6c0 -49.333 -18 -88.666 -54 -117.999s-86.667 -44 -152 -44c-38.667 0 -71.667 5 -99 15s-50 22.5 -68 37.5s-31.833 31.667 -41.5 50
s-16.167 36.166 -19.5 53.499l116 38c5.33301 -21.333 16.5 -40 33.5 -56s43.167 -24 78.5 -24c31.333 0 52.833 4.83301 64.5 14.5s17.5 20.167 17.5 31.5c0 6.66699 -1.5 12.834 -4.5 18.501s-8.5 11 -16.5 16s-18.833 9.16699 -32.5 12.5s-30.834 6 -51.501 8
c-56 4.66699 -100.5 19.167 -133.5 43.5s-49.5 60.166 -49.5 107.499v6c0 24.667 5.33301 46.334 16 65.001s24.667 34.5 42 47.5s37.333 22.833 60 29.5s46 10 70 10c31.333 0 58.5 -3.83301 81.5 -11.5s42.5 -17.667 58.5 -30s29 -26 39 -41s17.667 -29.5 23 -43.5
l-114 -46c-6 18 -16.333 32.167 -31 42.5s-33.667 15.5 -57 15.5c-21.333 0 -37.333 -3.83301 -48 -11.5s-16 -17.167 -16 -28.5z" />
    <glyph glyph-name="t" unicode="t" 
d="M64 496l147 -0.000976562v204h126v-204h179v-120h-179v-226c0 -20 9 -30 27 -30h134v-120h-210c-22.667 0 -41.167 7.33301 -55.5 22s-21.5 33.334 -21.5 56.001v298h-147v120z" />
    <glyph glyph-name="u" unicode="u" 
d="M414 496h126v-496h-126v72h-18c-22 -57.333 -69.333 -86 -142 -86c-24.667 0 -47.667 4 -69 12s-40 20.333 -56 37s-28.5 37.5 -37.5 62.5s-13.5 54.5 -13.5 88.5v310h126v-284c0 -35.333 8.33301 -62.833 25 -82.5s41.667 -29.5 75 -29.5c38 0 65.833 12.167 83.5 36.5
s26.5 57.5 26.5 99.5v260z" />
    <glyph glyph-name="v" unicode="v" 
d="M43 496h136l117 -436h18l117 436h136l-142 -496h-240z" />
    <glyph glyph-name="w" unicode="w" 
d="M564 0h-218l-28 376v60h-24v-60l-28 -376h-218l-33 496h116l22 -376v-60h24v60l25 376h208l25 -376v-60h24v60l22 376h116z" />
    <glyph glyph-name="x" unicode="x" 
d="M407 496h139l-120 -233v-18l127 -245h-145l-93 194h-18l-93 -194h-145l127 245v18l-121 233h140l92 -182h18z" />
    <glyph glyph-name="y" unicode="y" 
d="M414 496l126 0.000976562v-618c0 -22.667 -7.16699 -41.334 -21.5 -56.001s-32.833 -22 -55.5 -22h-295v120h219c18 0 27 10 27 30v122h-18c-22 -57.333 -69.333 -86 -142 -86c-24.667 0 -47.667 4 -69 12s-40 20.333 -56 37s-28.5 37.5 -37.5 62.5
s-13.5 54.5 -13.5 88.5v310h126v-284c0 -35.333 8.33301 -62.833 25 -82.5s41.667 -29.5 75 -29.5c38 0 65.833 12.167 83.5 36.5s26.5 57.5 26.5 99.5v260z" />
    <glyph glyph-name="z" unicode="z" 
d="M523 120v-120h-432v210l312 152v18h-306v116h414v-204l-312 -154v-18h324z" />
    <glyph glyph-name="braceleft" unicode="{" 
d="M256 754c0 30 9.5 54.502 28.5 73.502s43.5 28.5 73.5 28.5h132v-120h-81c-18 0 -27 -10 -27 -30v-269c0 -22.667 -7.16699 -41.334 -21.5 -56.001s-33.166 -22 -56.499 -22h-6v-18h6c23.333 0 42.166 -7.33301 56.499 -22s21.5 -33.334 21.5 -56.001v-269
c0 -20 9 -30 27 -30h81v-120h-132c-30 0 -54.5 9.5 -73.5 28.5s-28.5 43.5 -28.5 73.5v303c0 19.333 -9 29 -27 29h-63v144h63c18 0 27 9.66699 27 29v303z" />
    <glyph glyph-name="bar" unicode="|" 
d="M366 -156h-120v1012h120v-1012z" />
    <glyph glyph-name="braceright" unicode="}" 
d="M356 451c0 -19.333 9 -29.002 27 -29.002h63v-144h-63c-18 0 -27 -9.66699 -27 -29v-303c0 -30 -9.5 -54.5 -28.5 -73.5s-43.5 -28.5 -73.5 -28.5h-132v120h81c18 0 27 10 27 30v269c0 22.667 7.16699 41.334 21.5 56.001s33.166 22 56.499 22h6v18h-6
c-23.333 0 -42.166 7.33301 -56.499 22s-21.5 33.334 -21.5 56.001v269c0 20 -9 30 -27 30h-81v120h132c30 0 54.5 -9.5 73.5 -28.5s28.5 -43.5 28.5 -73.5v-303z" />
    <glyph glyph-name="asciitilde" unicode="~" 
d="M335 376c8 -13.333 14.667 -22.5 20 -27.5s12.666 -7.5 21.999 -7.5c6.66699 0 13.167 1.83301 19.5 5.5s12.833 8.16699 19.5 13.5l86 63l70 -93l-121 -92c-11.333 -9.33301 -24.5 -17.5 -39.5 -24.5s-31.5 -10.5 -49.5 -10.5c-23.333 0 -41.666 4 -54.999 12
s-23.666 17.667 -30.999 29c-8 13.333 -14.667 22.5 -20 27.5s-12.666 7.5 -21.999 7.5c-6.66699 0 -13.167 -1.83301 -19.5 -5.5s-12.833 -8.16699 -19.5 -13.5l-86 -63l-70 93l121 92c11.333 9.33301 24.5 17.5 39.5 24.5s31.5 10.5 49.5 10.5
c23.333 0 41.666 -4 54.999 -12s23.666 -17.667 30.999 -29z" />
    <glyph glyph-name="uni00A0" unicode="&#xa0;" 
 />
    <glyph glyph-name="exclamdown" unicode="&#xa1;" 
d="M372 -199.957v487.97h-132v-487.97h132zM401 419.005c0 13.333 -2.5 25.832 -7.5 37.498s-11.833 21.665 -20.5 29.998s-18.834 14.999 -30.501 19.999c-11.667 4.99902 -23.834 7.49902 -36.501 7.49902c-13.333 0 -25.666 -2.5 -36.999 -7.49902
c-11.333 -5 -21.333 -11.666 -30 -19.999s-15.5 -18.332 -20.5 -29.998s-7.5 -24.165 -7.5 -37.498s2.5 -25.832 7.5 -37.498s11.833 -21.665 20.5 -29.998s18.667 -14.999 30 -19.998c11.333 -5 23.666 -7.5 36.999 -7.5c12.667 0 24.834 2.5 36.501 7.5
c11.667 4.99902 21.834 11.665 30.501 19.998s15.5 18.332 20.5 29.998s7.5 24.165 7.5 37.498z" />
    <glyph glyph-name="cent" unicode="&#xa2;" 
d="M360 608c52 -8 95.333 -28.6689 130 -62.002s56 -74.666 64 -123.999l-112 -26c-4 23.333 -12.333 44.333 -25 63s-31.667 31.667 -57 39v-296c25.333 7.33301 44.333 20.833 57 40.5s21.667 40.167 27 61.5l112 -26c-9.33301 -49.333 -31 -90.666 -65 -123.999
s-77.667 -54.333 -131 -63v-63h-96v63c-29.333 4.66699 -56.666 13.667 -81.999 27s-47.333 30.666 -66 51.999s-33.334 46.333 -44.001 75s-16 61 -16 97v12c0 34.667 5.33301 66.5 16 95.5s25.334 54.333 44.001 76s40.667 39.334 66 53.001s52.666 23.167 81.999 28.5v65
h96v-64zM170 344.998c0 -37.333 8.66699 -67.833 26 -91.5s40 -40.167 68 -49.5v291c-28 -10 -50.667 -27.5 -68 -52.5s-26 -55.5 -26 -91.5v-6z" />
    <glyph glyph-name="sterling" unicode="&#xa3;" 
d="M278 378l72 -0.000976562v-96h-72v-72h218v-108h-392v108h60v72h-60v96h60v60c0 56.667 15.833 99.834 47.5 129.501s73.167 44.5 124.5 44.5c24.667 0 47.667 -3.83301 69 -11.5s39.5 -18.834 54.5 -33.501s26.833 -32.667 35.5 -54s13 -45.666 13 -72.999v-18h-114v20
c0 16 -4.33301 30.333 -13 43s-23.667 19 -45 19s-36.333 -6.33301 -45 -19s-13 -27 -13 -43v-64z" />
    <glyph glyph-name="currency" unicode="&#xa4;" 
d="M56 350c0 24.667 3.33301 48.334 10 71.001s16.334 43.667 29.001 63l-61 61l77 77l61 -61c19.333 12 40.166 21.5 62.499 28.5s46.166 10.5 71.499 10.5c24.667 0 48.334 -3.5 71.001 -10.5s43.667 -16.5 63 -28.5l61 61l77 -77l-61 -61
c12 -19.333 21.5 -40.333 28.5 -63s10.5 -46.334 10.5 -71.001c0 -25.333 -3.5 -49.166 -10.5 -71.499s-16.5 -43.166 -28.5 -62.499l61 -61l-77 -77l-61 61c-19.333 -12.667 -40.333 -22.334 -63 -29.001s-46.334 -10 -71.001 -10c-25.333 0 -49.166 3.33301 -71.499 10
s-43.166 16.334 -62.499 29.001l-61 -61l-77 77l61 61c-12.667 19.333 -22.334 40.166 -29.001 62.499s-10 46.166 -10 71.499zM164 350c0 -20 3.66699 -38.667 11 -56s17.333 -32.333 30 -45s27.667 -22.667 45 -30s36 -11 56 -11s38.667 3.66699 56 11
s32.333 17.333 45 30s22.667 27.667 30 45s11 36 11 56s-3.66699 38.667 -11 56s-17.333 32.333 -30 45s-27.667 22.667 -45 30s-36 11 -56 11s-38.667 -3.66699 -56 -11s-32.333 -17.333 -45 -30s-22.667 -27.667 -30 -45s-11 -36 -11 -56z" />
    <glyph glyph-name="yen" unicode="&#xa5;" 
d="M115 390h57l-87 208h134l81 -208h12l81 208h134l-87 -208h57v-96h-128v-30h128v-96h-128v-66h-126v66h-128v96h128v30h-128v96z" />
    <glyph glyph-name="brokenbar" unicode="&#xa6;" 
d="M366 290v-446h-120v446h120zM246 410v446h120v-446h-120z" />
    <glyph glyph-name="section" unicode="&#xa7;" 
d="M352 598c0 9.33301 -3.16504 16.999 -9.49805 22.999s-17.166 9 -32.499 9c-12 0 -21 -2.33301 -27 -7s-9 -10.334 -9 -17.001c0 -9.33301 4 -16.5 12 -21.5s26 -10.167 54 -15.5c36 -6.66699 63.667 -19.334 83 -38.001s29 -45 29 -79
c0 -10.667 -1.33301 -21.667 -4 -33s-7.33398 -21.666 -14.001 -30.999c3.33301 -6 6.16602 -13.333 8.49902 -22s3.5 -18.667 3.5 -30c0 -34 -11.833 -62.167 -35.5 -84.5s-56.5 -33.5 -98.5 -33.5c-47.333 0 -83.166 12.333 -107.499 37s-36.5 55.334 -36.5 92.001v6h90
v-6c0 -14.667 5 -25.834 15 -33.501s23 -11.5 39 -11.5s27.333 3 34 9s10 13 10 21c0 4 -0.666992 7.83301 -2 11.5s-4 7.16699 -8 10.5s-10.167 6.33301 -18.5 9s-19.5 5.33398 -33.5 8.00098c-14.667 2.66699 -29 6.66699 -43 12s-26.333 12.5 -37 21.5
s-19.334 20.167 -26.001 33.5s-10 29.333 -10 48c0 14 1.83301 26.5 5.5 37.5s8.16699 20.167 13.5 27.5c-4 8 -7.16699 16.167 -9.5 24.5s-3.5 18.5 -3.5 30.5c0 34.667 12.167 61.334 36.5 80.001s54.166 28 89.499 28c21.333 0 40.333 -3 57 -9s30.5 -14.167 41.5 -24.5
s19.333 -22.5 25 -36.5s8.5 -28.667 8.5 -44v-6h-90v4zM356.002 440.999c1.33301 2.66699 2.00098 6 2.00098 10c0 9.33301 -3 17.166 -9 23.499s-18.667 11.833 -38 16.5l-36 8c-2 -3.33301 -3 -7.33301 -3 -12c0 -6.66699 2.66699 -13.167 8 -19.5
s18.666 -12.166 39.999 -17.499z" />
    <glyph glyph-name="dieresis" unicode="&#xa8;" 
d="M282 643c0 -13.333 -2.5 -25.833 -7.5 -37.5s-11.833 -21.667 -20.5 -30s-18.834 -15 -30.501 -20s-23.834 -7.5 -36.501 -7.5c-13.333 0 -25.666 2.5 -36.999 7.5s-21.333 11.667 -30 20s-15.5 18.333 -20.5 30s-7.5 24.167 -7.5 37.5s2.5 25.833 7.5 37.5
s11.833 21.667 20.5 30s18.667 15 30 20s23.666 7.5 36.999 7.5c12.667 0 24.834 -2.5 36.501 -7.5s21.834 -11.667 30.501 -20s15.5 -18.333 20.5 -30s7.5 -24.167 7.5 -37.5zM520 643c0 -13.333 -2.5 -25.833 -7.5 -37.5s-11.833 -21.667 -20.5 -30
s-18.834 -15 -30.501 -20s-23.834 -7.5 -36.501 -7.5c-13.333 0 -25.666 2.5 -36.999 7.5s-21.333 11.667 -30 20s-15.5 18.333 -20.5 30s-7.5 24.167 -7.5 37.5s2.5 25.833 7.5 37.5s11.833 21.667 20.5 30s18.667 15 30 20s23.666 7.5 36.999 7.5
c12.667 0 24.834 -2.5 36.501 -7.5s21.834 -11.667 30.501 -20s15.5 -18.333 20.5 -30s7.5 -24.167 7.5 -37.5z" />
    <glyph glyph-name="copyright" unicode="&#xa9;" 
d="M305 634c-11.333 0 -19.5 -3.33301 -24.5 -10s-7.5 -14 -7.5 -22v-92c0 -8 2.5 -15.333 7.5 -22s13.167 -10 24.5 -10s19.5 3.33301 24.5 10s7.5 14 7.5 22v16h78v-16c0 -30.667 -9.83301 -55.667 -29.5 -75s-46.5 -29 -80.5 -29c-32.667 0 -59.167 9.66699 -79.5 29
s-30.5 44.333 -30.5 75v92c0 30.667 10 55.667 30 75s46.667 29 80 29c34 0 60.833 -9.66699 80.5 -29s29.5 -44.333 29.5 -75v-16h-78v16c0 8 -2.5 15.333 -7.5 22s-13.167 10 -24.5 10zM28 556c0 38 7.33301 74 22 108s34.5 63.5 59.5 88.5s54.5 44.833 88.5 59.5
s70 22 108 22s74 -7.33301 108 -22s63.5 -34.5 88.5 -59.5s44.833 -54.5 59.5 -88.5s22 -70 22 -108s-7.33301 -74 -22 -108s-34.5 -63.5 -59.5 -88.5s-54.5 -44.833 -88.5 -59.5s-70 -22 -108 -22s-74 7.33301 -108 22s-63.5 34.5 -88.5 59.5s-44.833 54.5 -59.5 88.5
s-22 70 -22 108zM106 556c0 -28 5.16699 -54.167 15.5 -78.5s24.5 -45.5 42.5 -63.5s39.167 -32.167 63.5 -42.5s50.5 -15.5 78.5 -15.5s54.167 5.16699 78.5 15.5s45.5 24.5 63.5 42.5s32.167 39.167 42.5 63.5s15.5 50.5 15.5 78.5s-5.16699 54.167 -15.5 78.5
s-24.5 45.5 -42.5 63.5s-39.167 32.167 -63.5 42.5s-50.5 15.5 -78.5 15.5s-54.167 -5.16699 -78.5 -15.5s-45.5 -24.5 -63.5 -42.5s-32.167 -39.167 -42.5 -63.5s-15.5 -50.5 -15.5 -78.5z" />
    <glyph glyph-name="ordfeminine" unicode="&#xaa;" 
d="M347 446c-6.66699 -12 -16.332 -21.6689 -28.999 -29.002s-28.667 -11 -48 -11c-18 0 -35 3.33301 -51 10s-30 16.334 -42 29.001s-21.5 28.334 -28.5 47.001s-10.5 40 -10.5 64s3.5 45.167 10.5 63.5s16.5 34 28.5 47s26.167 22.833 42.5 29.5s33.833 10 52.5 10
c20 0 35.667 -3.16699 47 -9.5s20.666 -14.5 27.999 -24.5h9v28h80v-193c0 -11.333 5.33301 -17 16 -17h20v-78h-76c-12 0 -21.333 3.16699 -28 9.5s-10.667 14.5 -12 24.5h-9zM287.002 483.998c20 0 35.833 6.5 47.5 19.5s17.5 30.5 17.5 52.5s-5.83301 39.5 -17.5 52.5
s-27.5 19.5 -47.5 19.5s-35.833 -6.5 -47.5 -19.5s-17.5 -30.5 -17.5 -52.5s5.83301 -39.5 17.5 -52.5s27.5 -19.5 47.5 -19.5z" />
    <glyph glyph-name="guillemotleft" unicode="&#xab;" 
d="M294.011 0v142l-173.989 97v18l173.989 97v142h-5.99902l-245.985 -152v-192l245.985 -152h5.99902zM570.011 0v142l-173.989 97v18l173.989 97v142h-5.99902l-245.985 -152v-192l245.985 -152h5.99902z" />
    <glyph glyph-name="logicalnot" unicode="&#xac;" 
d="M97 407h418v-245h-114v131h-304v114z" />
    <glyph glyph-name="registered" unicode="&#xae;" 
d="M28 556c0 38 7.33301 74 22 108s34.5 63.5 59.5 88.5s54.5 44.833 88.5 59.5s70 22 108 22s74 -7.33301 108 -22s63.5 -34.5 88.5 -59.5s44.833 -54.5 59.5 -88.5s22 -70 22 -108s-7.33301 -74 -22 -108s-34.5 -63.5 -59.5 -88.5s-54.5 -44.833 -88.5 -59.5
s-70 -22 -108 -22s-74 7.33301 -108 22s-63.5 34.5 -88.5 59.5s-44.833 54.5 -59.5 88.5s-22 70 -22 108zM106 556c0 -28 5.16699 -54.167 15.5 -78.5s24.5 -45.5 42.5 -63.5s39.167 -32.167 63.5 -42.5s50.5 -15.5 78.5 -15.5s54.167 5.16699 78.5 15.5
s45.5 24.5 63.5 42.5s32.167 39.167 42.5 63.5s15.5 50.5 15.5 78.5s-5.16699 54.167 -15.5 78.5s-24.5 45.5 -42.5 63.5s-39.167 32.167 -63.5 42.5s-50.5 15.5 -78.5 15.5s-54.167 -5.16699 -78.5 -15.5s-45.5 -24.5 -63.5 -42.5s-32.167 -39.167 -42.5 -63.5
s-15.5 -50.5 -15.5 -78.5zM408 412h-78v71c0 7.33301 -2.16699 13.333 -6.5 18s-10.5 7 -18.5 7h-11v-96h-78v288h106c30 0 52.833 -8 68.5 -24s23.5 -34.667 23.5 -56c0 -35.333 -13.333 -58.333 -40 -69v-9c12 -1.33301 20.667 -6 26 -14s8 -16.667 8 -26v-90zM294 580h16
c17.333 0 26 8 26 24s-8.66699 24 -26 24h-16v-48z" />
    <glyph glyph-name="macron" unicode="&#xaf;" 
d="M453 570h-294v102h294v-102z" />
    <glyph glyph-name="degree" unicode="&#xb0;" 
d="M149 569c0 22 4.16699 42.5 12.5 61.5s19.5 35.5 33.5 49.5s30.5 25.167 49.5 33.5s39.5 12.5 61.5 12.5s42.5 -4.16699 61.5 -12.5s35.5 -19.5 49.5 -33.5s25.167 -30.5 33.5 -49.5s12.5 -39.5 12.5 -61.5s-4.16699 -42.5 -12.5 -61.5s-19.5 -35.5 -33.5 -49.5
s-30.5 -25.167 -49.5 -33.5s-39.5 -12.5 -61.5 -12.5s-42.5 4.16699 -61.5 12.5s-35.5 19.5 -49.5 33.5s-25.167 30.5 -33.5 49.5s-12.5 39.5 -12.5 61.5zM257 569c0 -13.333 4.83301 -24.833 14.5 -34.5s21.167 -14.5 34.5 -14.5s24.833 4.83301 34.5 14.5
s14.5 21.167 14.5 34.5s-4.83301 24.833 -14.5 34.5s-21.167 14.5 -34.5 14.5s-24.833 -4.83301 -34.5 -14.5s-14.5 -21.167 -14.5 -34.5z" />
    <glyph glyph-name="plusminus" unicode="&#xb1;" 
d="M97 407h152v152h114v-152h152v-114h-152v-131h-114v131h-152v114zM97 114h418v-114h-418v114z" />
    <glyph glyph-name="twosuperior" unicode="&#xb2;" 
d="M413 484l0.000976562 -72.0029h-213v66c0 14.667 2.5 27.5 7.5 38.5s11.667 20.333 20 28s17.666 13.834 27.999 18.501s21.166 8.33398 32.499 11.001c22 5.33301 35.833 10.5 41.5 15.5s8.5 11.167 8.5 18.5s-2.5 13.5 -7.5 18.5s-12.167 7.5 -21.5 7.5
c-20.667 0 -31 -12 -31 -36h-78v6c0 31.333 10 56.166 30 74.499s47.667 27.5 83 27.5c31.333 0 56.333 -9 75 -27s28 -39 28 -63c0 -27.333 -6.66699 -48.166 -20 -62.499s-30.666 -24.166 -51.999 -29.499c-26 -7.33301 -43.5 -13.333 -52.5 -18s-13.5 -12 -13.5 -22h135z
" />
    <glyph glyph-name="threesuperior" unicode="&#xb3;" 
d="M200 512l78.0029 0.000976562v-6c0 -9.33301 2.66699 -16.333 8 -21s12.666 -7 21.999 -7s16.666 2.33301 21.999 7s8 11.667 8 21c0 20 -11.333 30 -34 30h-26v70l46 15v9h-115v70h193v-98l-46 -17v-9c15.333 -3.33301 29.166 -11 41.499 -23s18.5 -29 18.5 -51
c0 -28.667 -9.33301 -51.834 -28 -69.501s-44 -26.5 -76 -26.5c-38 0 -66.167 9.66699 -84.5 29s-27.5 41 -27.5 65v12z" />
    <glyph glyph-name="acute" unicode="&#xb4;" 
d="M267 706h134l-84 -136h-102z" />
    <glyph glyph-name="mu" unicode="&#xb5;" 
d="M411 30h-17.9961c-6.66699 -13.333 -17 -24 -31 -32s-32.667 -12 -56 -12s-42 4 -56 12s-24.333 18.667 -31 32h-18v-230h-126v696h126v-276c0 -16.667 1.66699 -32.167 5 -46.5s9.16602 -27 17.499 -38s19.166 -19.667 32.499 -26s30 -9.5 50 -9.5
s36.667 3.16699 50 9.5s24.166 15 32.499 26s14.166 23.667 17.499 38s5 29.833 5 46.5v276h126v-496h-126v30z" />
    <glyph glyph-name="paragraph" unicode="&#xb6;" 
d="M261 424h-12c-20 0 -38.833 3.83301 -56.5 11.5s-33 18 -46 31s-23.167 28.333 -30.5 46s-11 36.5 -11 56.5s3.66699 38.833 11 56.5s17.5 33 30.5 46s28.333 23.333 46 31s36.5 11.5 56.5 11.5h258v-496h-108v394h-30v-394h-108v206zM261 526v86h-12
c-11.333 0 -21.166 -3.5 -29.499 -10.5s-12.5 -17.833 -12.5 -32.5s4.16699 -25.5 12.5 -32.5s18.166 -10.5 29.499 -10.5h12z" />
    <glyph glyph-name="periodcentered" unicode="&#xb7;" 
d="M401 350c0 -13.333 -2.5 -25.833 -7.5 -37.5s-11.833 -21.667 -20.5 -30s-18.834 -15 -30.501 -20s-23.834 -7.5 -36.501 -7.5c-13.333 0 -25.666 2.5 -36.999 7.5s-21.333 11.667 -30 20s-15.5 18.333 -20.5 30s-7.5 24.167 -7.5 37.5s2.5 25.833 7.5 37.5
s11.833 21.667 20.5 30s18.667 15 30 20s23.666 7.5 36.999 7.5c12.667 0 24.834 -2.5 36.501 -7.5s21.834 -11.667 30.501 -20s15.5 -18.333 20.5 -30s7.5 -24.167 7.5 -37.5z" />
    <glyph glyph-name="cedilla" unicode="&#xb8;" 
d="M300 0l-9.99902 -46h12c3.33301 6 8.66602 11.167 15.999 15.5s17.333 6.5 30 6.5c28 0 48.833 -8.66699 62.5 -26s20.5 -38 20.5 -62c0 -31.333 -10.5 -55.833 -31.5 -73.5s-47.167 -26.5 -78.5 -26.5c-19.333 0 -35.333 1.83301 -48 5.5s-24.667 8.5 -36 14.5l26 68
c15.333 -9.33301 32 -14 50 -14c10 0 18.167 2.33301 24.5 7s9.5 11 9.5 19c0 6 -1.66699 11.167 -5 15.5s-8.33301 6.5 -15 6.5c-11.333 0 -18 -4.66699 -20 -14h-97v12l20 92h70z" />
    <glyph glyph-name="onesuperior" unicode="&#xb9;" 
d="M282 484v132h-6l-72 -60h-6v90l72 54h90v-216h72v-72h-228v72h78z" />
    <glyph glyph-name="ordmasculine" unicode="&#xba;" 
d="M157 556c0 24.667 4 46.334 12 65.001s18.833 34.334 32.5 47.001s29.5 22.167 47.5 28.5s37 9.5 57 9.5s39 -3.16699 57 -9.5s33.833 -15.833 47.5 -28.5s24.5 -28.334 32.5 -47.001s12 -40.334 12 -65.001s-4 -46.334 -12 -65.001s-18.833 -34.334 -32.5 -47.001
s-29.5 -22.167 -47.5 -28.5s-37 -9.5 -57 -9.5s-39 3.16699 -57 9.5s-33.833 15.833 -47.5 28.5s-24.5 28.334 -32.5 47.001s-12 40.334 -12 65.001zM306 484c20.667 0 36.667 6.5 48 19.5s17 30.5 17 52.5s-5.66699 39.5 -17 52.5s-27.333 19.5 -48 19.5
s-36.667 -6.5 -48 -19.5s-17 -30.5 -17 -52.5s5.66699 -39.5 17 -52.5s27.333 -19.5 48 -19.5z" />
    <glyph glyph-name="guillemotright" unicode="&#xbb;" 
d="M43 0v142l174 97v18l-174 97v142h6l246 -152v-192l-246 -152h-6zM318 0v142l174 97v18l-174 97v142h6l246 -152v-192l-246 -152h-6z" />
    <glyph glyph-name="onequarter" unicode="&#xbc;" 
d="M532 510l41 -78l-472 -242l-41 78zM137 484v132h-6l-72 -60h-6v90l72 54h90v-216h72v-72h-228v72h78zM405 289h138v-170h42v-70h-42v-48h-78v48h-130v97zM405 128v-9h60v118h-9z" />
    <glyph glyph-name="onehalf" unicode="&#xbd;" 
d="M135 484v132h-6l-72 -60h-6v90l72 54h90v-216h72v-72h-228v72h78zM568 73l0.000976562 -72.0029h-213v66c0 14.667 2.5 27.5 7.5 38.5s11.667 20.333 20 28s17.666 13.834 27.999 18.501s21.166 8.33398 32.499 11.001c22 5.33301 35.833 10.5 41.5 15.5
s8.5 11.167 8.5 18.5s-2.5 13.5 -7.5 18.5s-12.167 7.5 -21.5 7.5c-20.667 0 -31 -12 -31 -36h-78v6c0 31.333 10 56.166 30 74.499s47.667 27.5 83 27.5c31.333 0 56.333 -9 75 -27s28 -39 28 -63c0 -27.333 -6.66699 -48.166 -20 -62.499s-30.666 -24.166 -51.999 -29.499
c-26 -7.33301 -43.5 -13.333 -52.5 -18s-13.5 -12 -13.5 -22h135zM530.001 509.997l41 -78l-472 -242l-41 78z" />
    <glyph glyph-name="threequarters" unicode="&#xbe;" 
d="M525 510l41 -78l-472 -242l-41 78zM47 512l78.0029 0.000976562v-6c0 -9.33301 2.66699 -16.333 8 -21s12.666 -7 21.999 -7s16.666 2.33301 21.999 7s8 11.667 8 21c0 20 -11.333 30 -34 30h-26v70l46 15v9h-115v70h193v-98l-46 -17v-9
c15.333 -3.33301 29.166 -11 41.499 -23s18.5 -29 18.5 -51c0 -28.667 -9.33301 -51.834 -28 -69.501s-44 -26.5 -76 -26.5c-38 0 -66.167 9.66699 -84.5 29s-27.5 41 -27.5 65v12zM398.003 289.001h138v-170h42v-70h-42v-48h-78v48h-130v97zM398.003 128.001v-9h60v118h-9z
" />
    <glyph glyph-name="questiondown" unicode="&#xbf;" 
d="M287.02 110.023c-28.665 0 -51.165 -8.99707 -67.4971 -26.9961c-16.333 -17.999 -24.499 -41.6641 -24.499 -70.9961c0 -27.998 9.66602 -51.6631 28.998 -70.9951c19.333 -19.332 45.665 -28.998 78.9961 -28.998c17.999 0 33.998 3.16602 47.9971 9.49902
s25.998 14.999 35.9971 25.998c9.99902 11 17.499 23.666 22.499 37.998c4.99902 14.333 7.49902 29.165 7.49902 44.4971v41.998h131.992v-53.9971c0 -29.998 -5.5 -58.9961 -16.499 -86.9941c-10.999 -27.999 -26.998 -52.6641 -47.9971 -73.9961
s-46.9971 -38.498 -77.9951 -51.4971s-66.1621 -19.498 -105.493 -19.498c-35.3311 0 -67.6621 5.83301 -96.9932 17.499c-29.332 11.665 -54.4971 27.8301 -75.4961 48.4951c-20.999 20.666 -37.165 44.8311 -48.498 72.4961s-16.999 57.4961 -16.999 89.4941v6
c0 27.3311 4.16699 53.3291 12.5 77.9941s20.166 46.3301 35.499 64.9951c15.332 18.665 34.3311 33.6641 56.9961 44.9971s47.9971 16.999 75.9951 16.999c9.33301 0 16.333 2.66699 21 8c4.66602 5.33301 6.99902 12.666 6.99902 21.999v32.998h125.993v-85.9941
c0 -25.999 -8.83301 -47.8311 -26.499 -65.4961c-17.665 -17.666 -39.4971 -26.499 -65.4961 -26.499h-18.999zM239.021 419.007c0 13.333 2.5 25.832 7.49902 37.498c5 11.666 11.833 21.665 20.499 29.998s18.832 14.999 30.498 19.999
c11.666 4.99902 23.832 7.49902 36.498 7.49902c13.332 0 25.6641 -2.5 36.9971 -7.49902c11.333 -5 21.332 -11.666 29.998 -19.999c8.66699 -8.33301 15.5 -18.332 20.499 -29.998c5 -11.666 7.5 -24.165 7.5 -37.498s-2.5 -25.832 -7.5 -37.498
c-4.99902 -11.666 -11.832 -21.665 -20.499 -29.998c-8.66602 -8.33301 -18.665 -14.999 -29.998 -19.998c-11.333 -5 -23.665 -7.5 -36.9971 -7.5c-12.666 0 -24.832 2.5 -36.498 7.5c-11.666 4.99902 -21.832 11.665 -30.498 19.998s-15.499 18.332 -20.499 29.998
c-4.99902 11.666 -7.49902 24.165 -7.49902 37.498z" />
    <glyph glyph-name="Agrave" unicode="&#xc0;" 
d="M425 150h-238l-34 -150h-138l167 700h248l167 -700h-138zM215 276h181l-81 358h-18zM358 774h-102l-84 136h134z" />
    <glyph glyph-name="Aacute" unicode="&#xc1;" 
d="M425 150h-238l-34 -150h-138l167 700h248l167 -700h-138zM215 276h181l-81 358h-18zM307 910h134l-84 -136h-102z" />
    <glyph glyph-name="Acircumflex" unicode="&#xc2;" 
d="M425 150h-238l-34 -150h-138l167 700h248l167 -700h-138zM215 276h181l-81 358h-18zM355 774l-43 88h-12l-43 -88h-121l84 136h172l84 -136h-121z" />
    <glyph glyph-name="Atilde" unicode="&#xc3;" 
d="M425 150h-238l-34 -150h-138l167 700h248l167 -700h-138zM215 276h181l-81 358h-18zM322 893c5.33301 -6 10.666 -11.5 15.999 -16.5s12.666 -7.5 21.999 -7.5s16.833 2.16699 22.5 6.5s11.167 10.166 16.5 17.499l30 38l77 -61l-56 -72c-12 -15.333 -25 -26.5 -39 -33.5
s-29.667 -10.5 -47 -10.5c-13.333 0 -26.166 3 -38.499 9s-24.166 15.667 -35.499 29c-5.33301 6 -10.666 11.5 -15.999 16.5s-12.666 7.5 -21.999 7.5s-16.833 -2.16699 -22.5 -6.5s-11.167 -10.166 -16.5 -17.499l-30 -38l-77 61l56 72c12.667 16 26 27.333 40 34
s29.333 10 46 10c13.333 0 26.166 -3 38.499 -9s24.166 -15.667 35.499 -29z" />
    <glyph glyph-name="Adieresis" unicode="&#xc4;" 
d="M425 150h-238l-34 -150h-138l167 700h248l167 -700h-138zM215 276h181l-81 358h-18zM282 843c0 -13.333 -2.5 -25.833 -7.5 -37.5s-11.833 -21.667 -20.5 -30s-18.834 -15 -30.501 -20s-23.834 -7.5 -36.501 -7.5c-13.333 0 -25.666 2.5 -36.999 7.5
s-21.333 11.667 -30 20s-15.5 18.333 -20.5 30s-7.5 24.167 -7.5 37.5s2.5 25.833 7.5 37.5s11.833 21.667 20.5 30s18.667 15 30 20s23.666 7.5 36.999 7.5c12.667 0 24.834 -2.5 36.501 -7.5s21.834 -11.667 30.501 -20s15.5 -18.333 20.5 -30s7.5 -24.167 7.5 -37.5z
M520 843c0 -13.333 -2.5 -25.833 -7.5 -37.5s-11.833 -21.667 -20.5 -30s-18.834 -15 -30.501 -20s-23.834 -7.5 -36.501 -7.5c-13.333 0 -25.666 2.5 -36.999 7.5s-21.333 11.667 -30 20s-15.5 18.333 -20.5 30s-7.5 24.167 -7.5 37.5s2.5 25.833 7.5 37.5
s11.833 21.667 20.5 30s18.667 15 30 20s23.666 7.5 36.999 7.5c12.667 0 24.834 -2.5 36.501 -7.5s21.834 -11.667 30.501 -20s15.5 -18.333 20.5 -30s7.5 -24.167 7.5 -37.5z" />
    <glyph glyph-name="Aring" unicode="&#xc5;" 
d="M425 150h-238l-34 -150h-138l167 700h248l167 -700h-138zM215 276h181l-81 358h-18zM198 876c0 14.667 2.83301 28.667 8.5 42s13.334 24.833 23.001 34.5s21 17.334 34 23.001s27.167 8.5 42.5 8.5c14.667 0 28.667 -2.83301 42 -8.5s24.833 -13.334 34.5 -23.001
s17.334 -21.167 23.001 -34.5s8.5 -27.333 8.5 -42c0 -15.333 -2.83301 -29.5 -8.5 -42.5s-13.334 -24.333 -23.001 -34s-21.167 -17.334 -34.5 -23.001s-27.333 -8.5 -42 -8.5c-15.333 0 -29.5 2.83301 -42.5 8.5s-24.333 13.334 -34 23.001s-17.334 21 -23.001 34
s-8.5 27.167 -8.5 42.5zM276 876c0 -8.66699 2.83301 -15.834 8.5 -21.501s12.834 -8.5 21.501 -8.5s15.834 2.83301 21.501 8.5s8.5 12.834 8.5 21.501s-2.83301 15.834 -8.5 21.501s-12.834 8.5 -21.501 8.5s-15.834 -2.83301 -21.501 -8.5s-8.5 -12.834 -8.5 -21.501z
" />
    <glyph glyph-name="AE" unicode="&#xc6;" 
d="M286 150h-114l-34 -150h-138l167 700h423v-126h-172v-160h166v-126h-166v-162h178v-126h-310v150zM200 276h86v298h-18z" />
    <glyph glyph-name="Ccedilla" unicode="&#xc7;" 
d="M308 106c25.333 0 46.168 3.83105 62.501 11.498s29 18 38 31s15.167 28 18.5 45s5 34.5 5 52.5v18h132v-18c0 -78 -19.167 -139.167 -57.5 -183.5s-93.833 -69.5 -166.5 -75.5l-7 -33h12c3.33301 6 8.66602 11.167 15.999 15.5s17.333 6.5 30 6.5
c28 0 48.833 -8.66699 62.5 -26s20.5 -38 20.5 -62c0 -31.333 -10.5 -55.833 -31.5 -73.5s-47.167 -26.5 -78.5 -26.5c-19.333 0 -35.333 1.83301 -48 5.5s-24.667 8.5 -36 14.5l26 68c15.333 -9.33301 32 -14 50 -14c10 0 18.167 2.33301 24.5 7s9.5 11 9.5 19
c0 6 -1.66699 11.167 -5 15.5s-8.33301 6.5 -15 6.5c-11.333 0 -18 -4.66699 -20 -14h-97v12l17 80c-69.333 7.33301 -123.666 35 -162.999 83s-59 115 -59 201v156c0 44.667 6 84.834 18 120.501s29.333 65.667 52 90s50 43 82 56s68 19.5 108 19.5c41.333 0 78 -6 110 -18
s58.833 -29.333 80.5 -52s38 -50 49 -82s16.5 -68 16.5 -108v-18h-132v18c0 16.667 -2 33.334 -6 50.001s-10.667 31.667 -20 45s-22 24.166 -38 32.499s-36 12.5 -60 12.5c-22 0 -41 -4.16699 -57 -12.5s-29.333 -19.666 -40 -33.999s-18.5 -31 -23.5 -50
s-7.5 -38.833 -7.5 -59.5v-176c0 -22.667 2.33301 -43.5 7 -62.5s12 -35.5 22 -49.5s23.167 -24.833 39.5 -32.5s36.166 -11.5 59.499 -11.5z" />
    <glyph glyph-name="Egrave" unicode="&#xc8;" 
d="M82 700h442v-126h-310v-160h298v-126h-298v-162h322v-126h-454v700zM366 774h-102l-84 136h134z" />
    <glyph glyph-name="Eacute" unicode="&#xc9;" 
d="M82 700h442v-126h-310v-160h298v-126h-298v-162h322v-126h-454v700zM309 910h134l-84 -136h-102z" />
    <glyph glyph-name="Ecircumflex" unicode="&#xca;" 
d="M82 700h442v-126h-310v-160h298v-126h-298v-162h322v-126h-454v700zM353 774l-43 88h-12l-43 -88h-121l84 136h172l84 -136h-121z" />
    <glyph glyph-name="Edieresis" unicode="&#xcb;" 
d="M82 700h442v-126h-310v-160h298v-126h-298v-162h322v-126h-454v700zM280 843c0 -13.333 -2.5 -25.833 -7.5 -37.5s-11.833 -21.667 -20.5 -30s-18.834 -15 -30.501 -20s-23.834 -7.5 -36.501 -7.5c-13.333 0 -25.666 2.5 -36.999 7.5s-21.333 11.667 -30 20
s-15.5 18.333 -20.5 30s-7.5 24.167 -7.5 37.5s2.5 25.833 7.5 37.5s11.833 21.667 20.5 30s18.667 15 30 20s23.666 7.5 36.999 7.5c12.667 0 24.834 -2.5 36.501 -7.5s21.834 -11.667 30.501 -20s15.5 -18.333 20.5 -30s7.5 -24.167 7.5 -37.5zM518 843
c0 -13.333 -2.5 -25.833 -7.5 -37.5s-11.833 -21.667 -20.5 -30s-18.834 -15 -30.501 -20s-23.834 -7.5 -36.501 -7.5c-13.333 0 -25.666 2.5 -36.999 7.5s-21.333 11.667 -30 20s-15.5 18.333 -20.5 30s-7.5 24.167 -7.5 37.5s2.5 25.833 7.5 37.5s11.833 21.667 20.5 30
s18.667 15 30 20s23.666 7.5 36.999 7.5c12.667 0 24.834 -2.5 36.501 -7.5s21.834 -11.667 30.501 -20s15.5 -18.333 20.5 -30s7.5 -24.167 7.5 -37.5z" />
    <glyph glyph-name="Igrave" unicode="&#xcc;" 
d="M72 700h468v-126h-168v-448h168v-126h-468v126h168v448h-168v126zM351 774h-102l-84 136h134z" />
    <glyph glyph-name="Iacute" unicode="&#xcd;" 
d="M72 700h468v-126h-168v-448h168v-126h-468v126h168v448h-168v126zM308 910h134l-84 -136h-102z" />
    <glyph glyph-name="Icircumflex" unicode="&#xce;" 
d="M72 700h468v-126h-168v-448h168v-126h-468v126h168v448h-168v126zM355 774l-43 88h-12l-43 -88h-121l84 136h172l84 -136h-121z" />
    <glyph glyph-name="Idieresis" unicode="&#xcf;" 
d="M72 700h468v-126h-168v-448h168v-126h-468v126h168v448h-168v126zM282 843c0 -13.333 -2.5 -25.833 -7.5 -37.5s-11.833 -21.667 -20.5 -30s-18.834 -15 -30.501 -20s-23.834 -7.5 -36.501 -7.5c-13.333 0 -25.666 2.5 -36.999 7.5s-21.333 11.667 -30 20
s-15.5 18.333 -20.5 30s-7.5 24.167 -7.5 37.5s2.5 25.833 7.5 37.5s11.833 21.667 20.5 30s18.667 15 30 20s23.666 7.5 36.999 7.5c12.667 0 24.834 -2.5 36.501 -7.5s21.834 -11.667 30.501 -20s15.5 -18.333 20.5 -30s7.5 -24.167 7.5 -37.5zM520 843
c0 -13.333 -2.5 -25.833 -7.5 -37.5s-11.833 -21.667 -20.5 -30s-18.834 -15 -30.501 -20s-23.834 -7.5 -36.501 -7.5c-13.333 0 -25.666 2.5 -36.999 7.5s-21.333 11.667 -30 20s-15.5 18.333 -20.5 30s-7.5 24.167 -7.5 37.5s2.5 25.833 7.5 37.5s11.833 21.667 20.5 30
s18.667 15 30 20s23.666 7.5 36.999 7.5c12.667 0 24.834 -2.5 36.501 -7.5s21.834 -11.667 30.501 -20s15.5 -18.333 20.5 -30s7.5 -24.167 7.5 -37.5z" />
    <glyph glyph-name="Eth" unicode="&#xd0;" 
d="M46 410h66v164h-66v126h254c86.667 0 151 -20.167 193 -60.5s63 -102.833 63 -187.5v-204c0 -84.667 -21 -147.167 -63 -187.5s-106.333 -60.5 -193 -60.5h-254v126h66v164h-66v120zM300 126c46 0 78.167 10.833 96.5 32.5s27.5 55.5 27.5 101.5v192
c0 40 -9.16699 70.333 -27.5 91s-50.5 31 -96.5 31h-56v-164h98v-120h-98v-164h56z" />
    <glyph glyph-name="Ntilde" unicode="&#xd1;" 
d="M401 66h18v634h132v-700h-258l-82 634h-18v-634h-132v700h258zM328 891c5.33301 -6 10.666 -11.5 15.999 -16.5s12.666 -7.5 21.999 -7.5s16.833 2.16699 22.5 6.5s11.167 10.166 16.5 17.499l30 38l77 -61l-56 -72c-12 -15.333 -25 -26.5 -39 -33.5
s-29.667 -10.5 -47 -10.5c-13.333 0 -26.166 3 -38.499 9s-24.166 15.667 -35.499 29c-5.33301 6 -10.666 11.5 -15.999 16.5s-12.666 7.5 -21.999 7.5s-16.833 -2.16699 -22.5 -6.5s-11.167 -10.166 -16.5 -17.499l-30 -38l-77 61l56 72c12.667 16 26 27.333 40 34
s29.333 10 46 10c13.333 0 26.166 -3 38.499 -9s24.166 -15.667 35.499 -29z" />
    <glyph glyph-name="Ograve" unicode="&#xd2;" 
d="M48 428c0 90.667 22.833 161 68.5 211s108.834 75 189.501 75s143.834 -25 189.501 -75s68.5 -120.333 68.5 -211v-156c0 -93.333 -22.833 -164.333 -68.5 -213s-108.834 -73 -189.501 -73s-143.834 24.333 -189.501 73s-68.5 119.667 -68.5 213v156zM306 106
c24 0 44 3.83301 60 11.5s29 18.5 39 32.5s17 30.667 21 50s6 40.666 6 63.999v172c0 22 -2.33301 42.667 -7 62s-12 36 -22 50s-23 25.167 -39 33.5s-35.333 12.5 -58 12.5s-42 -4.16699 -58 -12.5s-29 -19.5 -39 -33.5s-17.333 -30.667 -22 -50s-7 -40 -7 -62v-172
c0 -23.333 2 -44.666 6 -63.999s11 -36 21 -50s23 -24.833 39 -32.5s36 -11.5 60 -11.5zM359 774h-102l-84 136h134z" />
    <glyph glyph-name="Oacute" unicode="&#xd3;" 
d="M48 428c0 90.667 22.833 161 68.5 211s108.834 75 189.501 75s143.834 -25 189.501 -75s68.5 -120.333 68.5 -211v-156c0 -93.333 -22.833 -164.333 -68.5 -213s-108.834 -73 -189.501 -73s-143.834 24.333 -189.501 73s-68.5 119.667 -68.5 213v156zM306 106
c24 0 44 3.83301 60 11.5s29 18.5 39 32.5s17 30.667 21 50s6 40.666 6 63.999v172c0 22 -2.33301 42.667 -7 62s-12 36 -22 50s-23 25.167 -39 33.5s-35.333 12.5 -58 12.5s-42 -4.16699 -58 -12.5s-29 -19.5 -39 -33.5s-17.333 -30.667 -22 -50s-7 -40 -7 -62v-172
c0 -23.333 2 -44.666 6 -63.999s11 -36 21 -50s23 -24.833 39 -32.5s36 -11.5 60 -11.5zM306 910h134l-84 -136h-102z" />
    <glyph glyph-name="Ocircumflex" unicode="&#xd4;" 
d="M48 428c0 90.667 22.833 161 68.5 211s108.834 75 189.501 75s143.834 -25 189.501 -75s68.5 -120.333 68.5 -211v-156c0 -93.333 -22.833 -164.333 -68.5 -213s-108.834 -73 -189.501 -73s-143.834 24.333 -189.501 73s-68.5 119.667 -68.5 213v156zM306 106
c24 0 44 3.83301 60 11.5s29 18.5 39 32.5s17 30.667 21 50s6 40.666 6 63.999v172c0 22 -2.33301 42.667 -7 62s-12 36 -22 50s-23 25.167 -39 33.5s-35.333 12.5 -58 12.5s-42 -4.16699 -58 -12.5s-29 -19.5 -39 -33.5s-17.333 -30.667 -22 -50s-7 -40 -7 -62v-172
c0 -23.333 2 -44.666 6 -63.999s11 -36 21 -50s23 -24.833 39 -32.5s36 -11.5 60 -11.5zM355 774l-43 88h-12l-43 -88h-121l84 136h172l84 -136h-121z" />
    <glyph glyph-name="Otilde" unicode="&#xd5;" 
d="M48 428c0 90.667 22.833 161 68.5 211s108.834 75 189.501 75s143.834 -25 189.501 -75s68.5 -120.333 68.5 -211v-156c0 -93.333 -22.833 -164.333 -68.5 -213s-108.834 -73 -189.501 -73s-143.834 24.333 -189.501 73s-68.5 119.667 -68.5 213v156zM306 106
c24 0 44 3.83301 60 11.5s29 18.5 39 32.5s17 30.667 21 50s6 40.666 6 63.999v172c0 22 -2.33301 42.667 -7 62s-12 36 -22 50s-23 25.167 -39 33.5s-35.333 12.5 -58 12.5s-42 -4.16699 -58 -12.5s-29 -19.5 -39 -33.5s-17.333 -30.667 -22 -50s-7 -40 -7 -62v-172
c0 -23.333 2 -44.666 6 -63.999s11 -36 21 -50s23 -24.833 39 -32.5s36 -11.5 60 -11.5zM322 893c5.33301 -6 10.666 -11.5 15.999 -16.5s12.666 -7.5 21.999 -7.5s16.833 2.16699 22.5 6.5s11.167 10.166 16.5 17.499l30 38l77 -61l-56 -72
c-12 -15.333 -25 -26.5 -39 -33.5s-29.667 -10.5 -47 -10.5c-13.333 0 -26.166 3 -38.499 9s-24.166 15.667 -35.499 29c-5.33301 6 -10.666 11.5 -15.999 16.5s-12.666 7.5 -21.999 7.5s-16.833 -2.16699 -22.5 -6.5s-11.167 -10.166 -16.5 -17.499l-30 -38l-77 61l56 72
c12.667 16 26 27.333 40 34s29.333 10 46 10c13.333 0 26.166 -3 38.499 -9s24.166 -15.667 35.499 -29z" />
    <glyph glyph-name="Odieresis" unicode="&#xd6;" 
d="M48 428c0 90.667 22.833 161 68.5 211s108.834 75 189.501 75s143.834 -25 189.501 -75s68.5 -120.333 68.5 -211v-156c0 -93.333 -22.833 -164.333 -68.5 -213s-108.834 -73 -189.501 -73s-143.834 24.333 -189.501 73s-68.5 119.667 -68.5 213v156zM306 106
c24 0 44 3.83301 60 11.5s29 18.5 39 32.5s17 30.667 21 50s6 40.666 6 63.999v172c0 22 -2.33301 42.667 -7 62s-12 36 -22 50s-23 25.167 -39 33.5s-35.333 12.5 -58 12.5s-42 -4.16699 -58 -12.5s-29 -19.5 -39 -33.5s-17.333 -30.667 -22 -50s-7 -40 -7 -62v-172
c0 -23.333 2 -44.666 6 -63.999s11 -36 21 -50s23 -24.833 39 -32.5s36 -11.5 60 -11.5zM282 843c0 -13.333 -2.5 -25.833 -7.5 -37.5s-11.833 -21.667 -20.5 -30s-18.834 -15 -30.501 -20s-23.834 -7.5 -36.501 -7.5c-13.333 0 -25.666 2.5 -36.999 7.5
s-21.333 11.667 -30 20s-15.5 18.333 -20.5 30s-7.5 24.167 -7.5 37.5s2.5 25.833 7.5 37.5s11.833 21.667 20.5 30s18.667 15 30 20s23.666 7.5 36.999 7.5c12.667 0 24.834 -2.5 36.501 -7.5s21.834 -11.667 30.501 -20s15.5 -18.333 20.5 -30s7.5 -24.167 7.5 -37.5z
M520 843c0 -13.333 -2.5 -25.833 -7.5 -37.5s-11.833 -21.667 -20.5 -30s-18.834 -15 -30.501 -20s-23.834 -7.5 -36.501 -7.5c-13.333 0 -25.666 2.5 -36.999 7.5s-21.333 11.667 -30 20s-15.5 18.333 -20.5 30s-7.5 24.167 -7.5 37.5s2.5 25.833 7.5 37.5
s11.833 21.667 20.5 30s18.667 15 30 20s23.666 7.5 36.999 7.5c12.667 0 24.834 -2.5 36.501 -7.5s21.834 -11.667 30.501 -20s15.5 -18.333 20.5 -30s7.5 -24.167 7.5 -37.5z" />
    <glyph glyph-name="multiply" unicode="&#xd7;" 
d="M520 481l-132 -131l132 -131l-81 -81l-133 131l-133 -131l-81 81l132 131l-132 131l81 81l133 -131l133 131z" />
    <glyph glyph-name="Oslash" unicode="&#xd8;" 
d="M48 428c0 90.667 22.8311 161 68.498 211s108.834 75 189.501 75c20.667 0 40.667 -2 60 -6l24 73l109 -34l-28 -86c30 -24.667 53 -56.5 69 -95.5s24 -84.833 24 -137.5v-156c0 -93.333 -22.833 -164.333 -68.5 -213s-108.834 -73 -189.501 -73
c-21.333 0 -39.666 1.33301 -54.999 4l-27 -83l-110 34l30 93c-31.333 23.333 -55.166 54.833 -71.499 94.5s-24.5 87.5 -24.5 143.5v156zM179.998 264c0 -16.667 0.832031 -32 2.49902 -46s4.83398 -27 9.50098 -39l136 413c-3.33301 0.666992 -7 1.16699 -11 1.5
s-7.66699 0.5 -11 0.5c-22.667 0 -42 -4.16699 -58 -12.5s-29 -19.5 -39 -33.5s-17.333 -30.667 -22 -50s-7 -40 -7 -62v-172zM305.997 106c24 0 44 3.83594 60 11.5029s29 18.5 39 32.5s17 30.667 21 50s6 40.666 6 63.999v172c0 13.333 -0.833008 26.166 -2.5 38.499
s-4.5 24.166 -8.5 35.499l-132 -404h17z" />
    <glyph glyph-name="Ugrave" unicode="&#xd9;" 
d="M558 700v-458c0 -80 -21.167 -142.667 -63.5 -188s-105.166 -68 -188.499 -68s-146.166 22.667 -188.499 68s-63.5 108 -63.5 188v458h132v-458c0 -41.333 9.66699 -73.666 29 -96.999s49.666 -35 90.999 -35s71.666 11.667 90.999 35s29 55.666 29 96.999v458h132z
M357 774h-102l-84 136h134z" />
    <glyph glyph-name="Uacute" unicode="&#xda;" 
d="M558 700v-458c0 -80 -21.167 -142.667 -63.5 -188s-105.166 -68 -188.499 -68s-146.166 22.667 -188.499 68s-63.5 108 -63.5 188v458h132v-458c0 -41.333 9.66699 -73.666 29 -96.999s49.666 -35 90.999 -35s71.666 11.667 90.999 35s29 55.666 29 96.999v458h132z
M308 910h134l-84 -136h-102z" />
    <glyph glyph-name="Ucircumflex" unicode="&#xdb;" 
d="M558 700v-458c0 -80 -21.167 -142.667 -63.5 -188s-105.166 -68 -188.499 -68s-146.166 22.667 -188.499 68s-63.5 108 -63.5 188v458h132v-458c0 -41.333 9.66699 -73.666 29 -96.999s49.666 -35 90.999 -35s71.666 11.667 90.999 35s29 55.666 29 96.999v458h132z
M355 774l-43 88h-12l-43 -88h-121l84 136h172l84 -136h-121z" />
    <glyph glyph-name="Udieresis" unicode="&#xdc;" 
d="M558 700v-458c0 -80 -21.167 -142.667 -63.5 -188s-105.166 -68 -188.499 -68s-146.166 22.667 -188.499 68s-63.5 108 -63.5 188v458h132v-458c0 -41.333 9.66699 -73.666 29 -96.999s49.666 -35 90.999 -35s71.666 11.667 90.999 35s29 55.666 29 96.999v458h132z
M282 843c0 -13.333 -2.5 -25.833 -7.5 -37.5s-11.833 -21.667 -20.5 -30s-18.834 -15 -30.501 -20s-23.834 -7.5 -36.501 -7.5c-13.333 0 -25.666 2.5 -36.999 7.5s-21.333 11.667 -30 20s-15.5 18.333 -20.5 30s-7.5 24.167 -7.5 37.5s2.5 25.833 7.5 37.5
s11.833 21.667 20.5 30s18.667 15 30 20s23.666 7.5 36.999 7.5c12.667 0 24.834 -2.5 36.501 -7.5s21.834 -11.667 30.501 -20s15.5 -18.333 20.5 -30s7.5 -24.167 7.5 -37.5zM520 843c0 -13.333 -2.5 -25.833 -7.5 -37.5s-11.833 -21.667 -20.5 -30
s-18.834 -15 -30.501 -20s-23.834 -7.5 -36.501 -7.5c-13.333 0 -25.666 2.5 -36.999 7.5s-21.333 11.667 -30 20s-15.5 18.333 -20.5 30s-7.5 24.167 -7.5 37.5s2.5 25.833 7.5 37.5s11.833 21.667 20.5 30s18.667 15 30 20s23.666 7.5 36.999 7.5
c12.667 0 24.834 -2.5 36.501 -7.5s21.834 -11.667 30.501 -20s15.5 -18.333 20.5 -30s7.5 -24.167 7.5 -37.5z" />
    <glyph glyph-name="Yacute" unicode="&#xdd;" 
d="M240 246h-30l-201 454h144l144 -334h18l144 334h144l-201 -454h-30v-246h-132v246zM317 910h134l-84 -136h-102z" />
    <glyph glyph-name="Thorn" unicode="&#xde;" 
d="M202 132v-132.001h-132v700h132v-132h142c36 0 67.333 -5.83301 94 -17.5s48.834 -27 66.501 -46s31 -40.667 40 -65s13.5 -49.166 13.5 -74.499v-24c0 -26 -4.5 -51.5 -13.5 -76.5s-22.333 -47.333 -40 -67s-39.834 -35.5 -66.501 -47.5s-58 -18 -94 -18h-142z
M202 257.999h129c29.333 0 52.5 8 69.5 24s25.5 36.667 25.5 62v12c0 25.333 -8.5 46 -25.5 62s-40.167 24 -69.5 24h-129v-184z" />
    <glyph glyph-name="germandbls" unicode="&#xdf;" 
d="M350 346l43.9971 0.00585938c23.333 0 46.333 -3.33301 69 -10s42.834 -17.334 60.501 -32.001s31.834 -33.334 42.501 -56.001s16 -50 16 -82v-6c0 -25.333 -4 -48.5 -12 -69.5s-19.667 -39.333 -35 -55s-34.333 -27.834 -57 -36.501s-48.667 -13 -78 -13
c-26.667 0 -50.167 4 -70.5 12s-37.5 18.833 -51.5 32.5s-25 29.167 -33 46.5s-13 35.666 -15 54.999l122 24c1.33301 -14 6 -25.833 14 -35.5s20.667 -14.5 38 -14.5s30.333 5.33301 39 16s13 24.667 13 42c0 26 -8.5 44.833 -25.5 56.5s-40.5 17.5 -70.5 17.5h-94v228h38
c20 0 36.667 5 50 15s20 25.667 20 47c0 19.333 -7.33301 35.166 -22 47.499s-34 18.5 -58 18.5c-28 0 -50.667 -8.33301 -68 -25s-26 -41 -26 -73v-496h-126v376h-60v120h60v18c0 32.667 5.83301 61.5 17.5 86.5s27.334 46 47.001 63s42.5 29.667 68.5 38
s53.667 12.5 83 12.5c28.667 0 55.834 -4.16699 81.501 -12.5s48 -20.5 67 -36.5s34 -35.167 45 -57.5s16.5 -47.5 16.5 -75.5v-6c0 -26 -3.83301 -48.833 -11.5 -68.5s-18.334 -36.167 -32.001 -49.5s-29.667 -23.833 -48 -31.5s-37.833 -11.834 -58.5 -12.501v-18z" />
    <glyph glyph-name="agrave" unicode="&#xe0;" 
d="M399 72c-13.333 -31.333 -32 -53.498 -56 -66.498s-52 -19.5 -84 -19.5c-30 0 -58.167 5.66699 -84.5 17s-49.5 28 -69.5 50s-35.833 48.667 -47.5 80s-17.5 67 -17.5 107v16c0 39.333 5.66699 74.666 17 105.999s26.666 58 45.999 80s41.833 38.833 67.5 50.5
s53.167 17.5 82.5 17.5c35.333 0 63.833 -6 85.5 -18s38.834 -30.667 51.501 -56h18v60h126v-346c0 -20 9 -30 27 -30h19v-120h-86c-22.667 0 -41.167 6.66699 -55.5 20s-21.5 30.666 -21.5 51.999h-18zM287 106.002c36.667 0 66 12.167 88 36.5s33 57.5 33 99.5v12
c0 42 -11 75.167 -33 99.5s-51.333 36.5 -88 36.5s-66 -12.167 -88 -36.5s-33 -57.5 -33 -99.5v-12c0 -42 11 -75.167 33 -99.5s51.333 -36.5 88 -36.5zM305 570.002h-102l-84 136h134z" />
    <glyph glyph-name="aacute" unicode="&#xe1;" 
d="M399 72c-13.333 -31.333 -32 -53.498 -56 -66.498s-52 -19.5 -84 -19.5c-30 0 -58.167 5.66699 -84.5 17s-49.5 28 -69.5 50s-35.833 48.667 -47.5 80s-17.5 67 -17.5 107v16c0 39.333 5.66699 74.666 17 105.999s26.666 58 45.999 80s41.833 38.833 67.5 50.5
s53.167 17.5 82.5 17.5c35.333 0 63.833 -6 85.5 -18s38.834 -30.667 51.501 -56h18v60h126v-346c0 -20 9 -30 27 -30h19v-120h-86c-22.667 0 -41.167 6.66699 -55.5 20s-21.5 30.666 -21.5 51.999h-18zM287 106.002c36.667 0 66 12.167 88 36.5s33 57.5 33 99.5v12
c0 42 -11 75.167 -33 99.5s-51.333 36.5 -88 36.5s-66 -12.167 -88 -36.5s-33 -57.5 -33 -99.5v-12c0 -42 11 -75.167 33 -99.5s51.333 -36.5 88 -36.5zM255 706.002h134l-84 -136h-102z" />
    <glyph glyph-name="acircumflex" unicode="&#xe2;" 
d="M399 72c-13.333 -31.333 -32 -53.498 -56 -66.498s-52 -19.5 -84 -19.5c-30 0 -58.167 5.66699 -84.5 17s-49.5 28 -69.5 50s-35.833 48.667 -47.5 80s-17.5 67 -17.5 107v16c0 39.333 5.66699 74.666 17 105.999s26.666 58 45.999 80s41.833 38.833 67.5 50.5
s53.167 17.5 82.5 17.5c35.333 0 63.833 -6 85.5 -18s38.834 -30.667 51.501 -56h18v60h126v-346c0 -20 9 -30 27 -30h19v-120h-86c-22.667 0 -41.167 6.66699 -55.5 20s-21.5 30.666 -21.5 51.999h-18zM287 106.002c36.667 0 66 12.167 88 36.5s33 57.5 33 99.5v12
c0 42 -11 75.167 -33 99.5s-51.333 36.5 -88 36.5s-66 -12.167 -88 -36.5s-33 -57.5 -33 -99.5v-12c0 -42 11 -75.167 33 -99.5s51.333 -36.5 88 -36.5zM303 570.002l-43 88h-12l-43 -88h-121l84 136h172l84 -136h-121z" />
    <glyph glyph-name="atilde" unicode="&#xe3;" 
d="M399 72c-13.333 -31.333 -32 -53.498 -56 -66.498s-52 -19.5 -84 -19.5c-30 0 -58.167 5.66699 -84.5 17s-49.5 28 -69.5 50s-35.833 48.667 -47.5 80s-17.5 67 -17.5 107v16c0 39.333 5.66699 74.666 17 105.999s26.666 58 45.999 80s41.833 38.833 67.5 50.5
s53.167 17.5 82.5 17.5c35.333 0 63.833 -6 85.5 -18s38.834 -30.667 51.501 -56h18v60h126v-346c0 -20 9 -30 27 -30h19v-120h-86c-22.667 0 -41.167 6.66699 -55.5 20s-21.5 30.666 -21.5 51.999h-18zM287 106.002c36.667 0 66 12.167 88 36.5s33 57.5 33 99.5v12
c0 42 -11 75.167 -33 99.5s-51.333 36.5 -88 36.5s-66 -12.167 -88 -36.5s-33 -57.5 -33 -99.5v-12c0 -42 11 -75.167 33 -99.5s51.333 -36.5 88 -36.5zM324 690.002c5.33301 -6 10.666 -11.5 15.999 -16.5s12.666 -7.5 21.999 -7.5s16.833 2.16699 22.5 6.5
s11.167 10.166 16.5 17.499l30 38l77 -61l-56 -72c-12 -15.333 -25 -26.5 -39 -33.5s-29.667 -10.5 -47 -10.5c-13.333 0 -26.166 3 -38.499 9s-24.166 15.667 -35.499 29c-5.33301 6 -10.666 11.5 -15.999 16.5s-12.666 7.5 -21.999 7.5s-16.833 -2.16699 -22.5 -6.5
s-11.167 -10.166 -16.5 -17.499l-30 -38l-77 61l56 72c12.667 16 26 27.333 40 34s29.333 10 46 10c13.333 0 26.166 -3 38.499 -9s24.166 -15.667 35.499 -29z" />
    <glyph glyph-name="adieresis" unicode="&#xe4;" 
d="M399 72c-13.333 -31.333 -32 -53.498 -56 -66.498s-52 -19.5 -84 -19.5c-30 0 -58.167 5.66699 -84.5 17s-49.5 28 -69.5 50s-35.833 48.667 -47.5 80s-17.5 67 -17.5 107v16c0 39.333 5.66699 74.666 17 105.999s26.666 58 45.999 80s41.833 38.833 67.5 50.5
s53.167 17.5 82.5 17.5c35.333 0 63.833 -6 85.5 -18s38.834 -30.667 51.501 -56h18v60h126v-346c0 -20 9 -30 27 -30h19v-120h-86c-22.667 0 -41.167 6.66699 -55.5 20s-21.5 30.666 -21.5 51.999h-18zM287 106.002c36.667 0 66 12.167 88 36.5s33 57.5 33 99.5v12
c0 42 -11 75.167 -33 99.5s-51.333 36.5 -88 36.5s-66 -12.167 -88 -36.5s-33 -57.5 -33 -99.5v-12c0 -42 11 -75.167 33 -99.5s51.333 -36.5 88 -36.5zM264 643.002c0 -13.333 -2.5 -25.833 -7.5 -37.5s-11.833 -21.667 -20.5 -30s-18.834 -15 -30.501 -20
s-23.834 -7.5 -36.501 -7.5c-13.333 0 -25.666 2.5 -36.999 7.5s-21.333 11.667 -30 20s-15.5 18.333 -20.5 30s-7.5 24.167 -7.5 37.5s2.5 25.833 7.5 37.5s11.833 21.667 20.5 30s18.667 15 30 20s23.666 7.5 36.999 7.5c12.667 0 24.834 -2.5 36.501 -7.5
s21.834 -11.667 30.501 -20s15.5 -18.333 20.5 -30s7.5 -24.167 7.5 -37.5zM502 643.002c0 -13.333 -2.5 -25.833 -7.5 -37.5s-11.833 -21.667 -20.5 -30s-18.834 -15 -30.501 -20s-23.834 -7.5 -36.501 -7.5c-13.333 0 -25.666 2.5 -36.999 7.5s-21.333 11.667 -30 20
s-15.5 18.333 -20.5 30s-7.5 24.167 -7.5 37.5s2.5 25.833 7.5 37.5s11.833 21.667 20.5 30s18.667 15 30 20s23.666 7.5 36.999 7.5c12.667 0 24.834 -2.5 36.501 -7.5s21.834 -11.667 30.501 -20s15.5 -18.333 20.5 -30s7.5 -24.167 7.5 -37.5z" />
    <glyph glyph-name="aring" unicode="&#xe5;" 
d="M399 72c-13.333 -31.333 -32 -53.498 -56 -66.498s-52 -19.5 -84 -19.5c-30 0 -58.167 5.66699 -84.5 17s-49.5 28 -69.5 50s-35.833 48.667 -47.5 80s-17.5 67 -17.5 107v16c0 39.333 5.66699 74.666 17 105.999s26.666 58 45.999 80s41.833 38.833 67.5 50.5
s53.167 17.5 82.5 17.5c35.333 0 63.833 -6 85.5 -18s38.834 -30.667 51.501 -56h18v60h126v-346c0 -20 9 -30 27 -30h19v-120h-86c-22.667 0 -41.167 6.66699 -55.5 20s-21.5 30.666 -21.5 51.999h-18zM287 106.002c36.667 0 66 12.167 88 36.5s33 57.5 33 99.5v12
c0 42 -11 75.167 -33 99.5s-51.333 36.5 -88 36.5s-66 -12.167 -88 -36.5s-33 -57.5 -33 -99.5v-12c0 -42 11 -75.167 33 -99.5s51.333 -36.5 88 -36.5zM146 676.002c0 14.667 2.83301 28.667 8.5 42s13.334 24.833 23.001 34.5s21 17.334 34 23.001s27.167 8.5 42.5 8.5
c14.667 0 28.667 -2.83301 42 -8.5s24.833 -13.334 34.5 -23.001s17.334 -21.167 23.001 -34.5s8.5 -27.333 8.5 -42c0 -15.333 -2.83301 -29.5 -8.5 -42.5s-13.334 -24.333 -23.001 -34s-21.167 -17.334 -34.5 -23.001s-27.333 -8.5 -42 -8.5
c-15.333 0 -29.5 2.83301 -42.5 8.5s-24.333 13.334 -34 23.001s-17.334 21 -23.001 34s-8.5 27.167 -8.5 42.5zM224 676.002c0 -8.66699 2.83301 -15.834 8.5 -21.501s12.834 -8.5 21.501 -8.5s15.834 2.83301 21.501 8.5s8.5 12.834 8.5 21.501
s-2.83301 15.834 -8.5 21.501s-12.834 8.5 -21.501 8.5s-15.834 -2.83301 -21.501 -8.5s-8.5 -12.834 -8.5 -21.501z" />
    <glyph glyph-name="ae" unicode="&#xe6;" 
d="M182 147c0 -13.333 4.33301 -23.5 13 -30.5s19.667 -10.5 33 -10.5h12v82h-12c-13.333 0 -24.333 -3.5 -33 -10.5s-13 -17.167 -13 -30.5zM432 308c0 22 -6 39.668 -18 53.001s-28 21.666 -48 24.999v-78h66zM298 510.001c41.333 0 78.168 -6.00098 110.501 -18.001
s59.5 -28.667 81.5 -50s38.833 -46.5 50.5 -75.5s17.5 -60.5 17.5 -94.5v-84h-192v-78c16 0 30.5 3.5 43.5 10.5s22.5 17.5 28.5 31.5l102 -64c-20 -36 -48.667 -62 -86 -78s-84.333 -24 -141 -24h-29c-32.667 0 -62.834 3 -90.501 9s-51.667 15.5 -72 28.5
s-36.333 29.667 -48 50s-17.5 44.5 -17.5 72.5v12c0 23.333 4.66699 44.333 14 63s22 34.5 38 47.5s34.5 22.833 55.5 29.5s43.167 10 66.5 10h10v78c-13.333 0 -26.5 -4.66699 -39.5 -14s-23.167 -20.666 -30.5 -33.999l-82 86c22 28 50 49.333 84 64s76 22 126 22z" />
    <glyph glyph-name="ccedilla" unicode="&#xe7;" 
d="M562 182c-10.667 -54.667 -34.5 -99.332 -71.5 -133.999s-86.833 -54.667 -149.5 -60l-7 -34h12c3.33301 6 8.66602 11.167 15.999 15.5s17.333 6.5 30 6.5c28 0 48.833 -8.66699 62.5 -26s20.5 -38 20.5 -62c0 -31.333 -10.5 -55.833 -31.5 -73.5
s-47.167 -26.5 -78.5 -26.5c-19.333 0 -35.333 1.83301 -48 5.5s-24.667 8.5 -36 14.5l26 68c15.333 -9.33301 32 -14 50 -14c10 0 18.167 2.33301 24.5 7s9.5 11 9.5 19c0 6 -1.66699 11.167 -5 15.5s-8.33301 6.5 -15 6.5c-11.333 0 -18 -4.66699 -20 -14h-97v12l17 81
c-31.333 4 -60.5 12.333 -87.5 25s-50.167 29.5 -69.5 50.5s-34.5 46.167 -45.5 75.5s-16.5 62 -16.5 98v12c0 40 6.66699 76 20 108s31.833 59.333 55.5 82s51.334 40 83.001 52s65.5 18 101.5 18c69.333 0 125.5 -18 168.5 -54s70.167 -83.333 81.5 -142l-124 -32
c-4 29.333 -16.667 54.666 -38 75.999s-51.333 32 -90 32c-18 0 -35 -3.33301 -51 -10s-30 -16.167 -42 -28.5s-21.5 -27.333 -28.5 -45s-10.5 -37.5 -10.5 -59.5v-6c0 -22 3.5 -41.5 10.5 -58.5s16.5 -31.167 28.5 -42.5s26 -19.833 42 -25.5s33 -8.5 51 -8.5
c38.667 0 68.167 9.66699 88.5 29s33.5 45.333 39.5 78z" />
    <glyph glyph-name="egrave" unicode="&#xe8;" 
d="M189 207c0.666992 -14.667 4.16504 -28.168 10.498 -40.501s15 -23 26 -32s23.667 -16 38 -21s29.5 -7.5 45.5 -7.5c31.333 0 55.333 5.5 72 16.5s28.667 24.167 36 39.5l108 -60c-6 -12.667 -14.333 -25.834 -25 -39.501s-24.5 -26.167 -41.5 -37.5
s-37.667 -20.666 -62 -27.999s-52.833 -11 -85.5 -11c-37.333 0 -71.333 6 -102 18s-57.167 29.333 -79.5 52s-39.666 50.334 -51.999 83.001s-18.5 69.667 -18.5 111v6c0 38 6.5 72.667 19.5 104s30.833 58 53.5 80s49.167 39.167 79.5 51.5s62.833 18.5 97.5 18.5
c42.667 0 79.334 -7.5 110.001 -22.5s56 -34 76 -57s34.667 -48.333 44 -76s14 -54.5 14 -80.5v-67h-364zM307.998 395.999c-32 0 -58 -8.16699 -78 -24.5s-33 -35.166 -39 -56.499h234c-4 23.333 -16.5 42.666 -37.5 57.999s-47.5 23 -79.5 23zM361.998 569.999h-102
l-84 136h134z" />
    <glyph glyph-name="eacute" unicode="&#xe9;" 
d="M189 207c0.666992 -14.667 4.16504 -28.168 10.498 -40.501s15 -23 26 -32s23.667 -16 38 -21s29.5 -7.5 45.5 -7.5c31.333 0 55.333 5.5 72 16.5s28.667 24.167 36 39.5l108 -60c-6 -12.667 -14.333 -25.834 -25 -39.501s-24.5 -26.167 -41.5 -37.5
s-37.667 -20.666 -62 -27.999s-52.833 -11 -85.5 -11c-37.333 0 -71.333 6 -102 18s-57.167 29.333 -79.5 52s-39.666 50.334 -51.999 83.001s-18.5 69.667 -18.5 111v6c0 38 6.5 72.667 19.5 104s30.833 58 53.5 80s49.167 39.167 79.5 51.5s62.833 18.5 97.5 18.5
c42.667 0 79.334 -7.5 110.001 -22.5s56 -34 76 -57s34.667 -48.333 44 -76s14 -54.5 14 -80.5v-67h-364zM307.998 395.999c-32 0 -58 -8.16699 -78 -24.5s-33 -35.166 -39 -56.499h234c-4 23.333 -16.5 42.666 -37.5 57.999s-47.5 23 -79.5 23zM310.998 705.999h134
l-84 -136h-102z" />
    <glyph glyph-name="ecircumflex" unicode="&#xea;" 
d="M189 207c0.666992 -14.667 4.16504 -28.168 10.498 -40.501s15 -23 26 -32s23.667 -16 38 -21s29.5 -7.5 45.5 -7.5c31.333 0 55.333 5.5 72 16.5s28.667 24.167 36 39.5l108 -60c-6 -12.667 -14.333 -25.834 -25 -39.501s-24.5 -26.167 -41.5 -37.5
s-37.667 -20.666 -62 -27.999s-52.833 -11 -85.5 -11c-37.333 0 -71.333 6 -102 18s-57.167 29.333 -79.5 52s-39.666 50.334 -51.999 83.001s-18.5 69.667 -18.5 111v6c0 38 6.5 72.667 19.5 104s30.833 58 53.5 80s49.167 39.167 79.5 51.5s62.833 18.5 97.5 18.5
c42.667 0 79.334 -7.5 110.001 -22.5s56 -34 76 -57s34.667 -48.333 44 -76s14 -54.5 14 -80.5v-67h-364zM307.998 395.999c-32 0 -58 -8.16699 -78 -24.5s-33 -35.166 -39 -56.499h234c-4 23.333 -16.5 42.666 -37.5 57.999s-47.5 23 -79.5 23zM358.998 569.999l-43 88h-12
l-43 -88h-121l84 136h172l84 -136h-121z" />
    <glyph glyph-name="edieresis" unicode="&#xeb;" 
d="M189 207c0.666992 -14.667 4.16504 -28.168 10.498 -40.501s15 -23 26 -32s23.667 -16 38 -21s29.5 -7.5 45.5 -7.5c31.333 0 55.333 5.5 72 16.5s28.667 24.167 36 39.5l108 -60c-6 -12.667 -14.333 -25.834 -25 -39.501s-24.5 -26.167 -41.5 -37.5
s-37.667 -20.666 -62 -27.999s-52.833 -11 -85.5 -11c-37.333 0 -71.333 6 -102 18s-57.167 29.333 -79.5 52s-39.666 50.334 -51.999 83.001s-18.5 69.667 -18.5 111v6c0 38 6.5 72.667 19.5 104s30.833 58 53.5 80s49.167 39.167 79.5 51.5s62.833 18.5 97.5 18.5
c42.667 0 79.334 -7.5 110.001 -22.5s56 -34 76 -57s34.667 -48.333 44 -76s14 -54.5 14 -80.5v-67h-364zM307.998 395.999c-32 0 -58 -8.16699 -78 -24.5s-33 -35.166 -39 -56.499h234c-4 23.333 -16.5 42.666 -37.5 57.999s-47.5 23 -79.5 23zM285.998 642.999
c0 -13.333 -2.5 -25.833 -7.5 -37.5s-11.833 -21.667 -20.5 -30s-18.834 -15 -30.501 -20s-23.834 -7.5 -36.501 -7.5c-13.333 0 -25.666 2.5 -36.999 7.5s-21.333 11.667 -30 20s-15.5 18.333 -20.5 30s-7.5 24.167 -7.5 37.5s2.5 25.833 7.5 37.5s11.833 21.667 20.5 30
s18.667 15 30 20s23.666 7.5 36.999 7.5c12.667 0 24.834 -2.5 36.501 -7.5s21.834 -11.667 30.501 -20s15.5 -18.333 20.5 -30s7.5 -24.167 7.5 -37.5zM523.998 642.999c0 -13.333 -2.5 -25.833 -7.5 -37.5s-11.833 -21.667 -20.5 -30s-18.834 -15 -30.501 -20
s-23.834 -7.5 -36.501 -7.5c-13.333 0 -25.666 2.5 -36.999 7.5s-21.333 11.667 -30 20s-15.5 18.333 -20.5 30s-7.5 24.167 -7.5 37.5s2.5 25.833 7.5 37.5s11.833 21.667 20.5 30s18.667 15 30 20s23.666 7.5 36.999 7.5c12.667 0 24.834 -2.5 36.501 -7.5
s21.834 -11.667 30.501 -20s15.5 -18.333 20.5 -30s7.5 -24.167 7.5 -37.5z" />
    <glyph glyph-name="igrave" unicode="&#xec;" 
d="M87 120h168v256h-156v120h282v-376h144v-120h-438v120zM367 570h-102l-84 136h134z" />
    <glyph glyph-name="iacute" unicode="&#xed;" 
d="M87 120h168v256h-156v120h282v-376h144v-120h-438v120zM319 706h134l-84 -136h-102z" />
    <glyph glyph-name="icircumflex" unicode="&#xee;" 
d="M87 120h168v256h-156v120h282v-376h144v-120h-438v120zM367 570l-43 88h-12l-43 -88h-121l84 136h172l84 -136h-121z" />
    <glyph glyph-name="idieresis" unicode="&#xef;" 
d="M87 120h168v256h-156v120h282v-376h144v-120h-438v120zM297 643c0 -13.333 -2.5 -25.833 -7.5 -37.5s-11.833 -21.667 -20.5 -30s-18.834 -15 -30.501 -20s-23.834 -7.5 -36.501 -7.5c-13.333 0 -25.666 2.5 -36.999 7.5s-21.333 11.667 -30 20s-15.5 18.333 -20.5 30
s-7.5 24.167 -7.5 37.5s2.5 25.833 7.5 37.5s11.833 21.667 20.5 30s18.667 15 30 20s23.666 7.5 36.999 7.5c12.667 0 24.834 -2.5 36.501 -7.5s21.834 -11.667 30.501 -20s15.5 -18.333 20.5 -30s7.5 -24.167 7.5 -37.5zM535 643c0 -13.333 -2.5 -25.833 -7.5 -37.5
s-11.833 -21.667 -20.5 -30s-18.834 -15 -30.501 -20s-23.834 -7.5 -36.501 -7.5c-13.333 0 -25.666 2.5 -36.999 7.5s-21.333 11.667 -30 20s-15.5 18.333 -20.5 30s-7.5 24.167 -7.5 37.5s2.5 25.833 7.5 37.5s11.833 21.667 20.5 30s18.667 15 30 20
s23.666 7.5 36.999 7.5c12.667 0 24.834 -2.5 36.501 -7.5s21.834 -11.667 30.501 -20s15.5 -18.333 20.5 -30s7.5 -24.167 7.5 -37.5z" />
    <glyph glyph-name="eth" unicode="&#xf0;" 
d="M358 723l-12.998 -42.002c38.667 -18.667 72 -41.5 100 -68.5s50.833 -57.167 68.5 -90.5s30.667 -69.5 39 -108.5s12.5 -79.833 12.5 -122.5c0 -50.667 -6.66699 -95 -20 -133s-31.666 -69.833 -54.999 -95.5s-51.166 -44.834 -83.499 -57.501s-67.5 -19 -105.5 -19
c-34.667 0 -67.334 5.83301 -98.001 17.5s-57.5 28.5 -80.5 50.5s-41.333 48.833 -55 80.5s-20.5 67.5 -20.5 107.5v12c0 40.667 6 76.834 18 108.501s28.167 58.5 48.5 80.5s43.666 38.667 69.999 50s54.166 17 83.499 17c31.333 0 56.5 -3.66699 75.5 -11
s35.167 -19 48.5 -35h18c-9.33301 23.333 -22.333 43.666 -39 60.999s-36.667 32.333 -60 45l-12 -38l-98 29l13 42c-10.667 2.66699 -21.5 4.83398 -32.5 6.50098s-22.167 3.16699 -33.5 4.5l20 114c14 -1.33301 27.667 -3.16602 41 -5.49902
s26.666 -5.16602 39.999 -8.49902l12 38zM302.002 105.998c38.667 0 70 12.167 94 36.5s36 61.5 36 111.5c0 42 -12 75.167 -36 99.5s-55.333 36.5 -94 36.5s-69.834 -12.667 -93.501 -38s-35.5 -59 -35.5 -101v-6c0 -44 11.833 -78.167 35.5 -102.5
s54.834 -36.5 93.501 -36.5z" />
    <glyph glyph-name="ntilde" unicode="&#xf1;" 
d="M204 0l-126 0.000976562v496h126v-74h18c11.333 28 29.666 49.667 54.999 65s55 23 89 23c24 0 46.5 -3.83301 67.5 -11.5s39.5 -19.5 55.5 -35.5s28.5 -36.333 37.5 -61s13.5 -54 13.5 -88v-314h-126v282c0 35.333 -8.5 63.166 -25.5 83.499s-41.5 30.5 -73.5 30.5
c-37.333 0 -65.166 -12.5 -83.499 -37.5s-27.5 -58.5 -27.5 -100.5v-258zM324 690.001c5.33301 -6 10.666 -11.5 15.999 -16.5s12.666 -7.5 21.999 -7.5s16.833 2.16699 22.5 6.5s11.167 10.166 16.5 17.499l30 38l77 -61l-56 -72c-12 -15.333 -25 -26.5 -39 -33.5
s-29.667 -10.5 -47 -10.5c-13.333 0 -26.166 3 -38.499 9s-24.166 15.667 -35.499 29c-5.33301 6 -10.666 11.5 -15.999 16.5s-12.666 7.5 -21.999 7.5s-16.833 -2.16699 -22.5 -6.5s-11.167 -10.166 -16.5 -17.499l-30 -38l-77 61l56 72c12.667 16 26 27.333 40 34
s29.333 10 46 10c13.333 0 26.166 -3 38.499 -9s24.166 -15.667 35.499 -29z" />
    <glyph glyph-name="ograve" unicode="&#xf2;" 
d="M564 242c0 -41.333 -7 -77.833 -21 -109.5s-33 -58.334 -57 -80.001s-51.5 -38.167 -82.5 -49.5s-63.5 -17 -97.5 -17s-66.5 5.66699 -97.5 17s-58.5 27.833 -82.5 49.5s-43 48.334 -57 80.001s-21 68.167 -21 109.5v12c0 40.667 7 76.834 21 108.501s33 58.5 57 80.5
s51.5 38.667 82.5 50s63.5 17 97.5 17s66.5 -5.66699 97.5 -17s58.5 -28 82.5 -50s43 -48.833 57 -80.5s21 -67.834 21 -108.501v-12zM306 106c18 0 35 3 51 9s30 14.667 42 26s21.5 25.166 28.5 41.499s10.5 34.833 10.5 55.5v20c0 20.667 -3.5 39.167 -10.5 55.5
s-16.5 30.166 -28.5 41.499s-26 20 -42 26s-33 9 -51 9s-35 -3 -51 -9s-30 -14.667 -42 -26s-21.5 -25.166 -28.5 -41.499s-10.5 -34.833 -10.5 -55.5v-20c0 -20.667 3.5 -39.167 10.5 -55.5s16.5 -30.166 28.5 -41.499s26 -20 42 -26s33 -9 51 -9zM358 570h-102l-84 136
h134z" />
    <glyph glyph-name="oacute" unicode="&#xf3;" 
d="M564 242c0 -41.333 -7 -77.833 -21 -109.5s-33 -58.334 -57 -80.001s-51.5 -38.167 -82.5 -49.5s-63.5 -17 -97.5 -17s-66.5 5.66699 -97.5 17s-58.5 27.833 -82.5 49.5s-43 48.334 -57 80.001s-21 68.167 -21 109.5v12c0 40.667 7 76.834 21 108.501s33 58.5 57 80.5
s51.5 38.667 82.5 50s63.5 17 97.5 17s66.5 -5.66699 97.5 -17s58.5 -28 82.5 -50s43 -48.833 57 -80.5s21 -67.834 21 -108.501v-12zM306 106c18 0 35 3 51 9s30 14.667 42 26s21.5 25.166 28.5 41.499s10.5 34.833 10.5 55.5v20c0 20.667 -3.5 39.167 -10.5 55.5
s-16.5 30.166 -28.5 41.499s-26 20 -42 26s-33 9 -51 9s-35 -3 -51 -9s-30 -14.667 -42 -26s-21.5 -25.166 -28.5 -41.499s-10.5 -34.833 -10.5 -55.5v-20c0 -20.667 3.5 -39.167 10.5 -55.5s16.5 -30.166 28.5 -41.499s26 -20 42 -26s33 -9 51 -9zM309 706h134l-84 -136
h-102z" />
    <glyph glyph-name="ocircumflex" unicode="&#xf4;" 
d="M564 242c0 -41.333 -7 -77.833 -21 -109.5s-33 -58.334 -57 -80.001s-51.5 -38.167 -82.5 -49.5s-63.5 -17 -97.5 -17s-66.5 5.66699 -97.5 17s-58.5 27.833 -82.5 49.5s-43 48.334 -57 80.001s-21 68.167 -21 109.5v12c0 40.667 7 76.834 21 108.501s33 58.5 57 80.5
s51.5 38.667 82.5 50s63.5 17 97.5 17s66.5 -5.66699 97.5 -17s58.5 -28 82.5 -50s43 -48.833 57 -80.5s21 -67.834 21 -108.501v-12zM306 106c18 0 35 3 51 9s30 14.667 42 26s21.5 25.166 28.5 41.499s10.5 34.833 10.5 55.5v20c0 20.667 -3.5 39.167 -10.5 55.5
s-16.5 30.166 -28.5 41.499s-26 20 -42 26s-33 9 -51 9s-35 -3 -51 -9s-30 -14.667 -42 -26s-21.5 -25.166 -28.5 -41.499s-10.5 -34.833 -10.5 -55.5v-20c0 -20.667 3.5 -39.167 10.5 -55.5s16.5 -30.166 28.5 -41.499s26 -20 42 -26s33 -9 51 -9zM355 570l-43 88h-12
l-43 -88h-121l84 136h172l84 -136h-121z" />
    <glyph glyph-name="otilde" unicode="&#xf5;" 
d="M564 242c0 -41.333 -7 -77.833 -21 -109.5s-33 -58.334 -57 -80.001s-51.5 -38.167 -82.5 -49.5s-63.5 -17 -97.5 -17s-66.5 5.66699 -97.5 17s-58.5 27.833 -82.5 49.5s-43 48.334 -57 80.001s-21 68.167 -21 109.5v12c0 40.667 7 76.834 21 108.501s33 58.5 57 80.5
s51.5 38.667 82.5 50s63.5 17 97.5 17s66.5 -5.66699 97.5 -17s58.5 -28 82.5 -50s43 -48.833 57 -80.5s21 -67.834 21 -108.501v-12zM306 106c18 0 35 3 51 9s30 14.667 42 26s21.5 25.166 28.5 41.499s10.5 34.833 10.5 55.5v20c0 20.667 -3.5 39.167 -10.5 55.5
s-16.5 30.166 -28.5 41.499s-26 20 -42 26s-33 9 -51 9s-35 -3 -51 -9s-30 -14.667 -42 -26s-21.5 -25.166 -28.5 -41.499s-10.5 -34.833 -10.5 -55.5v-20c0 -20.667 3.5 -39.167 10.5 -55.5s16.5 -30.166 28.5 -41.499s26 -20 42 -26s33 -9 51 -9zM322 690
c5.33301 -6 10.666 -11.5 15.999 -16.5s12.666 -7.5 21.999 -7.5s16.833 2.16699 22.5 6.5s11.167 10.166 16.5 17.499l30 38l77 -61l-56 -72c-12 -15.333 -25 -26.5 -39 -33.5s-29.667 -10.5 -47 -10.5c-13.333 0 -26.166 3 -38.499 9s-24.166 15.667 -35.499 29
c-5.33301 6 -10.666 11.5 -15.999 16.5s-12.666 7.5 -21.999 7.5s-16.833 -2.16699 -22.5 -6.5s-11.167 -10.166 -16.5 -17.499l-30 -38l-77 61l56 72c12.667 16 26 27.333 40 34s29.333 10 46 10c13.333 0 26.166 -3 38.499 -9s24.166 -15.667 35.499 -29z" />
    <glyph glyph-name="odieresis" unicode="&#xf6;" 
d="M564 242c0 -41.333 -7 -77.833 -21 -109.5s-33 -58.334 -57 -80.001s-51.5 -38.167 -82.5 -49.5s-63.5 -17 -97.5 -17s-66.5 5.66699 -97.5 17s-58.5 27.833 -82.5 49.5s-43 48.334 -57 80.001s-21 68.167 -21 109.5v12c0 40.667 7 76.834 21 108.501s33 58.5 57 80.5
s51.5 38.667 82.5 50s63.5 17 97.5 17s66.5 -5.66699 97.5 -17s58.5 -28 82.5 -50s43 -48.833 57 -80.5s21 -67.834 21 -108.501v-12zM306 106c18 0 35 3 51 9s30 14.667 42 26s21.5 25.166 28.5 41.499s10.5 34.833 10.5 55.5v20c0 20.667 -3.5 39.167 -10.5 55.5
s-16.5 30.166 -28.5 41.499s-26 20 -42 26s-33 9 -51 9s-35 -3 -51 -9s-30 -14.667 -42 -26s-21.5 -25.166 -28.5 -41.499s-10.5 -34.833 -10.5 -55.5v-20c0 -20.667 3.5 -39.167 10.5 -55.5s16.5 -30.166 28.5 -41.499s26 -20 42 -26s33 -9 51 -9zM282 643
c0 -13.333 -2.5 -25.833 -7.5 -37.5s-11.833 -21.667 -20.5 -30s-18.834 -15 -30.501 -20s-23.834 -7.5 -36.501 -7.5c-13.333 0 -25.666 2.5 -36.999 7.5s-21.333 11.667 -30 20s-15.5 18.333 -20.5 30s-7.5 24.167 -7.5 37.5s2.5 25.833 7.5 37.5s11.833 21.667 20.5 30
s18.667 15 30 20s23.666 7.5 36.999 7.5c12.667 0 24.834 -2.5 36.501 -7.5s21.834 -11.667 30.501 -20s15.5 -18.333 20.5 -30s7.5 -24.167 7.5 -37.5zM520 643c0 -13.333 -2.5 -25.833 -7.5 -37.5s-11.833 -21.667 -20.5 -30s-18.834 -15 -30.501 -20
s-23.834 -7.5 -36.501 -7.5c-13.333 0 -25.666 2.5 -36.999 7.5s-21.333 11.667 -30 20s-15.5 18.333 -20.5 30s-7.5 24.167 -7.5 37.5s2.5 25.833 7.5 37.5s11.833 21.667 20.5 30s18.667 15 30 20s23.666 7.5 36.999 7.5c12.667 0 24.834 -2.5 36.501 -7.5
s21.834 -11.667 30.501 -20s15.5 -18.333 20.5 -30s7.5 -24.167 7.5 -37.5z" />
    <glyph glyph-name="divide" unicode="&#xf7;" 
d="M97 407h418v-114h-418v114zM392 159c0 -12 -2.33301 -23.167 -7 -33.5s-10.834 -19.5 -18.501 -27.5s-16.667 -14.167 -27 -18.5s-21.5 -6.5 -33.5 -6.5s-23.167 2.16699 -33.5 6.5s-19.333 10.5 -27 18.5s-13.834 17.167 -18.501 27.5s-7 21.5 -7 33.5
s2.33301 23.167 7 33.5s10.834 19.5 18.501 27.5s16.667 14.167 27 18.5s21.5 6.5 33.5 6.5s23.167 -2.16699 33.5 -6.5s19.333 -10.5 27 -18.5s13.834 -17.167 18.501 -27.5s7 -21.5 7 -33.5zM392 541c0 -12 -2.33301 -23.167 -7 -33.5s-10.834 -19.5 -18.501 -27.5
s-16.667 -14.167 -27 -18.5s-21.5 -6.5 -33.5 -6.5s-23.167 2.16699 -33.5 6.5s-19.333 10.5 -27 18.5s-13.834 17.167 -18.501 27.5s-7 21.5 -7 33.5s2.33301 23.167 7 33.5s10.834 19.5 18.501 27.5s16.667 14.167 27 18.5s21.5 6.5 33.5 6.5s23.167 -2.16699 33.5 -6.5
s19.333 -10.5 27 -18.5s13.834 -17.167 18.501 -27.5s7 -21.5 7 -33.5z" />
    <glyph glyph-name="oslash" unicode="&#xf8;" 
d="M564 242c0 -41.333 -7 -77.832 -21 -109.499s-33 -58.334 -57 -80.001s-51.5 -38.167 -82.5 -49.5s-63.5 -17 -97.5 -17c-4 0 -8.16699 0.166992 -12.5 0.5s-8.5 0.5 -12.5 0.5l-19 -60l-110 34l19 59c-36 20 -65.5 48.667 -88.5 86s-34.5 82.666 -34.5 135.999v12
c0 40.667 7 76.834 21 108.501s33 58.5 57 80.5s51.5 38.667 82.5 50s63.5 17 97.5 17h13.5c4.33301 0 8.5 -0.333008 12.5 -1l19 56l109 -34l-19 -56c36 -20.667 65.5 -49.667 88.5 -87s34.5 -82 34.5 -134v-12zM174 238.001c0 -20.667 3.5 -39 10.5 -55
s16.167 -29.667 27.5 -41l81 247c-34 -2.66699 -62.333 -15.5 -85 -38.5s-34 -53.833 -34 -92.5v-20zM438 258.001c0 38.667 -11.999 69.999 -35.999 93.999l-81 -245c33.333 3.33301 61.166 16.333 83.499 39s33.5 53.334 33.5 92.001v20z" />
    <glyph glyph-name="ugrave" unicode="&#xf9;" 
d="M414 496h126v-496h-126v72h-18c-22 -57.333 -69.333 -86 -142 -86c-24.667 0 -47.667 4 -69 12s-40 20.333 -56 37s-28.5 37.5 -37.5 62.5s-13.5 54.5 -13.5 88.5v310h126v-284c0 -35.333 8.33301 -62.833 25 -82.5s41.667 -29.5 75 -29.5c38 0 65.833 12.167 83.5 36.5
s26.5 57.5 26.5 99.5v260zM355 570h-102l-84 136h134z" />
    <glyph glyph-name="uacute" unicode="&#xfa;" 
d="M414 496h126v-496h-126v72h-18c-22 -57.333 -69.333 -86 -142 -86c-24.667 0 -47.667 4 -69 12s-40 20.333 -56 37s-28.5 37.5 -37.5 62.5s-13.5 54.5 -13.5 88.5v310h126v-284c0 -35.333 8.33301 -62.833 25 -82.5s41.667 -29.5 75 -29.5c38 0 65.833 12.167 83.5 36.5
s26.5 57.5 26.5 99.5v260zM312 706h134l-84 -136h-102z" />
    <glyph glyph-name="ucircumflex" unicode="&#xfb;" 
d="M414 496h126v-496h-126v72h-18c-22 -57.333 -69.333 -86 -142 -86c-24.667 0 -47.667 4 -69 12s-40 20.333 -56 37s-28.5 37.5 -37.5 62.5s-13.5 54.5 -13.5 88.5v310h126v-284c0 -35.333 8.33301 -62.833 25 -82.5s41.667 -29.5 75 -29.5c38 0 65.833 12.167 83.5 36.5
s26.5 57.5 26.5 99.5v260zM354 570l-43 88h-12l-43 -88h-121l84 136h172l84 -136h-121z" />
    <glyph glyph-name="udieresis" unicode="&#xfc;" 
d="M414 496h126v-496h-126v72h-18c-22 -57.333 -69.333 -86 -142 -86c-24.667 0 -47.667 4 -69 12s-40 20.333 -56 37s-28.5 37.5 -37.5 62.5s-13.5 54.5 -13.5 88.5v310h126v-284c0 -35.333 8.33301 -62.833 25 -82.5s41.667 -29.5 75 -29.5c38 0 65.833 12.167 83.5 36.5
s26.5 57.5 26.5 99.5v260zM285 643c0 -13.333 -2.5 -25.833 -7.5 -37.5s-11.833 -21.667 -20.5 -30s-18.834 -15 -30.501 -20s-23.834 -7.5 -36.501 -7.5c-13.333 0 -25.666 2.5 -36.999 7.5s-21.333 11.667 -30 20s-15.5 18.333 -20.5 30s-7.5 24.167 -7.5 37.5
s2.5 25.833 7.5 37.5s11.833 21.667 20.5 30s18.667 15 30 20s23.666 7.5 36.999 7.5c12.667 0 24.834 -2.5 36.501 -7.5s21.834 -11.667 30.501 -20s15.5 -18.333 20.5 -30s7.5 -24.167 7.5 -37.5zM523 643c0 -13.333 -2.5 -25.833 -7.5 -37.5s-11.833 -21.667 -20.5 -30
s-18.834 -15 -30.501 -20s-23.834 -7.5 -36.501 -7.5c-13.333 0 -25.666 2.5 -36.999 7.5s-21.333 11.667 -30 20s-15.5 18.333 -20.5 30s-7.5 24.167 -7.5 37.5s2.5 25.833 7.5 37.5s11.833 21.667 20.5 30s18.667 15 30 20s23.666 7.5 36.999 7.5
c12.667 0 24.834 -2.5 36.501 -7.5s21.834 -11.667 30.501 -20s15.5 -18.333 20.5 -30s7.5 -24.167 7.5 -37.5z" />
    <glyph glyph-name="yacute" unicode="&#xfd;" 
d="M414 496l126 0.000976562v-618c0 -22.667 -7.16699 -41.334 -21.5 -56.001s-32.833 -22 -55.5 -22h-295v120h219c18 0 27 10 27 30v122h-18c-22 -57.333 -69.333 -86 -142 -86c-24.667 0 -47.667 4 -69 12s-40 20.333 -56 37s-28.5 37.5 -37.5 62.5
s-13.5 54.5 -13.5 88.5v310h126v-284c0 -35.333 8.33301 -62.833 25 -82.5s41.667 -29.5 75 -29.5c38 0 65.833 12.167 83.5 36.5s26.5 57.5 26.5 99.5v260zM312 706.001h134l-84 -136h-102z" />
    <glyph glyph-name="thorn" unicode="&#xfe;" 
d="M306 106c39.333 0 71.166 12.167 95.499 36.5s36.5 57.5 36.5 99.5v12c0 42 -12.167 75.167 -36.5 99.5s-56.166 36.5 -95.499 36.5s-71.166 -12.5 -95.499 -37.5s-36.5 -57.833 -36.5 -98.5v-12c0 -40.667 12.167 -73.5 36.5 -98.5s56.166 -37.5 95.499 -37.5zM174 -212
l-126 0.000976562v912h126v-276h18c13.333 27.333 32.666 48.5 57.999 63.5s57.666 22.5 96.999 22.5c29.333 0 57.166 -5.66699 83.499 -17s49.333 -27.833 69 -49.5s35.334 -48.167 47.001 -79.5s17.5 -67 17.5 -107v-18c0 -40.667 -5.66699 -76.667 -17 -108
s-26.666 -57.833 -45.999 -79.5s-42.166 -38 -68.499 -49s-54.833 -16.5 -85.5 -16.5c-22.667 0 -42.334 2.33301 -59.001 7s-31.167 11 -43.5 19s-22.666 17.167 -30.999 27.5s-15.5 21.166 -21.5 32.499h-18v-284z" />
    <glyph glyph-name="ydieresis" unicode="&#xff;" 
d="M414 496l126 0.000976562v-618c0 -22.667 -7.16699 -41.334 -21.5 -56.001s-32.833 -22 -55.5 -22h-295v120h219c18 0 27 10 27 30v122h-18c-22 -57.333 -69.333 -86 -142 -86c-24.667 0 -47.667 4 -69 12s-40 20.333 -56 37s-28.5 37.5 -37.5 62.5
s-13.5 54.5 -13.5 88.5v310h126v-284c0 -35.333 8.33301 -62.833 25 -82.5s41.667 -29.5 75 -29.5c38 0 65.833 12.167 83.5 36.5s26.5 57.5 26.5 99.5v260zM285 643.001c0 -13.333 -2.5 -25.833 -7.5 -37.5s-11.833 -21.667 -20.5 -30s-18.834 -15 -30.501 -20
s-23.834 -7.5 -36.501 -7.5c-13.333 0 -25.666 2.5 -36.999 7.5s-21.333 11.667 -30 20s-15.5 18.333 -20.5 30s-7.5 24.167 -7.5 37.5s2.5 25.833 7.5 37.5s11.833 21.667 20.5 30s18.667 15 30 20s23.666 7.5 36.999 7.5c12.667 0 24.834 -2.5 36.501 -7.5
s21.834 -11.667 30.501 -20s15.5 -18.333 20.5 -30s7.5 -24.167 7.5 -37.5zM523 643.001c0 -13.333 -2.5 -25.833 -7.5 -37.5s-11.833 -21.667 -20.5 -30s-18.834 -15 -30.501 -20s-23.834 -7.5 -36.501 -7.5c-13.333 0 -25.666 2.5 -36.999 7.5s-21.333 11.667 -30 20
s-15.5 18.333 -20.5 30s-7.5 24.167 -7.5 37.5s2.5 25.833 7.5 37.5s11.833 21.667 20.5 30s18.667 15 30 20s23.666 7.5 36.999 7.5c12.667 0 24.834 -2.5 36.501 -7.5s21.834 -11.667 30.501 -20s15.5 -18.333 20.5 -30s7.5 -24.167 7.5 -37.5z" />
    <glyph glyph-name="Amacron" unicode="&#x100;" 
d="M425 150h-238l-34 -150h-138l167 700h248l167 -700h-138zM215 276h181l-81 358h-18zM453 774h-294v102h294v-102z" />
    <glyph glyph-name="amacron" unicode="&#x101;" 
d="M399 72c-13.333 -31.333 -32 -53.498 -56 -66.498s-52 -19.5 -84 -19.5c-30 0 -58.167 5.66699 -84.5 17s-49.5 28 -69.5 50s-35.833 48.667 -47.5 80s-17.5 67 -17.5 107v16c0 39.333 5.66699 74.666 17 105.999s26.666 58 45.999 80s41.833 38.833 67.5 50.5
s53.167 17.5 82.5 17.5c35.333 0 63.833 -6 85.5 -18s38.834 -30.667 51.501 -56h18v60h126v-346c0 -20 9 -30 27 -30h19v-120h-86c-22.667 0 -41.167 6.66699 -55.5 20s-21.5 30.666 -21.5 51.999h-18zM287 106.002c36.667 0 66 12.167 88 36.5s33 57.5 33 99.5v12
c0 42 -11 75.167 -33 99.5s-51.333 36.5 -88 36.5s-66 -12.167 -88 -36.5s-33 -57.5 -33 -99.5v-12c0 -42 11 -75.167 33 -99.5s51.333 -36.5 88 -36.5zM409 570.002h-294v102h294v-102z" />
    <glyph glyph-name="Abreve" unicode="&#x102;" 
d="M425 150h-238l-34 -150h-138l167 700h248l167 -700h-138zM215 276h181l-81 358h-18zM438 910l-0.00195312 -14c0 -38 -12.167 -67.833 -36.5 -89.5s-56.166 -32.5 -95.499 -32.5s-71.166 10.833 -95.499 32.5s-36.5 51.5 -36.5 89.5v14h90v-6c0 -12 3.5 -22 10.5 -30
s17.5 -12 31.5 -12s24.5 4 31.5 12s10.5 18 10.5 30v6h90z" />
    <glyph glyph-name="abreve" unicode="&#x103;" 
d="M399 72c-13.333 -31.333 -32 -53.498 -56 -66.498s-52 -19.5 -84 -19.5c-30 0 -58.167 5.66699 -84.5 17s-49.5 28 -69.5 50s-35.833 48.667 -47.5 80s-17.5 67 -17.5 107v16c0 39.333 5.66699 74.666 17 105.999s26.666 58 45.999 80s41.833 38.833 67.5 50.5
s53.167 17.5 82.5 17.5c35.333 0 63.833 -6 85.5 -18s38.834 -30.667 51.501 -56h18v60h126v-346c0 -20 9 -30 27 -30h19v-120h-86c-22.667 0 -41.167 6.66699 -55.5 20s-21.5 30.666 -21.5 51.999h-18zM287 106.002c36.667 0 66 12.167 88 36.5s33 57.5 33 99.5v12
c0 42 -11 75.167 -33 99.5s-51.333 36.5 -88 36.5s-66 -12.167 -88 -36.5s-33 -57.5 -33 -99.5v-12c0 -42 11 -75.167 33 -99.5s51.333 -36.5 88 -36.5zM386 700.002l-0.00195312 -14c0 -38 -12.167 -67.833 -36.5 -89.5s-56.166 -32.5 -95.499 -32.5
s-71.166 10.833 -95.499 32.5s-36.5 51.5 -36.5 89.5v14h90v-6c0 -12 3.5 -22 10.5 -30s17.5 -12 31.5 -12s24.5 4 31.5 12s10.5 18 10.5 30v6h90z" />
    <glyph glyph-name="Aogonek" unicode="&#x104;" 
d="M425 150l-238 -0.000976562l-34 -150h-138l167 700h248l167 -700h-52l-13 -56c-0.666992 -3.33301 -1 -6 -1 -8c0 -14.667 7.66699 -22 23 -22h46v-84h-80c-20 0 -38.333 6.33301 -55 19s-25 31.334 -25 56.001c0 6 1 13.667 3 23l16 72zM215 275.999h181l-81 358h-18z
" />
    <glyph glyph-name="aogonek" unicode="&#x105;" 
d="M399 72c-13.333 -31.333 -32 -53.5 -56 -66.5s-52 -19.5 -84 -19.5c-30 0 -58.167 5.66699 -84.5 17s-49.5 28 -69.5 50s-35.833 48.667 -47.5 80s-17.5 67 -17.5 107v16c0 39.333 5.66699 74.666 17 105.999s26.666 58 45.999 80s41.833 38.833 67.5 50.5
s53.167 17.5 82.5 17.5c35.333 0 63.833 -6 85.5 -18s38.834 -30.667 51.501 -56h18v60h126v-346c0 -20 9 -30 27 -30h19v-120h-55l-13 -56c-0.666992 -3.33301 -1 -6 -1 -8c0 -14.667 7.66699 -22 23 -22h46v-84h-80c-20 0 -38.333 6.33301 -55 19s-25 31.334 -25 56.001
c0 6 1 13.667 3 23l20 88c-17.333 14 -26 32.667 -26 56h-18zM287 106c36.667 0 66 12.167 88 36.5s33 57.5 33 99.5v12c0 42 -11 75.167 -33 99.5s-51.333 36.5 -88 36.5s-66 -12.167 -88 -36.5s-33 -57.5 -33 -99.5v-12c0 -42 11 -75.167 33 -99.5s51.333 -36.5 88 -36.5z
" />
    <glyph glyph-name="Cacute" unicode="&#x106;" 
d="M308 106c25.333 0 46.168 3.83105 62.501 11.498s29 18 38 31s15.167 28 18.5 45s5 34.5 5 52.5v18h132v-18c0 -83.333 -21.833 -147.5 -65.5 -192.5s-107.167 -67.5 -190.5 -67.5c-80 0 -143.333 24.333 -190 73s-70 119.667 -70 213v156c0 44.667 6 84.834 18 120.501
s29.333 65.667 52 90s50 43 82 56s68 19.5 108 19.5c41.333 0 78 -6 110 -18s58.833 -29.333 80.5 -52s38 -50 49 -82s16.5 -68 16.5 -108v-18h-132v18c0 16.667 -2 33.334 -6 50.001s-10.667 31.667 -20 45s-22 24.166 -38 32.499s-36 12.5 -60 12.5
c-22 0 -41 -4.16699 -57 -12.5s-29.333 -19.666 -40 -33.999s-18.5 -31 -23.5 -50s-7.5 -38.833 -7.5 -59.5v-176c0 -22.667 2.33301 -43.5 7 -62.5s12 -35.5 22 -49.5s23.167 -24.833 39.5 -32.5s36.166 -11.5 59.499 -11.5zM308.002 909.998h134l-84 -136h-102z" />
    <glyph glyph-name="cacute" unicode="&#x107;" 
d="M562 182c-11.333 -58.667 -38.168 -105.997 -80.501 -141.997s-98.833 -54 -169.5 -54c-36.667 0 -70.834 5.66699 -102.501 17s-59.167 27.666 -82.5 48.999s-41.666 47.666 -54.999 78.999s-20 67 -20 107v12c0 40 6.66699 76 20 108s31.833 59.333 55.5 82
s51.334 40 83.001 52s65.5 18 101.5 18c69.333 0 125.5 -18 168.5 -54s70.167 -83.333 81.5 -142l-124 -32c-4 29.333 -16.667 54.666 -38 75.999s-51.333 32 -90 32c-18 0 -35 -3.33301 -51 -10s-30 -16.167 -42 -28.5s-21.5 -27.333 -28.5 -45s-10.5 -37.5 -10.5 -59.5v-6
c0 -22 3.5 -41.5 10.5 -58.5s16.5 -31.167 28.5 -42.5s26 -19.833 42 -25.5s33 -8.5 51 -8.5c38.667 0 68.167 9.66699 88.5 29s33.5 45.333 39.5 78zM311.998 706.003h134l-84 -136h-102z" />
    <glyph glyph-name="Ccircumflex" unicode="&#x108;" 
d="M308 106c25.333 0 46.168 3.83105 62.501 11.498s29 18 38 31s15.167 28 18.5 45s5 34.5 5 52.5v18h132v-18c0 -83.333 -21.833 -147.5 -65.5 -192.5s-107.167 -67.5 -190.5 -67.5c-80 0 -143.333 24.333 -190 73s-70 119.667 -70 213v156c0 44.667 6 84.834 18 120.501
s29.333 65.667 52 90s50 43 82 56s68 19.5 108 19.5c41.333 0 78 -6 110 -18s58.833 -29.333 80.5 -52s38 -50 49 -82s16.5 -68 16.5 -108v-18h-132v18c0 16.667 -2 33.334 -6 50.001s-10.667 31.667 -20 45s-22 24.166 -38 32.499s-36 12.5 -60 12.5
c-22 0 -41 -4.16699 -57 -12.5s-29.333 -19.666 -40 -33.999s-18.5 -31 -23.5 -50s-7.5 -38.833 -7.5 -59.5v-176c0 -22.667 2.33301 -43.5 7 -62.5s12 -35.5 22 -49.5s23.167 -24.833 39.5 -32.5s36.166 -11.5 59.499 -11.5zM357.002 773.998l-43 88h-12l-43 -88h-121
l84 136h172l84 -136h-121z" />
    <glyph glyph-name="ccircumflex" unicode="&#x109;" 
d="M562 182c-11.333 -58.667 -38.168 -105.997 -80.501 -141.997s-98.833 -54 -169.5 -54c-36.667 0 -70.834 5.66699 -102.501 17s-59.167 27.666 -82.5 48.999s-41.666 47.666 -54.999 78.999s-20 67 -20 107v12c0 40 6.66699 76 20 108s31.833 59.333 55.5 82
s51.334 40 83.001 52s65.5 18 101.5 18c69.333 0 125.5 -18 168.5 -54s70.167 -83.333 81.5 -142l-124 -32c-4 29.333 -16.667 54.666 -38 75.999s-51.333 32 -90 32c-18 0 -35 -3.33301 -51 -10s-30 -16.167 -42 -28.5s-21.5 -27.333 -28.5 -45s-10.5 -37.5 -10.5 -59.5v-6
c0 -22 3.5 -41.5 10.5 -58.5s16.5 -31.167 28.5 -42.5s26 -19.833 42 -25.5s33 -8.5 51 -8.5c38.667 0 68.167 9.66699 88.5 29s33.5 45.333 39.5 78zM360.998 570.003l-43 88h-12l-43 -88h-121l84 136h172l84 -136h-121z" />
    <glyph glyph-name="Cdotaccent" unicode="&#x10a;" 
d="M308 106c25.333 0 46.168 3.83105 62.501 11.498s29 18 38 31s15.167 28 18.5 45s5 34.5 5 52.5v18h132v-18c0 -83.333 -21.833 -147.5 -65.5 -192.5s-107.167 -67.5 -190.5 -67.5c-80 0 -143.333 24.333 -190 73s-70 119.667 -70 213v156c0 44.667 6 84.834 18 120.501
s29.333 65.667 52 90s50 43 82 56s68 19.5 108 19.5c41.333 0 78 -6 110 -18s58.833 -29.333 80.5 -52s38 -50 49 -82s16.5 -68 16.5 -108v-18h-132v18c0 16.667 -2 33.334 -6 50.001s-10.667 31.667 -20 45s-22 24.166 -38 32.499s-36 12.5 -60 12.5
c-22 0 -41 -4.16699 -57 -12.5s-29.333 -19.666 -40 -33.999s-18.5 -31 -23.5 -50s-7.5 -38.833 -7.5 -59.5v-176c0 -22.667 2.33301 -43.5 7 -62.5s12 -35.5 22 -49.5s23.167 -24.833 39.5 -32.5s36.166 -11.5 59.499 -11.5zM403.002 872.998
c0 -13.333 -2.5 -25.833 -7.5 -37.5s-11.833 -21.667 -20.5 -30s-18.834 -15 -30.501 -20s-23.834 -7.5 -36.501 -7.5c-13.333 0 -25.666 2.5 -36.999 7.5s-21.333 11.667 -30 20s-15.5 18.333 -20.5 30s-7.5 24.167 -7.5 37.5s2.5 25.833 7.5 37.5s11.833 21.667 20.5 30
s18.667 15 30 20s23.666 7.5 36.999 7.5c12.667 0 24.834 -2.5 36.501 -7.5s21.834 -11.667 30.501 -20s15.5 -18.333 20.5 -30s7.5 -24.167 7.5 -37.5z" />
    <glyph glyph-name="cdotaccent" unicode="&#x10b;" 
d="M562 182c-11.333 -58.667 -38.168 -105.997 -80.501 -141.997s-98.833 -54 -169.5 -54c-36.667 0 -70.834 5.66699 -102.501 17s-59.167 27.666 -82.5 48.999s-41.666 47.666 -54.999 78.999s-20 67 -20 107v12c0 40 6.66699 76 20 108s31.833 59.333 55.5 82
s51.334 40 83.001 52s65.5 18 101.5 18c69.333 0 125.5 -18 168.5 -54s70.167 -83.333 81.5 -142l-124 -32c-4 29.333 -16.667 54.666 -38 75.999s-51.333 32 -90 32c-18 0 -35 -3.33301 -51 -10s-30 -16.167 -42 -28.5s-21.5 -27.333 -28.5 -45s-10.5 -37.5 -10.5 -59.5v-6
c0 -22 3.5 -41.5 10.5 -58.5s16.5 -31.167 28.5 -42.5s26 -19.833 42 -25.5s33 -8.5 51 -8.5c38.667 0 68.167 9.66699 88.5 29s33.5 45.333 39.5 78zM406.998 643.003c0 -13.333 -2.5 -25.833 -7.5 -37.5s-11.833 -21.667 -20.5 -30s-18.834 -15 -30.501 -20
s-23.834 -7.5 -36.501 -7.5c-13.333 0 -25.666 2.5 -36.999 7.5s-21.333 11.667 -30 20s-15.5 18.333 -20.5 30s-7.5 24.167 -7.5 37.5s2.5 25.833 7.5 37.5s11.833 21.667 20.5 30s18.667 15 30 20s23.666 7.5 36.999 7.5c12.667 0 24.834 -2.5 36.501 -7.5
s21.834 -11.667 30.501 -20s15.5 -18.333 20.5 -30s7.5 -24.167 7.5 -37.5z" />
    <glyph glyph-name="Ccaron" unicode="&#x10c;" 
d="M308 106c25.333 0 46.168 3.83105 62.501 11.498s29 18 38 31s15.167 28 18.5 45s5 34.5 5 52.5v18h132v-18c0 -83.333 -21.833 -147.5 -65.5 -192.5s-107.167 -67.5 -190.5 -67.5c-80 0 -143.333 24.333 -190 73s-70 119.667 -70 213v156c0 44.667 6 84.834 18 120.501
s29.333 65.667 52 90s50 43 82 56s68 19.5 108 19.5c41.333 0 78 -6 110 -18s58.833 -29.333 80.5 -52s38 -50 49 -82s16.5 -68 16.5 -108v-18h-132v18c0 16.667 -2 33.334 -6 50.001s-10.667 31.667 -20 45s-22 24.166 -38 32.499s-36 12.5 -60 12.5
c-22 0 -41 -4.16699 -57 -12.5s-29.333 -19.666 -40 -33.999s-18.5 -31 -23.5 -50s-7.5 -38.833 -7.5 -59.5v-176c0 -22.667 2.33301 -43.5 7 -62.5s12 -35.5 22 -49.5s23.167 -24.833 39.5 -32.5s36.166 -11.5 59.499 -11.5zM478.002 909.998l-84 -136h-172l-84 136h121
l43 -88h12l43 88h121z" />
    <glyph glyph-name="ccaron" unicode="&#x10d;" 
d="M562 182c-11.333 -58.667 -38.168 -105.997 -80.501 -141.997s-98.833 -54 -169.5 -54c-36.667 0 -70.834 5.66699 -102.501 17s-59.167 27.666 -82.5 48.999s-41.666 47.666 -54.999 78.999s-20 67 -20 107v12c0 40 6.66699 76 20 108s31.833 59.333 55.5 82
s51.334 40 83.001 52s65.5 18 101.5 18c69.333 0 125.5 -18 168.5 -54s70.167 -83.333 81.5 -142l-124 -32c-4 29.333 -16.667 54.666 -38 75.999s-51.333 32 -90 32c-18 0 -35 -3.33301 -51 -10s-30 -16.167 -42 -28.5s-21.5 -27.333 -28.5 -45s-10.5 -37.5 -10.5 -59.5v-6
c0 -22 3.5 -41.5 10.5 -58.5s16.5 -31.167 28.5 -42.5s26 -19.833 42 -25.5s33 -8.5 51 -8.5c38.667 0 68.167 9.66699 88.5 29s33.5 45.333 39.5 78zM481.998 706.003l-84 -136h-172l-84 136h121l43 -88h12l43 88h121z" />
    <glyph glyph-name="Dcaron" unicode="&#x10e;" 
d="M46 700h254c86.667 0 151 -20.167 193 -60.5s63 -102.833 63 -187.5v-204c0 -84.667 -21 -147.167 -63 -187.5s-106.333 -60.5 -193 -60.5h-254v127h66v447h-66v126zM300 126c46 0 78.167 10.833 96.5 32.5s27.5 55.5 27.5 101.5v192c0 40 -9.16699 70.333 -27.5 91
s-50.5 31 -96.5 31h-56v-448h56zM471 910l-84 -136h-172l-84 136h121l43 -88h12l43 88h121z" />
    <glyph glyph-name="dcaron" unicode="&#x10f;" 
d="M270 40l-18 0.000976562c-5.33301 -18 -15.5 -31.5 -30.5 -40.5s-34.167 -13.5 -57.5 -13.5c-50 0 -86.833 20.667 -110.5 62s-35.5 103.666 -35.5 186.999v34c0 86 13 147.667 39 185s61.667 56 107 56c22 0 41.167 -5.33301 57.5 -16s26.5 -24 30.5 -40h18v246h126
v-700h-126v40zM209 390.001c-23.333 0 -40 -10.167 -50 -30.5s-15 -52.5 -15 -96.5v-30c0 -44 5 -76.167 15 -96.5s26.667 -30.5 50 -30.5c21.333 0 36.833 7.83301 46.5 23.5s14.5 37.167 14.5 64.5v108c0 27.333 -4.83301 48.833 -14.5 64.5s-25.167 23.5 -46.5 23.5z
M600 496.001c0 -25.333 -8.66797 -46.667 -26.001 -64s-38.666 -26 -63.999 -26h-60v78h45c18 0 27 10 27 30v12h-9c-12 0 -23.167 2.33301 -33.5 7s-19.5 11 -27.5 19s-14.333 17.167 -19 27.5s-7 21.5 -7 33.5s2.33301 23.167 7 33.5s11 19.5 19 27.5
s17.167 14.333 27.5 19s21.5 7 33.5 7s23.167 -2.33301 33.5 -7s19.5 -11 27.5 -19s14.333 -17.167 19 -27.5s7 -21.5 7 -33.5v-117z" />
    <glyph glyph-name="Dcroat" unicode="&#x110;" 
d="M46 410h66v164h-66v126h254c86.667 0 151 -20.167 193 -60.5s63 -102.833 63 -187.5v-204c0 -84.667 -21 -147.167 -63 -187.5s-106.333 -60.5 -193 -60.5h-254v126h66v164h-66v120zM300 126c46 0 78.167 10.833 96.5 32.5s27.5 55.5 27.5 101.5v192
c0 40 -9.16699 70.333 -27.5 91s-50.5 31 -96.5 31h-56v-164h98v-120h-98v-164h56z" />
    <glyph glyph-name="dcroat" unicode="&#x111;" 
d="M426 72l-17.999 -0.000976562c-5.33301 -11.333 -11.833 -22.166 -19.5 -32.499s-17.667 -19.5 -30 -27.5s-27 -14.333 -44 -19s-37.5 -7 -61.5 -7c-30.667 0 -59.167 5.5 -85.5 16.5s-49.333 27.333 -69 49s-35 48.167 -46 79.5s-16.5 67.333 -16.5 108v18
c0 40 5.83301 75.667 17.5 107s27.667 57.833 48 79.5s44 38.167 71 49.5s55.5 17 85.5 17c40 0 71.667 -7.5 95 -22.5s41.666 -36.167 54.999 -63.5h18v114h-156v114h156v48h126v-48h60v-114h-60v-538h-126v72zM294.001 105.999c39.333 0 71.166 12.5 95.499 37.5
s36.5 57.833 36.5 98.5v12c0 40.667 -12.167 73.5 -36.5 98.5s-56.166 37.5 -95.499 37.5s-71.166 -12.167 -95.499 -36.5s-36.5 -57.5 -36.5 -99.5v-12c0 -42 12.167 -75.167 36.5 -99.5s56.166 -36.5 95.499 -36.5z" />
    <glyph glyph-name="Emacron" unicode="&#x112;" 
d="M82 700h442v-126h-310v-160h298v-126h-298v-162h322v-126h-454v700zM456 774h-294v102h294v-102z" />
    <glyph glyph-name="emacron" unicode="&#x113;" 
d="M189 207c0.666992 -14.667 4.16504 -28.168 10.498 -40.501s15 -23 26 -32s23.667 -16 38 -21s29.5 -7.5 45.5 -7.5c31.333 0 55.333 5.5 72 16.5s28.667 24.167 36 39.5l108 -60c-6 -12.667 -14.333 -25.834 -25 -39.501s-24.5 -26.167 -41.5 -37.5
s-37.667 -20.666 -62 -27.999s-52.833 -11 -85.5 -11c-37.333 0 -71.333 6 -102 18s-57.167 29.333 -79.5 52s-39.666 50.334 -51.999 83.001s-18.5 69.667 -18.5 111v6c0 38 6.5 72.667 19.5 104s30.833 58 53.5 80s49.167 39.167 79.5 51.5s62.833 18.5 97.5 18.5
c42.667 0 79.334 -7.5 110.001 -22.5s56 -34 76 -57s34.667 -48.333 44 -76s14 -54.5 14 -80.5v-67h-364zM307.998 395.999c-32 0 -58 -8.16699 -78 -24.5s-33 -35.166 -39 -56.499h234c-4 23.333 -16.5 42.666 -37.5 57.999s-47.5 23 -79.5 23zM455.998 569.999h-294v102
h294v-102z" />
    <glyph glyph-name="Ebreve" unicode="&#x114;" 
d="M82 700h442v-126h-310v-160h298v-126h-298v-162h322v-126h-454v700zM441 910l-0.00195312 -14c0 -38 -12.167 -67.833 -36.5 -89.5s-56.166 -32.5 -95.499 -32.5s-71.166 10.833 -95.499 32.5s-36.5 51.5 -36.5 89.5v14h90v-6c0 -12 3.5 -22 10.5 -30s17.5 -12 31.5 -12
s24.5 4 31.5 12s10.5 18 10.5 30v6h90z" />
    <glyph glyph-name="ebreve" unicode="&#x115;" 
d="M189 207c0.666992 -14.667 4.16504 -28.168 10.498 -40.501s15 -23 26 -32s23.667 -16 38 -21s29.5 -7.5 45.5 -7.5c31.333 0 55.333 5.5 72 16.5s28.667 24.167 36 39.5l108 -60c-6 -12.667 -14.333 -25.834 -25 -39.501s-24.5 -26.167 -41.5 -37.5
s-37.667 -20.666 -62 -27.999s-52.833 -11 -85.5 -11c-37.333 0 -71.333 6 -102 18s-57.167 29.333 -79.5 52s-39.666 50.334 -51.999 83.001s-18.5 69.667 -18.5 111v6c0 38 6.5 72.667 19.5 104s30.833 58 53.5 80s49.167 39.167 79.5 51.5s62.833 18.5 97.5 18.5
c42.667 0 79.334 -7.5 110.001 -22.5s56 -34 76 -57s34.667 -48.333 44 -76s14 -54.5 14 -80.5v-67h-364zM307.998 395.999c-32 0 -58 -8.16699 -78 -24.5s-33 -35.166 -39 -56.499h234c-4 23.333 -16.5 42.666 -37.5 57.999s-47.5 23 -79.5 23zM440.998 699.999
l-0.00195312 -14c0 -38 -12.167 -67.833 -36.5 -89.5s-56.166 -32.5 -95.499 -32.5s-71.166 10.833 -95.499 32.5s-36.5 51.5 -36.5 89.5v14h90v-6c0 -12 3.5 -22 10.5 -30s17.5 -12 31.5 -12s24.5 4 31.5 12s10.5 18 10.5 30v6h90z" />
    <glyph glyph-name="Edotaccent" unicode="&#x116;" 
d="M82 700h442v-126h-310v-160h298v-126h-298v-162h322v-126h-454v700zM404 873c0 -13.333 -2.5 -25.833 -7.5 -37.5s-11.833 -21.667 -20.5 -30s-18.834 -15 -30.501 -20s-23.834 -7.5 -36.501 -7.5c-13.333 0 -25.666 2.5 -36.999 7.5s-21.333 11.667 -30 20
s-15.5 18.333 -20.5 30s-7.5 24.167 -7.5 37.5s2.5 25.833 7.5 37.5s11.833 21.667 20.5 30s18.667 15 30 20s23.666 7.5 36.999 7.5c12.667 0 24.834 -2.5 36.501 -7.5s21.834 -11.667 30.501 -20s15.5 -18.333 20.5 -30s7.5 -24.167 7.5 -37.5z" />
    <glyph glyph-name="edotaccent" unicode="&#x117;" 
d="M189 207c0.666992 -14.667 4.16504 -28.168 10.498 -40.501s15 -23 26 -32s23.667 -16 38 -21s29.5 -7.5 45.5 -7.5c31.333 0 55.333 5.5 72 16.5s28.667 24.167 36 39.5l108 -60c-6 -12.667 -14.333 -25.834 -25 -39.501s-24.5 -26.167 -41.5 -37.5
s-37.667 -20.666 -62 -27.999s-52.833 -11 -85.5 -11c-37.333 0 -71.333 6 -102 18s-57.167 29.333 -79.5 52s-39.666 50.334 -51.999 83.001s-18.5 69.667 -18.5 111v6c0 38 6.5 72.667 19.5 104s30.833 58 53.5 80s49.167 39.167 79.5 51.5s62.833 18.5 97.5 18.5
c42.667 0 79.334 -7.5 110.001 -22.5s56 -34 76 -57s34.667 -48.333 44 -76s14 -54.5 14 -80.5v-67h-364zM307.998 395.999c-32 0 -58 -8.16699 -78 -24.5s-33 -35.166 -39 -56.499h234c-4 23.333 -16.5 42.666 -37.5 57.999s-47.5 23 -79.5 23zM403.998 642.999
c0 -13.333 -2.5 -25.833 -7.5 -37.5s-11.833 -21.667 -20.5 -30s-18.834 -15 -30.501 -20s-23.834 -7.5 -36.501 -7.5c-13.333 0 -25.666 2.5 -36.999 7.5s-21.333 11.667 -30 20s-15.5 18.333 -20.5 30s-7.5 24.167 -7.5 37.5s2.5 25.833 7.5 37.5s11.833 21.667 20.5 30
s18.667 15 30 20s23.666 7.5 36.999 7.5c12.667 0 24.834 -2.5 36.501 -7.5s21.834 -11.667 30.501 -20s15.5 -18.333 20.5 -30s7.5 -24.167 7.5 -37.5z" />
    <glyph glyph-name="Eogonek" unicode="&#x118;" 
d="M82 700l442 -0.000976562v-126h-310v-160h298v-126h-298v-162h322v-126l-13 -56c-0.666992 -3.33301 -1 -6 -1 -8c0 -14.667 7.66699 -22 23 -22h46v-84h-80c-20 0 -38.333 6.33301 -55 19s-25 31.334 -25 56.001c0 6 1 13.667 3 23l16 72h-368v700z" />
    <glyph glyph-name="eogonek" unicode="&#x119;" 
d="M189 207c0.666992 -14.667 4.16406 -28.168 10.4971 -40.501s15 -23 26 -32s23.667 -16 38 -21s29.5 -7.5 45.5 -7.5c31.333 0 55.333 5.5 72 16.5s28.667 24.167 36 39.5l108 -60c-5.33301 -11.333 -12.666 -23.166 -21.999 -35.499s-21.166 -24 -35.499 -35
s-31.5 -20.333 -51.5 -28s-43.333 -12.834 -70 -15.501l-10 -44c-0.666992 -3.33301 -1 -6 -1 -8c0 -14.667 7.66699 -22 23 -22h46v-84h-80c-20 0 -38.333 6.33301 -55 19s-25 31.334 -25 56.001c0 6 1 13.667 3 23l14 62c-60.667 10 -109.5 37.333 -146.5 82
s-55.5 104 -55.5 178v6c0 38 6.5 72.667 19.5 104s30.833 58 53.5 80s49.167 39.167 79.5 51.5s62.833 18.5 97.5 18.5c42.667 0 79.334 -7.5 110.001 -22.5s56 -34 76 -57s34.667 -48.333 44 -76s14 -54.5 14 -80.5v-67h-364zM307.997 395.999
c-32 0 -58 -8.16699 -78 -24.5s-33 -35.166 -39 -56.499h234c-4 23.333 -16.5 42.666 -37.5 57.999s-47.5 23 -79.5 23z" />
    <glyph glyph-name="Ecaron" unicode="&#x11a;" 
d="M82 700h442v-126h-310v-160h298v-126h-298v-162h322v-126h-454v700zM485 910l-84 -136h-172l-84 136h121l43 -88h12l43 88h121z" />
    <glyph glyph-name="ecaron" unicode="&#x11b;" 
d="M189 207c0.666992 -14.667 4.16504 -28.168 10.498 -40.501s15 -23 26 -32s23.667 -16 38 -21s29.5 -7.5 45.5 -7.5c31.333 0 55.333 5.5 72 16.5s28.667 24.167 36 39.5l108 -60c-6 -12.667 -14.333 -25.834 -25 -39.501s-24.5 -26.167 -41.5 -37.5
s-37.667 -20.666 -62 -27.999s-52.833 -11 -85.5 -11c-37.333 0 -71.333 6 -102 18s-57.167 29.333 -79.5 52s-39.666 50.334 -51.999 83.001s-18.5 69.667 -18.5 111v6c0 38 6.5 72.667 19.5 104s30.833 58 53.5 80s49.167 39.167 79.5 51.5s62.833 18.5 97.5 18.5
c42.667 0 79.334 -7.5 110.001 -22.5s56 -34 76 -57s34.667 -48.333 44 -76s14 -54.5 14 -80.5v-67h-364zM307.998 395.999c-32 0 -58 -8.16699 -78 -24.5s-33 -35.166 -39 -56.499h234c-4 23.333 -16.5 42.666 -37.5 57.999s-47.5 23 -79.5 23zM478.998 705.999l-84 -136
h-172l-84 136h121l43 -88h12l43 88h121z" />
    <glyph glyph-name="Gcircumflex" unicode="&#x11c;" 
d="M260 354h300.001v-354h-120v78h-18c-8 -26 -23.333 -47.833 -46 -65.5s-56.667 -26.5 -102 -26.5c-32 0 -62 6 -90 18s-52.333 29.833 -73 53.5s-37 53 -49 88s-18 75.833 -18 122.5v164c0 45.333 6.5 85.5 19.5 120.5s31 64.5 54 88.5s50.5 42.167 82.5 54.5
s67.333 18.5 106 18.5c40 0 75.667 -6.5 107 -19.5s58 -31 80 -54s38.667 -50 50 -81s17 -64.167 17 -99.5v-12h-132v12c0 42 -10.833 73.833 -32.5 95.5s-52.167 32.5 -91.5 32.5c-37.333 0 -68 -12.5 -92 -37.5s-36 -67.833 -36 -128.5v-148c0 -108 44 -162 132 -162
c39.333 0 69.166 10.5 89.499 31.5s30.5 49.167 30.5 84.5h-168v126zM355.001 774l-43 88h-12l-43 -88h-121l84 136h172l84 -136h-121z" />
    <glyph glyph-name="gcircumflex" unicode="&#x11d;" 
d="M432 72h-17.999c-5.33301 -11.333 -11.833 -22.166 -19.5 -32.499s-17.667 -19.5 -30 -27.5s-27 -14.333 -44 -19s-37.5 -7 -61.5 -7c-30.667 0 -59.167 5.5 -85.5 16.5s-49.333 27.333 -69 49s-35 48.167 -46 79.5s-16.5 67.333 -16.5 108v18
c0 40 5.83301 75.667 17.5 107s27.667 57.833 48 79.5s44 38.167 71 49.5s55.5 17 85.5 17c40 0 71.667 -7.5 95 -22.5s41.666 -36.167 54.999 -63.5h18v72h126v-618c0 -22.667 -7.16699 -41.334 -21.5 -56.001s-32.833 -22 -55.5 -22h-334v120h258c18 0 27 10 27 30v122z
M300.001 106c39.333 0 71.166 12.5 95.499 37.5s36.5 57.833 36.5 98.5v12c0 40.667 -12.167 73.5 -36.5 98.5s-56.166 37.5 -95.499 37.5s-71.166 -12.167 -95.499 -36.5s-36.5 -57.5 -36.5 -99.5v-12c0 -42 12.167 -75.167 36.5 -99.5s56.166 -36.5 95.499 -36.5z
M314.001 570l-43 88h-12l-43 -88h-121l84 136h172l84 -136h-121z" />
    <glyph glyph-name="Gbreve" unicode="&#x11e;" 
d="M260 354h300.001v-354h-120v78h-18c-8 -26 -23.333 -47.833 -46 -65.5s-56.667 -26.5 -102 -26.5c-32 0 -62 6 -90 18s-52.333 29.833 -73 53.5s-37 53 -49 88s-18 75.833 -18 122.5v164c0 45.333 6.5 85.5 19.5 120.5s31 64.5 54 88.5s50.5 42.167 82.5 54.5
s67.333 18.5 106 18.5c40 0 75.667 -6.5 107 -19.5s58 -31 80 -54s38.667 -50 50 -81s17 -64.167 17 -99.5v-12h-132v12c0 42 -10.833 73.833 -32.5 95.5s-52.167 32.5 -91.5 32.5c-37.333 0 -68 -12.5 -92 -37.5s-36 -67.833 -36 -128.5v-148c0 -108 44 -162 132 -162
c39.333 0 69.166 10.5 89.499 31.5s30.5 49.167 30.5 84.5h-168v126zM438.001 910l-0.00195312 -14c0 -38 -12.167 -67.833 -36.5 -89.5s-56.166 -32.5 -95.499 -32.5s-71.166 10.833 -95.499 32.5s-36.5 51.5 -36.5 89.5v14h90v-6c0 -12 3.5 -22 10.5 -30
s17.5 -12 31.5 -12s24.5 4 31.5 12s10.5 18 10.5 30v6h90z" />
    <glyph glyph-name="gbreve" unicode="&#x11f;" 
d="M432 72h-17.999c-5.33301 -11.333 -11.833 -22.166 -19.5 -32.499s-17.667 -19.5 -30 -27.5s-27 -14.333 -44 -19s-37.5 -7 -61.5 -7c-30.667 0 -59.167 5.5 -85.5 16.5s-49.333 27.333 -69 49s-35 48.167 -46 79.5s-16.5 67.333 -16.5 108v18
c0 40 5.83301 75.667 17.5 107s27.667 57.833 48 79.5s44 38.167 71 49.5s55.5 17 85.5 17c40 0 71.667 -7.5 95 -22.5s41.666 -36.167 54.999 -63.5h18v72h126v-618c0 -22.667 -7.16699 -41.334 -21.5 -56.001s-32.833 -22 -55.5 -22h-334v120h258c18 0 27 10 27 30v122z
M300.001 106c39.333 0 71.166 12.5 95.499 37.5s36.5 57.833 36.5 98.5v12c0 40.667 -12.167 73.5 -36.5 98.5s-56.166 37.5 -95.499 37.5s-71.166 -12.167 -95.499 -36.5s-36.5 -57.5 -36.5 -99.5v-12c0 -42 12.167 -75.167 36.5 -99.5s56.166 -36.5 95.499 -36.5z
M397.001 700l-0.00195312 -14c0 -38 -12.167 -67.833 -36.5 -89.5s-56.166 -32.5 -95.499 -32.5s-71.166 10.833 -95.499 32.5s-36.5 51.5 -36.5 89.5v14h90v-6c0 -12 3.5 -22 10.5 -30s17.5 -12 31.5 -12s24.5 4 31.5 12s10.5 18 10.5 30v6h90z" />
    <glyph glyph-name="Gdotaccent" unicode="&#x120;" 
d="M260 354h300.001v-354h-120v78h-18c-8 -26 -23.333 -47.833 -46 -65.5s-56.667 -26.5 -102 -26.5c-32 0 -62 6 -90 18s-52.333 29.833 -73 53.5s-37 53 -49 88s-18 75.833 -18 122.5v164c0 45.333 6.5 85.5 19.5 120.5s31 64.5 54 88.5s50.5 42.167 82.5 54.5
s67.333 18.5 106 18.5c40 0 75.667 -6.5 107 -19.5s58 -31 80 -54s38.667 -50 50 -81s17 -64.167 17 -99.5v-12h-132v12c0 42 -10.833 73.833 -32.5 95.5s-52.167 32.5 -91.5 32.5c-37.333 0 -68 -12.5 -92 -37.5s-36 -67.833 -36 -128.5v-148c0 -108 44 -162 132 -162
c39.333 0 69.166 10.5 89.499 31.5s30.5 49.167 30.5 84.5h-168v126zM401.001 873c0 -13.333 -2.5 -25.833 -7.5 -37.5s-11.833 -21.667 -20.5 -30s-18.834 -15 -30.501 -20s-23.834 -7.5 -36.501 -7.5c-13.333 0 -25.666 2.5 -36.999 7.5s-21.333 11.667 -30 20
s-15.5 18.333 -20.5 30s-7.5 24.167 -7.5 37.5s2.5 25.833 7.5 37.5s11.833 21.667 20.5 30s18.667 15 30 20s23.666 7.5 36.999 7.5c12.667 0 24.834 -2.5 36.501 -7.5s21.834 -11.667 30.501 -20s15.5 -18.333 20.5 -30s7.5 -24.167 7.5 -37.5z" />
    <glyph glyph-name="gdotaccent" unicode="&#x121;" 
d="M432 72h-17.999c-5.33301 -11.333 -11.833 -22.166 -19.5 -32.499s-17.667 -19.5 -30 -27.5s-27 -14.333 -44 -19s-37.5 -7 -61.5 -7c-30.667 0 -59.167 5.5 -85.5 16.5s-49.333 27.333 -69 49s-35 48.167 -46 79.5s-16.5 67.333 -16.5 108v18
c0 40 5.83301 75.667 17.5 107s27.667 57.833 48 79.5s44 38.167 71 49.5s55.5 17 85.5 17c40 0 71.667 -7.5 95 -22.5s41.666 -36.167 54.999 -63.5h18v72h126v-618c0 -22.667 -7.16699 -41.334 -21.5 -56.001s-32.833 -22 -55.5 -22h-334v120h258c18 0 27 10 27 30v122z
M300.001 106c39.333 0 71.166 12.5 95.499 37.5s36.5 57.833 36.5 98.5v12c0 40.667 -12.167 73.5 -36.5 98.5s-56.166 37.5 -95.499 37.5s-71.166 -12.167 -95.499 -36.5s-36.5 -57.5 -36.5 -99.5v-12c0 -42 12.167 -75.167 36.5 -99.5s56.166 -36.5 95.499 -36.5z
M360.001 643c0 -13.333 -2.5 -25.833 -7.5 -37.5s-11.833 -21.667 -20.5 -30s-18.834 -15 -30.501 -20s-23.834 -7.5 -36.501 -7.5c-13.333 0 -25.666 2.5 -36.999 7.5s-21.333 11.667 -30 20s-15.5 18.333 -20.5 30s-7.5 24.167 -7.5 37.5s2.5 25.833 7.5 37.5
s11.833 21.667 20.5 30s18.667 15 30 20s23.666 7.5 36.999 7.5c12.667 0 24.834 -2.5 36.501 -7.5s21.834 -11.667 30.501 -20s15.5 -18.333 20.5 -30s7.5 -24.167 7.5 -37.5z" />
    <glyph glyph-name="uni0122" unicode="&#x122;" 
d="M361 -248c0 -25.333 -8.66797 -46.667 -26.001 -64s-38.666 -26 -63.999 -26h-60v78h45c18 0 27 10 27 30v12h-9c-12 0 -23.167 2.33301 -33.5 7s-19.5 11 -27.5 19s-14.333 17.167 -19 27.5s-7 21.5 -7 33.5s2.33301 23.167 7 33.5s11 19.5 19 27.5
s17.167 14.333 27.5 19s21.5 7 33.5 7s23.167 -2.33301 33.5 -7s19.5 -11 27.5 -19s14.333 -17.167 19 -27.5s7 -21.5 7 -33.5v-117zM259.999 353.999h300.001v-354h-120v78h-18c-8 -26 -23.333 -47.833 -46 -65.5s-56.667 -26.5 -102 -26.5c-32 0 -62 6 -90 18
s-52.333 29.833 -73 53.5s-37 53 -49 88s-18 75.833 -18 122.5v164c0 45.333 6.5 85.5 19.5 120.5s31 64.5 54 88.5s50.5 42.167 82.5 54.5s67.333 18.5 106 18.5c40 0 75.667 -6.5 107 -19.5s58 -31 80 -54s38.667 -50 50 -81s17 -64.167 17 -99.5v-12h-132v12
c0 42 -10.833 73.833 -32.5 95.5s-52.167 32.5 -91.5 32.5c-37.333 0 -68 -12.5 -92 -37.5s-36 -67.833 -36 -128.5v-148c0 -108 44 -162 132 -162c39.333 0 69.166 10.5 89.499 31.5s30.5 49.167 30.5 84.5h-168v126z" />
    <glyph glyph-name="uni0123" unicode="&#x123;" 
d="M177 778c0 25.333 8.66797 46.667 26.001 64s38.666 26 63.999 26h60v-78h-45c-18 0 -27 -10 -27 -30v-12h9c12 0 23.167 -2.33301 33.5 -7s19.5 -11 27.5 -19s14.333 -17.167 19 -27.5s7 -21.5 7 -33.5s-2.33301 -23.167 -7 -33.5s-11 -19.5 -19 -27.5
s-17.167 -14.333 -27.5 -19s-21.5 -7 -33.5 -7s-23.167 2.33301 -33.5 7s-19.5 11 -27.5 19s-14.333 17.167 -19 27.5s-7 21.5 -7 33.5v117zM432.001 72.001h-17.999c-5.33301 -11.333 -11.833 -22.166 -19.5 -32.499s-17.667 -19.5 -30 -27.5s-27 -14.333 -44 -19
s-37.5 -7 -61.5 -7c-30.667 0 -59.167 5.5 -85.5 16.5s-49.333 27.333 -69 49s-35 48.167 -46 79.5s-16.5 67.333 -16.5 108v18c0 40 5.83301 75.667 17.5 107s27.667 57.833 48 79.5s44 38.167 71 49.5s55.5 17 85.5 17c40 0 71.667 -7.5 95 -22.5
s41.666 -36.167 54.999 -63.5h18v72h126v-618c0 -22.667 -7.16699 -41.334 -21.5 -56.001s-32.833 -22 -55.5 -22h-334v120h258c18 0 27 10 27 30v122zM300.002 106.001c39.333 0 71.166 12.5 95.499 37.5s36.5 57.833 36.5 98.5v12c0 40.667 -12.167 73.5 -36.5 98.5
s-56.166 37.5 -95.499 37.5s-71.166 -12.167 -95.499 -36.5s-36.5 -57.5 -36.5 -99.5v-12c0 -42 12.167 -75.167 36.5 -99.5s56.166 -36.5 95.499 -36.5z" />
    <glyph glyph-name="Hcircumflex" unicode="&#x124;" 
d="M61 700h132v-286h226v286h132v-700h-132v288h-226v-288h-132v700zM355 774l-43 88h-12l-43 -88h-121l84 136h172l84 -136h-121z" />
    <glyph glyph-name="hcircumflex" unicode="&#x125;" 
d="M206 0l-126.003 0.000976562v700h126v-284h18c12.667 30 31.334 53.167 56.001 69.5s55 24.5 91 24.5c24.667 0 47.334 -4 68.001 -12s38.667 -20 54 -36s27.333 -36.5 36 -61.5s13 -54.5 13 -88.5v-312h-126v282c0 35.333 -8.5 63.166 -25.5 83.499
s-41.5 30.5 -73.5 30.5c-37.333 0 -65.166 -12.5 -83.499 -37.5s-27.5 -58.5 -27.5 -100.5v-258zM300.997 774.001l-43 88h-12l-43 -88h-121l84 136h172l84 -136h-121z" />
    <glyph glyph-name="Hbar" unicode="&#x126;" 
d="M73 496h-60v120h60v84h132v-84h202v84h132v-84h60v-120h-60v-496h-132v288h-202v-288h-132v496zM407 414v82h-202v-82h202z" />
    <glyph glyph-name="hbar" unicode="&#x127;" 
d="M206 0l-126.003 0.000976562v538h-60v114h60v48h126v-48h156v-114h-156v-122h18c12.667 30 31.334 53.167 56.001 69.5s55 24.5 91 24.5c24.667 0 47.334 -4 68.001 -12s38.667 -20 54 -36s27.333 -36.5 36 -61.5s13 -54.5 13 -88.5v-312h-126v282
c0 35.333 -8.5 63.166 -25.5 83.499s-41.5 30.5 -73.5 30.5c-37.333 0 -65.166 -12.5 -83.499 -37.5s-27.5 -58.5 -27.5 -100.5v-258z" />
    <glyph glyph-name="Itilde" unicode="&#x128;" 
d="M72 700h468v-126h-168v-448h168v-126h-468v126h168v448h-168v126zM322 891c5.33301 -6 10.666 -11.5 15.999 -16.5s12.666 -7.5 21.999 -7.5s16.833 2.16699 22.5 6.5s11.167 10.166 16.5 17.499l30 38l77 -61l-56 -72c-12 -15.333 -25 -26.5 -39 -33.5
s-29.667 -10.5 -47 -10.5c-13.333 0 -26.166 3 -38.499 9s-24.166 15.667 -35.499 29c-5.33301 6 -10.666 11.5 -15.999 16.5s-12.666 7.5 -21.999 7.5s-16.833 -2.16699 -22.5 -6.5s-11.167 -10.166 -16.5 -17.499l-30 -38l-77 61l56 72c12.667 16 26 27.333 40 34
s29.333 10 46 10c13.333 0 26.166 -3 38.499 -9s24.166 -15.667 35.499 -29z" />
    <glyph glyph-name="itilde" unicode="&#x129;" 
d="M87 120h168v256h-156v120h282v-376h144v-120h-438v120zM277 695c5.33301 -6 10.666 -11.5 15.999 -16.5s12.666 -7.5 21.999 -7.5s16.833 2.16699 22.5 6.5s11.167 10.166 16.5 17.499l30 38l77 -61l-56 -72c-12 -15.333 -25 -26.5 -39 -33.5s-29.667 -10.5 -47 -10.5
c-13.333 0 -26.166 3 -38.499 9s-24.166 15.667 -35.499 29c-5.33301 6 -10.666 11.5 -15.999 16.5s-12.666 7.5 -21.999 7.5s-16.833 -2.16699 -22.5 -6.5s-11.167 -10.166 -16.5 -17.499l-30 -38l-77 61l56 72c12.667 16 26 27.333 40 34s29.333 10 46 10
c13.333 0 26.166 -3 38.499 -9s24.166 -15.667 35.499 -29z" />
    <glyph glyph-name="Imacron" unicode="&#x12a;" 
d="M72 700h468v-126h-168v-448h168v-126h-468v126h168v448h-168v126zM453 774h-294v102h294v-102z" />
    <glyph glyph-name="imacron" unicode="&#x12b;" 
d="M381 570h-282v102h282v-102zM87 120h168v256h-156v120h282v-376h144v-120h-438v120z" />
    <glyph glyph-name="Ibreve" unicode="&#x12c;" 
d="M72 700h468v-126h-168v-448h168v-126h-468v126h168v448h-168v126zM438 910l-0.00195312 -14c0 -38 -12.167 -67.833 -36.5 -89.5s-56.166 -32.5 -95.499 -32.5s-71.166 10.833 -95.499 32.5s-36.5 51.5 -36.5 89.5v14h90v-6c0 -12 3.5 -22 10.5 -30s17.5 -12 31.5 -12
s24.5 4 31.5 12s10.5 18 10.5 30v6h90z" />
    <glyph glyph-name="ibreve" unicode="&#x12d;" 
d="M87 120h168v256h-156v120h282v-376h144v-120h-438v120zM450 700l-0.00195312 -14c0 -38 -12.167 -67.833 -36.5 -89.5s-56.166 -32.5 -95.499 -32.5s-71.166 10.833 -95.499 32.5s-36.5 51.5 -36.5 89.5v14h90v-6c0 -12 3.5 -22 10.5 -30s17.5 -12 31.5 -12
s24.5 4 31.5 12s10.5 18 10.5 30v6h90z" />
    <glyph glyph-name="Iogonek" unicode="&#x12e;" 
d="M72 700l468 -0.000976562v-126h-168v-448h168v-126l-13 -56c-0.666992 -3.33301 -1 -6 -1 -8c0 -14.667 7.66699 -22 23 -22h46v-84h-80c-20 0 -38.333 6.33301 -55 19s-25 31.334 -25 56.001c0 6 1 13.667 3 23l16 72h-382v126h168v448h-168v126z" />
    <glyph glyph-name="iogonek" unicode="&#x12f;" 
d="M87 120l168 -0.000976562v256h-156v120h282v-376h144v-120l-13 -56c-0.666992 -3.33301 -1 -6 -1 -8c0 -14.667 7.66699 -22 23 -22h46v-84h-80c-20 0 -38.333 6.33301 -55 19s-25 31.334 -25 56.001c0 6 1 13.667 3 23l16 72h-352v120zM412 642.999
c0 -13.333 -2.5 -25.833 -7.5 -37.5s-11.833 -21.667 -20.5 -30s-18.834 -15 -30.501 -20s-23.834 -7.5 -36.501 -7.5c-13.333 0 -25.666 2.5 -36.999 7.5s-21.333 11.667 -30 20s-15.5 18.333 -20.5 30s-7.5 24.167 -7.5 37.5s2.5 25.833 7.5 37.5s11.833 21.667 20.5 30
s18.667 15 30 20s23.666 7.5 36.999 7.5c12.667 0 24.834 -2.5 36.501 -7.5s21.834 -11.667 30.501 -20s15.5 -18.333 20.5 -30s7.5 -24.167 7.5 -37.5z" />
    <glyph glyph-name="Idotaccent" unicode="&#x130;" 
d="M72 700h468v-126h-168v-448h168v-126h-468v126h168v448h-168v126zM401 873c0 -13.333 -2.5 -25.833 -7.5 -37.5s-11.833 -21.667 -20.5 -30s-18.834 -15 -30.501 -20s-23.834 -7.5 -36.501 -7.5c-13.333 0 -25.666 2.5 -36.999 7.5s-21.333 11.667 -30 20
s-15.5 18.333 -20.5 30s-7.5 24.167 -7.5 37.5s2.5 25.833 7.5 37.5s11.833 21.667 20.5 30s18.667 15 30 20s23.666 7.5 36.999 7.5c12.667 0 24.834 -2.5 36.501 -7.5s21.834 -11.667 30.501 -20s15.5 -18.333 20.5 -30s7.5 -24.167 7.5 -37.5z" />
    <glyph glyph-name="dotlessi" unicode="&#x131;" 
d="M87 120h168v256h-156v120h282v-376h144v-120h-438v120z" />
    <glyph glyph-name="IJ" unicode="&#x132;" 
d="M190 700v-358h-132v358h132zM514 210c0 -72.667 -19.6641 -128.168 -58.9971 -166.501s-93.333 -57.5 -162 -57.5c-35.333 0 -67.333 4.83301 -96 14.5s-53.334 24 -74.001 43s-36.667 42.333 -48 70s-17 59.834 -17 96.501v66h132v-66
c0 -31.333 8.66699 -55.833 26 -73.5s41.666 -26.5 72.999 -26.5c29.333 0 52.166 8.66699 68.499 26s24.5 42 24.5 74v366h-72v124h264v-124h-60v-366z" />
    <glyph glyph-name="ij" unicode="&#x133;" 
d="M411 496l126 0.000976562v-618c0 -22.667 -7.16699 -41.334 -21.5 -56.001s-32.833 -22 -55.5 -22h-259v120h183c18 0 27 10 27 30v122h-18c-22 -57.333 -69.333 -86 -142 -86c-24.667 0 -47.667 4 -69 12s-40 20.333 -56 37s-28.5 37.5 -37.5 62.5
s-13.5 54.5 -13.5 88.5v310h126v-284c0 -35.333 8.33301 -62.833 25 -82.5s41.667 -29.5 75 -29.5c38 0 65.833 12.167 83.5 36.5s26.5 57.5 26.5 99.5v260zM569 643.001c0 -13.333 -2.5 -25.833 -7.5 -37.5s-11.833 -21.667 -20.5 -30s-18.834 -15 -30.501 -20
s-23.834 -7.5 -36.501 -7.5c-13.333 0 -25.666 2.5 -36.999 7.5s-21.333 11.667 -30 20s-15.5 18.333 -20.5 30s-7.5 24.167 -7.5 37.5s2.5 25.833 7.5 37.5s11.833 21.667 20.5 30s18.667 15 30 20s23.666 7.5 36.999 7.5c12.667 0 24.834 -2.5 36.501 -7.5
s21.834 -11.667 30.501 -20s15.5 -18.333 20.5 -30s7.5 -24.167 7.5 -37.5zM233 643.001c0 -13.333 -2.5 -25.833 -7.5 -37.5s-11.833 -21.667 -20.5 -30s-18.834 -15 -30.501 -20s-23.834 -7.5 -36.501 -7.5c-13.333 0 -25.666 2.5 -36.999 7.5s-21.333 11.667 -30 20
s-15.5 18.333 -20.5 30s-7.5 24.167 -7.5 37.5s2.5 25.833 7.5 37.5s11.833 21.667 20.5 30s18.667 15 30 20s23.666 7.5 36.999 7.5c12.667 0 24.834 -2.5 36.501 -7.5s21.834 -11.667 30.501 -20s15.5 -18.333 20.5 -30s7.5 -24.167 7.5 -37.5z" />
    <glyph glyph-name="Jcircumflex" unicode="&#x134;" 
d="M517 210c0 -72.667 -19.6641 -128.168 -58.9971 -166.501s-93.333 -57.5 -162 -57.5c-35.333 0 -67.333 4.83301 -96 14.5s-53.334 24 -74.001 43s-36.667 42.333 -48 70s-17 59.834 -17 96.501v66h132v-66c0 -31.333 8.66699 -55.833 26 -73.5
s41.666 -26.5 72.999 -26.5c29.333 0 52.166 8.66699 68.499 26s24.5 42 24.5 74v366h-72v124h264v-124h-60v-366zM500.003 773.999l-43 88h-12l-43 -88h-121l84 136h172l84 -136h-121z" />
    <glyph glyph-name="jcircumflex" unicode="&#x135;" 
d="M138 496l318 0.000976562v-594c0 -34.667 -9.33301 -60.334 -28 -77.001s-43 -25 -73 -25h-235v120h180c20 0 30 11 30 33v423h-192v120zM346 570.001l-43 88h-12l-43 -88h-121l84 136h172l84 -136h-121z" />
    <glyph glyph-name="uni0136" unicode="&#x136;" 
d="M408 -248c0 -25.333 -8.66797 -46.667 -26.001 -64s-38.666 -26 -63.999 -26h-60v78h45c18 0 27 10 27 30v12h-9c-12 0 -23.167 2.33301 -33.5 7s-19.5 11 -27.5 19s-14.333 17.167 -19 27.5s-7 21.5 -7 33.5s2.33301 23.167 7 33.5s11 19.5 19 27.5
s17.167 14.333 27.5 19s21.5 7 33.5 7s23.167 -2.33301 33.5 -7s19.5 -11 27.5 -19s14.333 -17.167 19 -27.5s7 -21.5 7 -33.5v-117zM208.999 -0.000976562h-132v700h132v-287h29l185 287h149v-6l-216 -335v-18l228 -335v-6h-155l-191 287h-29v-287z" />
    <glyph glyph-name="uni0137" unicode="&#x137;" 
d="M413 -248c0 -25.333 -8.66797 -46.667 -26.001 -64s-38.666 -26 -63.999 -26h-60v78h45c18 0 27 10 27 30v12h-9c-12 0 -23.167 2.33301 -33.5 7s-19.5 11 -27.5 19s-14.333 17.167 -19 27.5s-7 21.5 -7 33.5s2.33301 23.167 7 33.5s11 19.5 19 27.5
s17.167 14.333 27.5 19s21.5 7 33.5 7s23.167 -2.33301 33.5 -7s19.5 -11 27.5 -19s14.333 -17.167 19 -27.5s7 -21.5 7 -33.5v-117zM243.999 313.999h24l132 182h138v-6l-160 -227v-18l176 -239v-6h-144l-142 194h-24v-194h-126v700h126v-386z" />
    <glyph glyph-name="kgreenlandic" unicode="&#x138;" 
d="M244 496v-182h24l132 182h138v-6l-160 -227v-18l176 -239v-6h-144l-142 194h-24v-194h-126v496h126z" />
    <glyph glyph-name="Lacute" unicode="&#x139;" 
d="M82 700h132v-574h318v-126h-450v700zM150 910h134l-84 -136h-102z" />
    <glyph glyph-name="lacute" unicode="&#x13a;" 
d="M75 120h174v460h-168v120h294v-580h162v-120h-462v120zM313 914h134l-84 -136h-102z" />
    <glyph glyph-name="uni013B" unicode="&#x13b;" 
d="M394 -248c0 -25.333 -8.66797 -46.667 -26.001 -64s-38.666 -26 -63.999 -26h-60v78h45c18 0 27 10 27 30v12h-9c-12 0 -23.167 2.33301 -33.5 7s-19.5 11 -27.5 19s-14.333 17.167 -19 27.5s-7 21.5 -7 33.5s2.33301 23.167 7 33.5s11 19.5 19 27.5
s17.167 14.333 27.5 19s21.5 7 33.5 7s23.167 -2.33301 33.5 -7s19.5 -11 27.5 -19s14.333 -17.167 19 -27.5s7 -21.5 7 -33.5v-117zM81.999 699.999h132v-574h318v-126h-450v700z" />
    <glyph glyph-name="uni013C" unicode="&#x13c;" 
d="M399 -248c0 -25.333 -8.66797 -46.667 -26.001 -64s-38.666 -26 -63.999 -26h-60v78h45c18 0 27 10 27 30v12h-9c-12 0 -23.167 2.33301 -33.5 7s-19.5 11 -27.5 19s-14.333 17.167 -19 27.5s-7 21.5 -7 33.5s2.33301 23.167 7 33.5s11 19.5 19 27.5
s17.167 14.333 27.5 19s21.5 7 33.5 7s23.167 -2.33301 33.5 -7s19.5 -11 27.5 -19s14.333 -17.167 19 -27.5s7 -21.5 7 -33.5v-117zM74.999 119.999h174v460h-168v120h294v-580h162v-120h-462v120z" />
    <glyph glyph-name="Lcaron" unicode="&#x13d;" 
d="M531 496c0 -25.333 -8.66797 -46.667 -26.001 -64s-38.666 -26 -63.999 -26h-60v78h45c18 0 27 10 27 30v12h-9c-12 0 -23.167 2.33301 -33.5 7s-19.5 11 -27.5 19s-14.333 17.167 -19 27.5s-7 21.5 -7 33.5s2.33301 23.167 7 33.5s11 19.5 19 27.5
s17.167 14.333 27.5 19s21.5 7 33.5 7s23.167 -2.33301 33.5 -7s19.5 -11 27.5 -19s14.333 -17.167 19 -27.5s7 -21.5 7 -33.5v-117zM81.999 699.999h132v-574h318v-126h-450v700z" />
    <glyph glyph-name="lcaron" unicode="&#x13e;" 
d="M547 496c0 -25.333 -8.66797 -46.667 -26.001 -64s-38.666 -26 -63.999 -26h-60v78h45c18 0 27 10 27 30v12h-9c-12 0 -23.167 2.33301 -33.5 7s-19.5 11 -27.5 19s-14.333 17.167 -19 27.5s-7 21.5 -7 33.5s2.33301 23.167 7 33.5s11 19.5 19 27.5
s17.167 14.333 27.5 19s21.5 7 33.5 7s23.167 -2.33301 33.5 -7s19.5 -11 27.5 -19s14.333 -17.167 19 -27.5s7 -21.5 7 -33.5v-117zM42.999 119.999h174v460h-168v120h294v-580h162v-120h-462v120z" />
    <glyph glyph-name="Ldot" unicode="&#x13f;" 
d="M82 700h132v-574h318v-126h-450v700zM532 350c0 -13.333 -2.5 -25.833 -7.5 -37.5s-11.833 -21.667 -20.5 -30s-18.834 -15 -30.501 -20s-23.834 -7.5 -36.501 -7.5c-13.333 0 -25.666 2.5 -36.999 7.5s-21.333 11.667 -30 20s-15.5 18.333 -20.5 30
s-7.5 24.167 -7.5 37.5s2.5 25.833 7.5 37.5s11.833 21.667 20.5 30s18.667 15 30 20s23.666 7.5 36.999 7.5c12.667 0 24.834 -2.5 36.501 -7.5s21.834 -11.667 30.501 -20s15.5 -18.333 20.5 -30s7.5 -24.167 7.5 -37.5z" />
    <glyph glyph-name="ldot" unicode="&#x140;" 
d="M51 120h174v460h-168v120h294v-580h162v-120h-462v120zM577 350c0 -13.333 -2.5 -25.833 -7.5 -37.5s-11.833 -21.667 -20.5 -30s-18.834 -15 -30.501 -20s-23.834 -7.5 -36.501 -7.5c-13.333 0 -25.666 2.5 -36.999 7.5s-21.333 11.667 -30 20s-15.5 18.333 -20.5 30
s-7.5 24.167 -7.5 37.5s2.5 25.833 7.5 37.5s11.833 21.667 20.5 30s18.667 15 30 20s23.666 7.5 36.999 7.5c12.667 0 24.834 -2.5 36.501 -7.5s21.834 -11.667 30.501 -20s15.5 -18.333 20.5 -30s7.5 -24.167 7.5 -37.5z" />
    <glyph glyph-name="Lslash" unicode="&#x141;" 
d="M92 234l-38 -19l-54 107l92 46v332h132v-265l53 27l54 -107l-107 -54v-175h318v-126h-450v234z" />
    <glyph glyph-name="lslash" unicode="&#x142;" 
d="M75 120h174v115l-41 -20l-54 107l95 48v210h-168v120h294v-267l56 29l54 -107l-110 -56v-179h162v-120h-462v120z" />
    <glyph glyph-name="Nacute" unicode="&#x143;" 
d="M401 66h18v634h132v-700h-258l-82 634h-18v-634h-132v700h258zM369 910h134l-84 -136h-102z" />
    <glyph glyph-name="nacute" unicode="&#x144;" 
d="M204 0l-126 0.000976562v496h126v-74h18c11.333 28 29.666 49.667 54.999 65s55 23 89 23c24 0 46.5 -3.83301 67.5 -11.5s39.5 -19.5 55.5 -35.5s28.5 -36.333 37.5 -61s13.5 -54 13.5 -88v-314h-126v282c0 35.333 -8.5 63.166 -25.5 83.499s-41.5 30.5 -73.5 30.5
c-37.333 0 -65.166 -12.5 -83.499 -37.5s-27.5 -58.5 -27.5 -100.5v-258zM367 706.001h134l-84 -136h-102z" />
    <glyph glyph-name="uni0145" unicode="&#x145;" 
d="M393 -248c0 -25.333 -8.66797 -46.667 -26.001 -64s-38.666 -26 -63.999 -26h-60v78h45c18 0 27 10 27 30v12h-9c-12 0 -23.167 2.33301 -33.5 7s-19.5 11 -27.5 19s-14.333 17.167 -19 27.5s-7 21.5 -7 33.5s2.33301 23.167 7 33.5s11 19.5 19 27.5
s17.167 14.333 27.5 19s21.5 7 33.5 7s23.167 -2.33301 33.5 -7s19.5 -11 27.5 -19s14.333 -17.167 19 -27.5s7 -21.5 7 -33.5v-117zM400.999 65.999h18v634h132v-700h-258l-82 634h-18v-634h-132v700h258z" />
    <glyph glyph-name="uni0146" unicode="&#x146;" 
d="M402 -248c0 -25.333 -8.66797 -46.667 -26.001 -64s-38.666 -26 -63.999 -26h-60v78h45c18 0 27 10 27 30v12h-9c-12 0 -23.167 2.33301 -33.5 7s-19.5 11 -27.5 19s-14.333 17.167 -19 27.5s-7 21.5 -7 33.5s2.33301 23.167 7 33.5s11 19.5 19 27.5
s17.167 14.333 27.5 19s21.5 7 33.5 7s23.167 -2.33301 33.5 -7s19.5 -11 27.5 -19s14.333 -17.167 19 -27.5s7 -21.5 7 -33.5v-117zM203.999 -0.000976562l-126 0.000976562v496h126v-74h18c11.333 28 29.666 49.667 54.999 65s55 23 89 23c24 0 46.5 -3.83301 67.5 -11.5
s39.5 -19.5 55.5 -35.5s28.5 -36.333 37.5 -61s13.5 -54 13.5 -88v-314h-126v282c0 35.333 -8.5 63.166 -25.5 83.499s-41.5 30.5 -73.5 30.5c-37.333 0 -65.166 -12.5 -83.499 -37.5s-27.5 -58.5 -27.5 -100.5v-258z" />
    <glyph glyph-name="Ncaron" unicode="&#x147;" 
d="M401 66h18v634h132v-700h-258l-82 634h-18v-634h-132v700h258zM538 910l-84 -136h-172l-84 136h121l43 -88h12l43 88h121z" />
    <glyph glyph-name="ncaron" unicode="&#x148;" 
d="M204 0l-126 0.000976562v496h126v-74h18c11.333 28 29.666 49.667 54.999 65s55 23 89 23c24 0 46.5 -3.83301 67.5 -11.5s39.5 -19.5 55.5 -35.5s28.5 -36.333 37.5 -61s13.5 -54 13.5 -88v-314h-126v282c0 35.333 -8.5 63.166 -25.5 83.499s-41.5 30.5 -73.5 30.5
c-37.333 0 -65.166 -12.5 -83.499 -37.5s-27.5 -58.5 -27.5 -100.5v-258zM536 706.001l-84 -136h-172l-84 136h121l43 -88h12l43 88h121z" />
    <glyph glyph-name="napostrophe" unicode="&#x149;" 
d="M228 628c0 -25.333 -8.66797 -46.667 -26.001 -64s-38.666 -26 -63.999 -26h-60v78h45c18 0 27 10 27 30v6h-9c-12 0 -23.167 2.33301 -33.5 7s-19.5 11 -27.5 19s-14.333 17.167 -19 27.5s-7 21.5 -7 33.5s2.33301 23.167 7 33.5s11 19.5 19 27.5s17.167 14.333 27.5 19
s21.5 7 33.5 7s23.167 -2.33301 33.5 -7s19.5 -11 27.5 -19s14.333 -17.167 19 -27.5s7 -21.5 7 -33.5v-111zM203.999 -0.000976562l-126 0.000976562v496h126v-74h18c11.333 28 29.666 49.667 54.999 65s55 23 89 23c24 0 46.5 -3.83301 67.5 -11.5s39.5 -19.5 55.5 -35.5
s28.5 -36.333 37.5 -61s13.5 -54 13.5 -88v-314h-126v282c0 35.333 -8.5 63.166 -25.5 83.499s-41.5 30.5 -73.5 30.5c-37.333 0 -65.166 -12.5 -83.499 -37.5s-27.5 -58.5 -27.5 -100.5v-258z" />
    <glyph glyph-name="Eng" unicode="&#x14a;" 
d="M401 66l18 0.000976562v634h132v-798c0 -34.667 -9.33301 -60.334 -28 -77.001s-43 -25 -73 -25h-206v126h145c20 0 30 11 30 33v41h-124l-84 634h-18v-634h-132v700h256z" />
    <glyph glyph-name="eng" unicode="&#x14b;" 
d="M201 0l-126 0.00195312v496h126v-74h18c11.333 28 29.666 49.667 54.999 65s55 23 89 23c24 0 46.5 -3.83301 67.5 -11.5s39.5 -19.5 55.5 -35.5s28.5 -36.333 37.5 -61s13.5 -54 13.5 -88v-412c0 -34.667 -9.33301 -60.334 -28 -77.001s-43 -25 -73 -25h-124v120h69
c20 0 30 11 30 33v329c0 35.333 -8.5 63.166 -25.5 83.499s-41.5 30.5 -73.5 30.5c-37.333 0 -65.166 -12.5 -83.499 -37.5s-27.5 -58.5 -27.5 -100.5v-258z" />
    <glyph glyph-name="Omacron" unicode="&#x14c;" 
d="M48 428c0 90.667 22.833 161 68.5 211s108.834 75 189.501 75s143.834 -25 189.501 -75s68.5 -120.333 68.5 -211v-156c0 -93.333 -22.833 -164.333 -68.5 -213s-108.834 -73 -189.501 -73s-143.834 24.333 -189.501 73s-68.5 119.667 -68.5 213v156zM306 106
c24 0 44 3.83301 60 11.5s29 18.5 39 32.5s17 30.667 21 50s6 40.666 6 63.999v172c0 22 -2.33301 42.667 -7 62s-12 36 -22 50s-23 25.167 -39 33.5s-35.333 12.5 -58 12.5s-42 -4.16699 -58 -12.5s-29 -19.5 -39 -33.5s-17.333 -30.667 -22 -50s-7 -40 -7 -62v-172
c0 -23.333 2 -44.666 6 -63.999s11 -36 21 -50s23 -24.833 39 -32.5s36 -11.5 60 -11.5zM453 774h-294v102h294v-102z" />
    <glyph glyph-name="omacron" unicode="&#x14d;" 
d="M564 242c0 -41.333 -7 -77.833 -21 -109.5s-33 -58.334 -57 -80.001s-51.5 -38.167 -82.5 -49.5s-63.5 -17 -97.5 -17s-66.5 5.66699 -97.5 17s-58.5 27.833 -82.5 49.5s-43 48.334 -57 80.001s-21 68.167 -21 109.5v12c0 40.667 7 76.834 21 108.501s33 58.5 57 80.5
s51.5 38.667 82.5 50s63.5 17 97.5 17s66.5 -5.66699 97.5 -17s58.5 -28 82.5 -50s43 -48.833 57 -80.5s21 -67.834 21 -108.501v-12zM306 106c18 0 35 3 51 9s30 14.667 42 26s21.5 25.166 28.5 41.499s10.5 34.833 10.5 55.5v20c0 20.667 -3.5 39.167 -10.5 55.5
s-16.5 30.166 -28.5 41.499s-26 20 -42 26s-33 9 -51 9s-35 -3 -51 -9s-30 -14.667 -42 -26s-21.5 -25.166 -28.5 -41.499s-10.5 -34.833 -10.5 -55.5v-20c0 -20.667 3.5 -39.167 10.5 -55.5s16.5 -30.166 28.5 -41.499s26 -20 42 -26s33 -9 51 -9zM453 570h-294v102h294
v-102z" />
    <glyph glyph-name="Obreve" unicode="&#x14e;" 
d="M48 428c0 90.667 22.833 161 68.5 211s108.834 75 189.501 75s143.834 -25 189.501 -75s68.5 -120.333 68.5 -211v-156c0 -93.333 -22.833 -164.333 -68.5 -213s-108.834 -73 -189.501 -73s-143.834 24.333 -189.501 73s-68.5 119.667 -68.5 213v156zM306 106
c24 0 44 3.83301 60 11.5s29 18.5 39 32.5s17 30.667 21 50s6 40.666 6 63.999v172c0 22 -2.33301 42.667 -7 62s-12 36 -22 50s-23 25.167 -39 33.5s-35.333 12.5 -58 12.5s-42 -4.16699 -58 -12.5s-29 -19.5 -39 -33.5s-17.333 -30.667 -22 -50s-7 -40 -7 -62v-172
c0 -23.333 2 -44.666 6 -63.999s11 -36 21 -50s23 -24.833 39 -32.5s36 -11.5 60 -11.5zM438 910l-0.00195312 -14c0 -38 -12.167 -67.833 -36.5 -89.5s-56.166 -32.5 -95.499 -32.5s-71.166 10.833 -95.499 32.5s-36.5 51.5 -36.5 89.5v14h90v-6c0 -12 3.5 -22 10.5 -30
s17.5 -12 31.5 -12s24.5 4 31.5 12s10.5 18 10.5 30v6h90z" />
    <glyph glyph-name="obreve" unicode="&#x14f;" 
d="M564 242c0 -41.333 -7 -77.833 -21 -109.5s-33 -58.334 -57 -80.001s-51.5 -38.167 -82.5 -49.5s-63.5 -17 -97.5 -17s-66.5 5.66699 -97.5 17s-58.5 27.833 -82.5 49.5s-43 48.334 -57 80.001s-21 68.167 -21 109.5v12c0 40.667 7 76.834 21 108.501s33 58.5 57 80.5
s51.5 38.667 82.5 50s63.5 17 97.5 17s66.5 -5.66699 97.5 -17s58.5 -28 82.5 -50s43 -48.833 57 -80.5s21 -67.834 21 -108.501v-12zM306 106c18 0 35 3 51 9s30 14.667 42 26s21.5 25.166 28.5 41.499s10.5 34.833 10.5 55.5v20c0 20.667 -3.5 39.167 -10.5 55.5
s-16.5 30.166 -28.5 41.499s-26 20 -42 26s-33 9 -51 9s-35 -3 -51 -9s-30 -14.667 -42 -26s-21.5 -25.166 -28.5 -41.499s-10.5 -34.833 -10.5 -55.5v-20c0 -20.667 3.5 -39.167 10.5 -55.5s16.5 -30.166 28.5 -41.499s26 -20 42 -26s33 -9 51 -9zM438 700l-0.00195312 -14
c0 -38 -12.167 -67.833 -36.5 -89.5s-56.166 -32.5 -95.499 -32.5s-71.166 10.833 -95.499 32.5s-36.5 51.5 -36.5 89.5v14h90v-6c0 -12 3.5 -22 10.5 -30s17.5 -12 31.5 -12s24.5 4 31.5 12s10.5 18 10.5 30v6h90z" />
    <glyph glyph-name="Ohungarumlaut" unicode="&#x150;" 
d="M48 428c0 90.667 22.833 161 68.5 211s108.834 75 189.501 75s143.834 -25 189.501 -75s68.5 -120.333 68.5 -211v-156c0 -93.333 -22.833 -164.333 -68.5 -213s-108.834 -73 -189.501 -73s-143.834 24.333 -189.501 73s-68.5 119.667 -68.5 213v156zM306 106
c24 0 44 3.83301 60 11.5s29 18.5 39 32.5s17 30.667 21 50s6 40.666 6 63.999v172c0 22 -2.33301 42.667 -7 62s-12 36 -22 50s-23 25.167 -39 33.5s-35.333 12.5 -58 12.5s-42 -4.16699 -58 -12.5s-29 -19.5 -39 -33.5s-17.333 -30.667 -22 -50s-7 -40 -7 -62v-172
c0 -23.333 2 -44.666 6 -63.999s11 -36 21 -50s23 -24.833 39 -32.5s36 -11.5 60 -11.5zM217 910h134l-84 -136h-102zM384 910h134l-84 -136h-102z" />
    <glyph glyph-name="ohungarumlaut" unicode="&#x151;" 
d="M564 242c0 -41.333 -7 -77.833 -21 -109.5s-33 -58.334 -57 -80.001s-51.5 -38.167 -82.5 -49.5s-63.5 -17 -97.5 -17s-66.5 5.66699 -97.5 17s-58.5 27.833 -82.5 49.5s-43 48.334 -57 80.001s-21 68.167 -21 109.5v12c0 40.667 7 76.834 21 108.501s33 58.5 57 80.5
s51.5 38.667 82.5 50s63.5 17 97.5 17s66.5 -5.66699 97.5 -17s58.5 -28 82.5 -50s43 -48.833 57 -80.5s21 -67.834 21 -108.501v-12zM306 106c18 0 35 3 51 9s30 14.667 42 26s21.5 25.166 28.5 41.499s10.5 34.833 10.5 55.5v20c0 20.667 -3.5 39.167 -10.5 55.5
s-16.5 30.166 -28.5 41.499s-26 20 -42 26s-33 9 -51 9s-35 -3 -51 -9s-30 -14.667 -42 -26s-21.5 -25.166 -28.5 -41.499s-10.5 -34.833 -10.5 -55.5v-20c0 -20.667 3.5 -39.167 10.5 -55.5s16.5 -30.166 28.5 -41.499s26 -20 42 -26s33 -9 51 -9zM218 706h134l-84 -136
h-102zM385 706h134l-84 -136h-102z" />
    <glyph glyph-name="OE" unicode="&#x152;" 
d="M282 0c-80.667 0 -143.834 24.333 -189.501 73s-68.5 119.667 -68.5 213v128c0 90.667 22.833 161 68.5 211s108.834 75 189.501 75h304v-126h-172v-160h166v-126h-166v-162h178v-126h-310zM282 574c-22.667 0 -42 -3.83301 -58 -11.5s-29 -18.167 -39 -31.5
s-17.333 -29.333 -22 -48s-7 -39 -7 -61v-144c0 -47.333 9 -84.5 27 -111.5s51 -40.5 99 -40.5v448z" />
    <glyph glyph-name="oe" unicode="&#x153;" 
d="M44 254c0 39.333 7.33398 74.832 22.001 106.499s34.167 58.5 58.5 80.5s52.5 39 84.5 51s65.667 18 101 18h6c39.333 0 74.666 -6 105.999 -18s57.833 -28.667 79.5 -50s38.167 -46.5 49.5 -75.5s17 -60.5 17 -94.5v-84h-192v-78c16 0 30.5 3.5 43.5 10.5
s22.5 17.5 28.5 31.5l102 -64c-20 -36 -49.5 -62 -88.5 -78s-86.833 -24 -143.5 -24h-6c-34 0 -67.167 5.66699 -99.5 17s-61 27.833 -86 49.5s-45 48.334 -60 80.001s-22.5 68.167 -22.5 109.5v12zM170.001 247.999c0 -33.333 7 -61.167 21 -83.5s33.667 -38.5 59 -48.5
v266c-25.333 -10 -45 -26.5 -59 -49.5s-21 -51.167 -21 -84.5zM442.001 307.998c0 22 -6 39.668 -18 53.001s-28 21.666 -48 24.999v-78h66z" />
    <glyph glyph-name="Racute" unicode="&#x154;" 
d="M543 0l-132 -0.000976562v210c0 16 -4.16699 29 -12.5 39s-22.166 15 -41.499 15h-152v-264h-132v700h268c36 0 67.667 -5 95 -15s50.166 -23.833 68.499 -41.5s32.333 -38.167 42 -61.5s14.5 -48.333 14.5 -75v-24c0 -28.667 -7.66699 -55.5 -23 -80.5
s-39 -44.167 -71 -57.5v-18c23.333 -2.66699 41.833 -11.667 55.5 -27s20.5 -34.666 20.5 -57.999v-242zM205 389.999h126c32 0 56.333 7.5 73 22.5s25 36.167 25 63.5v12c0 23.333 -8.33301 43.5 -25 60.5s-41 25.5 -73 25.5h-126v-184zM289 909.999h134l-84 -136h-102z
" />
    <glyph glyph-name="racute" unicode="&#x155;" 
d="M54 496l210.002 0.000976562v-72h18c9.33301 27.333 25.166 48.5 47.499 63.5s49.166 22.5 80.499 22.5c49.333 0 89 -15.5 119 -46.5s45 -78.167 45 -141.5v-22l-130 -12v14c0 27.333 -7 49.166 -21 65.499s-35 24.5 -63 24.5s-50 -9.66699 -66 -29s-24 -47 -24 -83
v-160h114v-120h-342v120h102v256h-90v120zM411.002 706.001h134l-84 -136h-102z" />
    <glyph glyph-name="uni0156" unicode="&#x156;" 
d="M395 -248c0 -25.333 -8.66797 -46.667 -26.001 -64s-38.666 -26 -63.999 -26h-60v78h45c18 0 27 10 27 30v12h-9c-12 0 -23.167 2.33301 -33.5 7s-19.5 11 -27.5 19s-14.333 17.167 -19 27.5s-7 21.5 -7 33.5s2.33301 23.167 7 33.5s11 19.5 19 27.5
s17.167 14.333 27.5 19s21.5 7 33.5 7s23.167 -2.33301 33.5 -7s19.5 -11 27.5 -19s14.333 -17.167 19 -27.5s7 -21.5 7 -33.5v-117zM542.999 -0.000976562l-132 -0.000976562v210c0 16 -4.16699 29 -12.5 39s-22.166 15 -41.499 15h-152v-264h-132v700h268
c36 0 67.667 -5 95 -15s50.166 -23.833 68.499 -41.5s32.333 -38.167 42 -61.5s14.5 -48.333 14.5 -75v-24c0 -28.667 -7.66699 -55.5 -23 -80.5s-39 -44.167 -71 -57.5v-18c23.333 -2.66699 41.833 -11.667 55.5 -27s20.5 -34.666 20.5 -57.999v-242zM204.999 389.998h126
c32 0 56.333 7.5 73 22.5s25 36.167 25 63.5v12c0 23.333 -8.33301 43.5 -25 60.5s-41 25.5 -73 25.5h-126v-184z" />
    <glyph glyph-name="uni0157" unicode="&#x157;" 
d="M294 -248c0 -25.333 -8.66797 -46.667 -26.001 -64s-38.666 -26 -63.999 -26h-60v78h45c18 0 27 10 27 30v12h-9c-12 0 -23.167 2.33301 -33.5 7s-19.5 11 -27.5 19s-14.333 17.167 -19 27.5s-7 21.5 -7 33.5s2.33301 23.167 7 33.5s11 19.5 19 27.5
s17.167 14.333 27.5 19s21.5 7 33.5 7s23.167 -2.33301 33.5 -7s19.5 -11 27.5 -19s14.333 -17.167 19 -27.5s7 -21.5 7 -33.5v-117zM53.999 495.999l210.002 0.000976562v-72h18c9.33301 27.333 25.166 48.5 47.499 63.5s49.166 22.5 80.499 22.5
c49.333 0 89 -15.5 119 -46.5s45 -78.167 45 -141.5v-22l-130 -12v14c0 27.333 -7 49.166 -21 65.499s-35 24.5 -63 24.5s-50 -9.66699 -66 -29s-24 -47 -24 -83v-160h114v-120h-342v120h102v256h-90v120z" />
    <glyph glyph-name="Rcaron" unicode="&#x158;" 
d="M543 0l-132 -0.000976562v210c0 16 -4.16699 29 -12.5 39s-22.166 15 -41.499 15h-152v-264h-132v700h268c36 0 67.667 -5 95 -15s50.166 -23.833 68.499 -41.5s32.333 -38.167 42 -61.5s14.5 -48.333 14.5 -75v-24c0 -28.667 -7.66699 -55.5 -23 -80.5
s-39 -44.167 -71 -57.5v-18c23.333 -2.66699 41.833 -11.667 55.5 -27s20.5 -34.666 20.5 -57.999v-242zM205 389.999h126c32 0 56.333 7.5 73 22.5s25 36.167 25 63.5v12c0 23.333 -8.33301 43.5 -25 60.5s-41 25.5 -73 25.5h-126v-184zM462 909.999l-84 -136h-172l-84 136
h121l43 -88h12l43 88h121z" />
    <glyph glyph-name="rcaron" unicode="&#x159;" 
d="M54 496l210.002 0.000976562v-72h18c9.33301 27.333 25.166 48.5 47.499 63.5s49.166 22.5 80.499 22.5c49.333 0 89 -15.5 119 -46.5s45 -78.167 45 -141.5v-22l-130 -12v14c0 27.333 -7 49.166 -21 65.499s-35 24.5 -63 24.5s-50 -9.66699 -66 -29s-24 -47 -24 -83
v-160h114v-120h-342v120h102v256h-90v120zM471.002 706.001l-84 -136h-172l-84 136h121l43 -88h12l43 88h121z" />
    <glyph glyph-name="Sacute" unicode="&#x15a;" 
d="M426 486c0 28 -10.8369 52.333 -32.5039 73s-52.167 31 -91.5 31c-33.333 0 -59.666 -6.83301 -78.999 -20.5s-29 -32.167 -29 -55.5c0 -12 2.33301 -22.833 7 -32.5s12.834 -18.334 24.501 -26.001s27 -14.5 46 -20.5s43.167 -11.667 72.5 -17
c73.333 -13.333 129.333 -35.666 168 -66.999s58 -77.666 58 -138.999v-12c0 -32.667 -5.83301 -62.167 -17.5 -88.5s-28.5 -48.833 -50.5 -67.5s-48.667 -33 -80 -43s-66.666 -15 -105.999 -15c-46 0 -86.5 6.5 -121.5 19.5s-64.167 31 -87.5 54s-41 50 -53 81
s-18 64.833 -18 101.5v30h132v-24c0 -42 12.167 -75.5 36.5 -100.5s62.166 -37.5 113.499 -37.5c40 0 69.667 8.66699 89 26s29 38 29 62c0 11.333 -2 22.166 -6 32.499s-11 19.666 -21 27.999s-23.667 15.833 -41 22.5s-39.333 12.334 -66 17.001
c-35.333 6 -67.666 13.833 -96.999 23.5s-54.833 22.5 -76.5 38.5s-38.5 36 -50.5 60s-18 53.333 -18 88v6c0 28.667 5.83301 55.167 17.5 79.5s28 45.5 49 63.5s46.333 32 76 42s62.834 15 99.501 15c41.333 0 78 -5.83301 110 -17.5s58.833 -27.5 80.5 -47.5
s38 -43 49 -69s16.5 -53.333 16.5 -82v-36h-132v24zM302.996 910h134l-84 -136h-102z" />
    <glyph glyph-name="sacute" unicode="&#x15b;" 
d="M236 356c0 -16 8.33398 -27.501 25.001 -34.501s47 -12.833 91 -17.5c50.667 -5.33301 92 -20.5 124 -45.5s48 -59.833 48 -104.5v-6c0 -49.333 -18 -88.666 -54 -117.999s-86.667 -44 -152 -44c-38.667 0 -71.667 5 -99 15s-50 22.5 -68 37.5s-31.833 31.667 -41.5 50
s-16.167 36.166 -19.5 53.499l116 38c5.33301 -21.333 16.5 -40 33.5 -56s43.167 -24 78.5 -24c31.333 0 52.833 4.83301 64.5 14.5s17.5 20.167 17.5 31.5c0 6.66699 -1.5 12.834 -4.5 18.501s-8.5 11 -16.5 16s-18.833 9.16699 -32.5 12.5s-30.834 6 -51.501 8
c-56 4.66699 -100.5 19.167 -133.5 43.5s-49.5 60.166 -49.5 107.499v6c0 24.667 5.33301 46.334 16 65.001s24.667 34.5 42 47.5s37.333 22.833 60 29.5s46 10 70 10c31.333 0 58.5 -3.83301 81.5 -11.5s42.5 -17.667 58.5 -30s29 -26 39 -41s17.667 -29.5 23 -43.5
l-114 -46c-6 18 -16.333 32.167 -31 42.5s-33.667 15.5 -57 15.5c-21.333 0 -37.333 -3.83301 -48 -11.5s-16 -17.167 -16 -28.5zM303.001 705.999h134l-84 -136h-102z" />
    <glyph glyph-name="Scircumflex" unicode="&#x15c;" 
d="M426 486c0 28 -10.8369 52.333 -32.5039 73s-52.167 31 -91.5 31c-33.333 0 -59.666 -6.83301 -78.999 -20.5s-29 -32.167 -29 -55.5c0 -12 2.33301 -22.833 7 -32.5s12.834 -18.334 24.501 -26.001s27 -14.5 46 -20.5s43.167 -11.667 72.5 -17
c73.333 -13.333 129.333 -35.666 168 -66.999s58 -77.666 58 -138.999v-12c0 -32.667 -5.83301 -62.167 -17.5 -88.5s-28.5 -48.833 -50.5 -67.5s-48.667 -33 -80 -43s-66.666 -15 -105.999 -15c-46 0 -86.5 6.5 -121.5 19.5s-64.167 31 -87.5 54s-41 50 -53 81
s-18 64.833 -18 101.5v30h132v-24c0 -42 12.167 -75.5 36.5 -100.5s62.166 -37.5 113.499 -37.5c40 0 69.667 8.66699 89 26s29 38 29 62c0 11.333 -2 22.166 -6 32.499s-11 19.666 -21 27.999s-23.667 15.833 -41 22.5s-39.333 12.334 -66 17.001
c-35.333 6 -67.666 13.833 -96.999 23.5s-54.833 22.5 -76.5 38.5s-38.5 36 -50.5 60s-18 53.333 -18 88v6c0 28.667 5.83301 55.167 17.5 79.5s28 45.5 49 63.5s46.333 32 76 42s62.834 15 99.501 15c41.333 0 78 -5.83301 110 -17.5s58.833 -27.5 80.5 -47.5
s38 -43 49 -69s16.5 -53.333 16.5 -82v-36h-132v24zM351.996 774l-43 88h-12l-43 -88h-121l84 136h172l84 -136h-121z" />
    <glyph glyph-name="scircumflex" unicode="&#x15d;" 
d="M236 356c0 -16 8.33398 -27.501 25.001 -34.501s47 -12.833 91 -17.5c50.667 -5.33301 92 -20.5 124 -45.5s48 -59.833 48 -104.5v-6c0 -49.333 -18 -88.666 -54 -117.999s-86.667 -44 -152 -44c-38.667 0 -71.667 5 -99 15s-50 22.5 -68 37.5s-31.833 31.667 -41.5 50
s-16.167 36.166 -19.5 53.499l116 38c5.33301 -21.333 16.5 -40 33.5 -56s43.167 -24 78.5 -24c31.333 0 52.833 4.83301 64.5 14.5s17.5 20.167 17.5 31.5c0 6.66699 -1.5 12.834 -4.5 18.501s-8.5 11 -16.5 16s-18.833 9.16699 -32.5 12.5s-30.834 6 -51.501 8
c-56 4.66699 -100.5 19.167 -133.5 43.5s-49.5 60.166 -49.5 107.499v6c0 24.667 5.33301 46.334 16 65.001s24.667 34.5 42 47.5s37.333 22.833 60 29.5s46 10 70 10c31.333 0 58.5 -3.83301 81.5 -11.5s42.5 -17.667 58.5 -30s29 -26 39 -41s17.667 -29.5 23 -43.5
l-114 -46c-6 18 -16.333 32.167 -31 42.5s-33.667 15.5 -57 15.5c-21.333 0 -37.333 -3.83301 -48 -11.5s-16 -17.167 -16 -28.5zM352.001 569.999l-43 88h-12l-43 -88h-121l84 136h172l84 -136h-121z" />
    <glyph glyph-name="Scedilla" unicode="&#x15e;" 
d="M426 486c0 28 -10.835 52.332 -32.502 72.999s-52.167 31 -91.5 31c-33.333 0 -59.666 -6.83301 -78.999 -20.5s-29 -32.167 -29 -55.5c0 -12 2.33301 -22.833 7 -32.5s12.834 -18.334 24.501 -26.001s27 -14.5 46 -20.5s43.167 -11.667 72.5 -17
c73.333 -13.333 129.333 -35.666 168 -66.999s58 -77.666 58 -138.999v-12c0 -32.667 -5.83301 -62.167 -17.5 -88.5s-28.5 -48.833 -50.5 -67.5s-48.667 -33 -80 -43s-66.666 -15 -105.999 -15h-10l-7 -32h12c3.33301 6 8.66602 11.167 15.999 15.5s17.333 6.5 30 6.5
c28 0 48.833 -8.66699 62.5 -26s20.5 -38 20.5 -62c0 -31.333 -10.5 -55.833 -31.5 -73.5s-47.167 -26.5 -78.5 -26.5c-19.333 0 -35.333 1.83301 -48 5.5s-24.667 8.5 -36 14.5l26 68c15.333 -9.33301 32 -14 50 -14c10 0 18.167 2.33301 24.5 7s9.5 11 9.5 19
c0 6 -1.66699 11.167 -5 15.5s-8.33301 6.5 -15 6.5c-11.333 0 -18 -4.66699 -20 -14h-97v12l18 86c-66.667 13.333 -116.834 42.333 -150.501 87s-50.5 98.334 -50.5 161.001v30h132v-24c0 -42 12.167 -75.5 36.5 -100.5s62.166 -37.5 113.499 -37.5
c40 0 69.667 8.66699 89 26s29 38 29 62c0 11.333 -2 22.166 -6 32.499s-11 19.666 -21 27.999s-23.667 15.833 -41 22.5s-39.333 12.334 -66 17.001c-35.333 6 -67.666 13.833 -96.999 23.5s-54.833 22.5 -76.5 38.5s-38.5 36 -50.5 60s-18 53.333 -18 88v6
c0 28.667 5.83301 55.167 17.5 79.5s28 45.5 49 63.5s46.333 32 76 42s62.834 15 99.501 15c41.333 0 78 -5.83301 110 -17.5s58.833 -27.5 80.5 -47.5s38 -43 49 -69s16.5 -53.333 16.5 -82v-36h-132v24z" />
    <glyph glyph-name="scedilla" unicode="&#x15f;" 
d="M236 356c0 -16 8.33496 -27.502 25.002 -34.502s47 -12.833 91 -17.5c50.667 -5.33301 92 -20.5 124 -45.5s48 -59.833 48 -104.5v-6c0 -49.333 -18 -88.666 -54 -117.999s-86.667 -44 -152 -44h-10l-7 -32h12c3.33301 6 8.66602 11.167 15.999 15.5s17.333 6.5 30 6.5
c28 0 48.833 -8.66699 62.5 -26s20.5 -38 20.5 -62c0 -31.333 -10.5 -55.833 -31.5 -73.5s-47.167 -26.5 -78.5 -26.5c-19.333 0 -35.333 1.83301 -48 5.5s-24.667 8.5 -36 14.5l26 68c15.333 -9.33301 32 -14 50 -14c10 0 18.167 2.33301 24.5 7s9.5 11 9.5 19
c0 6 -1.66699 11.167 -5 15.5s-8.33301 6.5 -15 6.5c-11.333 0 -18 -4.66699 -20 -14h-97v12l19 87c-24 6 -44.833 14.5 -62.5 25.5s-32.5 23.167 -44.5 36.5s-21.5 27.333 -28.5 42s-11.833 29 -14.5 43l116 38c5.33301 -21.333 16.5 -40 33.5 -56s43.167 -24 78.5 -24
c31.333 0 52.833 4.83301 64.5 14.5s17.5 20.167 17.5 31.5c0 6.66699 -1.5 12.834 -4.5 18.501s-8.5 11 -16.5 16s-18.833 9.16699 -32.5 12.5s-30.834 6 -51.501 8c-56 4.66699 -100.5 19.167 -133.5 43.5s-49.5 60.166 -49.5 107.499v6
c0 24.667 5.33301 46.334 16 65.001s24.667 34.5 42 47.5s37.333 22.833 60 29.5s46 10 70 10c31.333 0 58.5 -3.83301 81.5 -11.5s42.5 -17.667 58.5 -30s29 -26 39 -41s17.667 -29.5 23 -43.5l-114 -46c-6 18 -16.333 32.167 -31 42.5s-33.667 15.5 -57 15.5
c-21.333 0 -37.333 -3.83301 -48 -11.5s-16 -17.167 -16 -28.5z" />
    <glyph glyph-name="Scaron" unicode="&#x160;" 
d="M426 486c0 28 -10.8369 52.333 -32.5039 73s-52.167 31 -91.5 31c-33.333 0 -59.666 -6.83301 -78.999 -20.5s-29 -32.167 -29 -55.5c0 -12 2.33301 -22.833 7 -32.5s12.834 -18.334 24.501 -26.001s27 -14.5 46 -20.5s43.167 -11.667 72.5 -17
c73.333 -13.333 129.333 -35.666 168 -66.999s58 -77.666 58 -138.999v-12c0 -32.667 -5.83301 -62.167 -17.5 -88.5s-28.5 -48.833 -50.5 -67.5s-48.667 -33 -80 -43s-66.666 -15 -105.999 -15c-46 0 -86.5 6.5 -121.5 19.5s-64.167 31 -87.5 54s-41 50 -53 81
s-18 64.833 -18 101.5v30h132v-24c0 -42 12.167 -75.5 36.5 -100.5s62.166 -37.5 113.499 -37.5c40 0 69.667 8.66699 89 26s29 38 29 62c0 11.333 -2 22.166 -6 32.499s-11 19.666 -21 27.999s-23.667 15.833 -41 22.5s-39.333 12.334 -66 17.001
c-35.333 6 -67.666 13.833 -96.999 23.5s-54.833 22.5 -76.5 38.5s-38.5 36 -50.5 60s-18 53.333 -18 88v6c0 28.667 5.83301 55.167 17.5 79.5s28 45.5 49 63.5s46.333 32 76 42s62.834 15 99.501 15c41.333 0 78 -5.83301 110 -17.5s58.833 -27.5 80.5 -47.5
s38 -43 49 -69s16.5 -53.333 16.5 -82v-36h-132v24zM472.996 910l-84 -136h-172l-84 136h121l43 -88h12l43 88h121z" />
    <glyph glyph-name="scaron" unicode="&#x161;" 
d="M236 356c0 -16 8.33398 -27.501 25.001 -34.501s47 -12.833 91 -17.5c50.667 -5.33301 92 -20.5 124 -45.5s48 -59.833 48 -104.5v-6c0 -49.333 -18 -88.666 -54 -117.999s-86.667 -44 -152 -44c-38.667 0 -71.667 5 -99 15s-50 22.5 -68 37.5s-31.833 31.667 -41.5 50
s-16.167 36.166 -19.5 53.499l116 38c5.33301 -21.333 16.5 -40 33.5 -56s43.167 -24 78.5 -24c31.333 0 52.833 4.83301 64.5 14.5s17.5 20.167 17.5 31.5c0 6.66699 -1.5 12.834 -4.5 18.501s-8.5 11 -16.5 16s-18.833 9.16699 -32.5 12.5s-30.834 6 -51.501 8
c-56 4.66699 -100.5 19.167 -133.5 43.5s-49.5 60.166 -49.5 107.499v6c0 24.667 5.33301 46.334 16 65.001s24.667 34.5 42 47.5s37.333 22.833 60 29.5s46 10 70 10c31.333 0 58.5 -3.83301 81.5 -11.5s42.5 -17.667 58.5 -30s29 -26 39 -41s17.667 -29.5 23 -43.5
l-114 -46c-6 18 -16.333 32.167 -31 42.5s-33.667 15.5 -57 15.5c-21.333 0 -37.333 -3.83301 -48 -11.5s-16 -17.167 -16 -28.5zM476.001 705.999l-84 -136h-172l-84 136h121l43 -88h12l43 88h121z" />
    <glyph glyph-name="uni0162" unicode="&#x162;" 
d="M240 574h-185.999v126h504v-126h-186v-574h-62l-10 -46h12c3.33301 6 8.66602 11.167 15.999 15.5s17.333 6.5 30 6.5c28 0 48.833 -8.66699 62.5 -26s20.5 -38 20.5 -62c0 -31.333 -10.5 -55.833 -31.5 -73.5s-47.167 -26.5 -78.5 -26.5
c-19.333 0 -35.333 1.83301 -48 5.5s-24.667 8.5 -36 14.5l26 68c15.333 -9.33301 32 -14 50 -14c10 0 18.167 2.33301 24.5 7s9.5 11 9.5 19c0 6 -1.66699 11.167 -5 15.5s-8.33301 6.5 -15 6.5c-11.333 0 -18 -4.66699 -20 -14h-97v12l20 92v574z" />
    <glyph glyph-name="uni0163" unicode="&#x163;" 
d="M288 0c-22.667 0 -41.166 7.33203 -55.499 21.999s-21.5 33.334 -21.5 56.001v298h-147v120h147v204h126v-204h179v-120h-179v-226c0 -20 9 -30 27 -30h134v-120h-140l-10 -46h12c3.33301 6 8.66602 11.167 15.999 15.5s17.333 6.5 30 6.5c28 0 48.833 -8.66699 62.5 -26
s20.5 -38 20.5 -62c0 -31.333 -10.5 -55.833 -31.5 -73.5s-47.167 -26.5 -78.5 -26.5c-19.333 0 -35.333 1.83301 -48 5.5s-24.667 8.5 -36 14.5l26 68c15.333 -9.33301 32 -14 50 -14c10 0 18.167 2.33301 24.5 7s9.5 11 9.5 19c0 6 -1.66699 11.167 -5 15.5
s-8.33301 6.5 -15 6.5c-11.333 0 -18 -4.66699 -20 -14h-97v12l20 92v0z" />
    <glyph glyph-name="Tcaron" unicode="&#x164;" 
d="M54 700h504v-126h-186v-574h-132v574h-186v126zM476 910l-84 -136h-172l-84 136h121l43 -88h12l43 88h121z" />
    <glyph glyph-name="tcaron" unicode="&#x165;" 
d="M45 496l145 -0.000976562v204h128v-204h38v-120h-38v-226c0 -20 9 -30 27 -30h197v-120h-275c-22.667 0 -41.167 7.33301 -55.5 22s-21.5 33.334 -21.5 56.001v298h-145v120zM542 465.999c0 -25.333 -8.66797 -46.667 -26.001 -64s-38.666 -26 -63.999 -26h-60v78h45
c18 0 27 10 27 30v42h-9c-12 0 -23.167 2.33301 -33.5 7s-19.5 11 -27.5 19s-14.333 17.167 -19 27.5s-7 21.5 -7 33.5s2.33301 23.167 7 33.5s11 19.5 19 27.5s17.167 14.333 27.5 19s21.5 7 33.5 7s23.167 -2.33301 33.5 -7s19.5 -11 27.5 -19s14.333 -17.167 19 -27.5
s7 -21.5 7 -33.5v-147z" />
    <glyph glyph-name="Tbar" unicode="&#x166;" 
d="M54 700h504v-126h-186v-125h138v-120h-138v-329h-132v329h-138v120h138v125h-186v126z" />
    <glyph glyph-name="tbar" unicode="&#x167;" 
d="M64 496l147 -0.000976562v204h126v-204h179v-120h-179v-60h144v-114h-144v-52c0 -20 9 -30 27 -30h134v-120h-210c-22.667 0 -41.167 7.33301 -55.5 22s-21.5 33.334 -21.5 56.001v124h-108v114h108v60h-147v120z" />
    <glyph glyph-name="Utilde" unicode="&#x168;" 
d="M558 700v-458c0 -80 -21.167 -142.667 -63.5 -188s-105.166 -68 -188.499 -68s-146.166 22.667 -188.499 68s-63.5 108 -63.5 188v458h132v-458c0 -41.333 9.66699 -73.666 29 -96.999s49.666 -35 90.999 -35s71.666 11.667 90.999 35s29 55.666 29 96.999v458h132z
M322 893c5.33301 -6 10.666 -11.5 15.999 -16.5s12.666 -7.5 21.999 -7.5s16.833 2.16699 22.5 6.5s11.167 10.166 16.5 17.499l30 38l77 -61l-56 -72c-12 -15.333 -25 -26.5 -39 -33.5s-29.667 -10.5 -47 -10.5c-13.333 0 -26.166 3 -38.499 9s-24.166 15.667 -35.499 29
c-5.33301 6 -10.666 11.5 -15.999 16.5s-12.666 7.5 -21.999 7.5s-16.833 -2.16699 -22.5 -6.5s-11.167 -10.166 -16.5 -17.499l-30 -38l-77 61l56 72c12.667 16 26 27.333 40 34s29.333 10 46 10c13.333 0 26.166 -3 38.499 -9s24.166 -15.667 35.499 -29z" />
    <glyph glyph-name="utilde" unicode="&#x169;" 
d="M414 496h126v-496h-126v72h-18c-22 -57.333 -69.333 -86 -142 -86c-24.667 0 -47.667 4 -69 12s-40 20.333 -56 37s-28.5 37.5 -37.5 62.5s-13.5 54.5 -13.5 88.5v310h126v-284c0 -35.333 8.33301 -62.833 25 -82.5s41.667 -29.5 75 -29.5c38 0 65.833 12.167 83.5 36.5
s26.5 57.5 26.5 99.5v260zM320 689c5.33301 -6 10.666 -11.5 15.999 -16.5s12.666 -7.5 21.999 -7.5s16.833 2.16699 22.5 6.5s11.167 10.166 16.5 17.499l30 38l77 -61l-56 -72c-12 -15.333 -25 -26.5 -39 -33.5s-29.667 -10.5 -47 -10.5c-13.333 0 -26.166 3 -38.499 9
s-24.166 15.667 -35.499 29c-5.33301 6 -10.666 11.5 -15.999 16.5s-12.666 7.5 -21.999 7.5s-16.833 -2.16699 -22.5 -6.5s-11.167 -10.166 -16.5 -17.499l-30 -38l-77 61l56 72c12.667 16 26 27.333 40 34s29.333 10 46 10c13.333 0 26.166 -3 38.499 -9
s24.166 -15.667 35.499 -29z" />
    <glyph glyph-name="Umacron" unicode="&#x16a;" 
d="M558 700v-458c0 -80 -21.167 -142.667 -63.5 -188s-105.166 -68 -188.499 -68s-146.166 22.667 -188.499 68s-63.5 108 -63.5 188v458h132v-458c0 -41.333 9.66699 -73.666 29 -96.999s49.666 -35 90.999 -35s71.666 11.667 90.999 35s29 55.666 29 96.999v458h132z
M453 774h-294v102h294v-102z" />
    <glyph glyph-name="umacron" unicode="&#x16b;" 
d="M414 496h126v-496h-126v72h-18c-22 -57.333 -69.333 -86 -142 -86c-24.667 0 -47.667 4 -69 12s-40 20.333 -56 37s-28.5 37.5 -37.5 62.5s-13.5 54.5 -13.5 88.5v310h126v-284c0 -35.333 8.33301 -62.833 25 -82.5s41.667 -29.5 75 -29.5c38 0 65.833 12.167 83.5 36.5
s26.5 57.5 26.5 99.5v260zM456 570h-294v102h294v-102z" />
    <glyph glyph-name="Ubreve" unicode="&#x16c;" 
d="M558 700v-458c0 -80 -21.167 -142.667 -63.5 -188s-105.166 -68 -188.499 -68s-146.166 22.667 -188.499 68s-63.5 108 -63.5 188v458h132v-458c0 -41.333 9.66699 -73.666 29 -96.999s49.666 -35 90.999 -35s71.666 11.667 90.999 35s29 55.666 29 96.999v458h132z
M438 910l-0.00195312 -14c0 -38 -12.167 -67.833 -36.5 -89.5s-56.166 -32.5 -95.499 -32.5s-71.166 10.833 -95.499 32.5s-36.5 51.5 -36.5 89.5v14h90v-6c0 -12 3.5 -22 10.5 -30s17.5 -12 31.5 -12s24.5 4 31.5 12s10.5 18 10.5 30v6h90z" />
    <glyph glyph-name="ubreve" unicode="&#x16d;" 
d="M414 496h126v-496h-126v72h-18c-22 -57.333 -69.333 -86 -142 -86c-24.667 0 -47.667 4 -69 12s-40 20.333 -56 37s-28.5 37.5 -37.5 62.5s-13.5 54.5 -13.5 88.5v310h126v-284c0 -35.333 8.33301 -62.833 25 -82.5s41.667 -29.5 75 -29.5c38 0 65.833 12.167 83.5 36.5
s26.5 57.5 26.5 99.5v260zM441 700l-0.00195312 -14c0 -38 -12.167 -67.833 -36.5 -89.5s-56.166 -32.5 -95.499 -32.5s-71.166 10.833 -95.499 32.5s-36.5 51.5 -36.5 89.5v14h90v-6c0 -12 3.5 -22 10.5 -30s17.5 -12 31.5 -12s24.5 4 31.5 12s10.5 18 10.5 30v6h90z" />
    <glyph glyph-name="Uring" unicode="&#x16e;" 
d="M558 700v-458c0 -80 -21.167 -142.667 -63.5 -188s-105.166 -68 -188.499 -68s-146.166 22.667 -188.499 68s-63.5 108 -63.5 188v458h132v-458c0 -41.333 9.66699 -73.666 29 -96.999s49.666 -35 90.999 -35s71.666 11.667 90.999 35s29 55.666 29 96.999v458h132z
M198 876c0 14.667 2.83301 28.667 8.5 42s13.334 24.833 23.001 34.5s21 17.334 34 23.001s27.167 8.5 42.5 8.5c14.667 0 28.667 -2.83301 42 -8.5s24.833 -13.334 34.5 -23.001s17.334 -21.167 23.001 -34.5s8.5 -27.333 8.5 -42c0 -15.333 -2.83301 -29.5 -8.5 -42.5
s-13.334 -24.333 -23.001 -34s-21.167 -17.334 -34.5 -23.001s-27.333 -8.5 -42 -8.5c-15.333 0 -29.5 2.83301 -42.5 8.5s-24.333 13.334 -34 23.001s-17.334 21 -23.001 34s-8.5 27.167 -8.5 42.5zM276 876c0 -8.66699 2.83301 -15.834 8.5 -21.501
s12.834 -8.5 21.501 -8.5s15.834 2.83301 21.501 8.5s8.5 12.834 8.5 21.501s-2.83301 15.834 -8.5 21.501s-12.834 8.5 -21.501 8.5s-15.834 -2.83301 -21.501 -8.5s-8.5 -12.834 -8.5 -21.501z" />
    <glyph glyph-name="uring" unicode="&#x16f;" 
d="M414 496h126v-496h-126v72h-18c-22 -57.333 -69.333 -86 -142 -86c-24.667 0 -47.667 4 -69 12s-40 20.333 -56 37s-28.5 37.5 -37.5 62.5s-13.5 54.5 -13.5 88.5v310h126v-284c0 -35.333 8.33301 -62.833 25 -82.5s41.667 -29.5 75 -29.5c38 0 65.833 12.167 83.5 36.5
s26.5 57.5 26.5 99.5v260zM201 676c0 14.667 2.83301 28.667 8.5 42s13.334 24.833 23.001 34.5s21 17.334 34 23.001s27.167 8.5 42.5 8.5c14.667 0 28.667 -2.83301 42 -8.5s24.833 -13.334 34.5 -23.001s17.334 -21.167 23.001 -34.5s8.5 -27.333 8.5 -42
c0 -15.333 -2.83301 -29.5 -8.5 -42.5s-13.334 -24.333 -23.001 -34s-21.167 -17.334 -34.5 -23.001s-27.333 -8.5 -42 -8.5c-15.333 0 -29.5 2.83301 -42.5 8.5s-24.333 13.334 -34 23.001s-17.334 21 -23.001 34s-8.5 27.167 -8.5 42.5zM279 676
c0 -8.66699 2.83301 -15.834 8.5 -21.501s12.834 -8.5 21.501 -8.5s15.834 2.83301 21.501 8.5s8.5 12.834 8.5 21.501s-2.83301 15.834 -8.5 21.501s-12.834 8.5 -21.501 8.5s-15.834 -2.83301 -21.501 -8.5s-8.5 -12.834 -8.5 -21.501z" />
    <glyph glyph-name="Uhungarumlaut" unicode="&#x170;" 
d="M558 700v-458c0 -80 -21.167 -142.667 -63.5 -188s-105.166 -68 -188.499 -68s-146.166 22.667 -188.499 68s-63.5 108 -63.5 188v458h132v-458c0 -41.333 9.66699 -73.666 29 -96.999s49.666 -35 90.999 -35s71.666 11.667 90.999 35s29 55.666 29 96.999v458h132z
M211 910h134l-84 -136h-102zM378 910h134l-84 -136h-102z" />
    <glyph glyph-name="uhungarumlaut" unicode="&#x171;" 
d="M414 496h126v-496h-126v72h-18c-22 -57.333 -69.333 -86 -142 -86c-24.667 0 -47.667 4 -69 12s-40 20.333 -56 37s-28.5 37.5 -37.5 62.5s-13.5 54.5 -13.5 88.5v310h126v-284c0 -35.333 8.33301 -62.833 25 -82.5s41.667 -29.5 75 -29.5c38 0 65.833 12.167 83.5 36.5
s26.5 57.5 26.5 99.5v260zM227 706h134l-84 -136h-102zM394 706h134l-84 -136h-102z" />
    <glyph glyph-name="Uogonek" unicode="&#x172;" 
d="M558 700l0.00292969 -457.999c0 -72.667 -17.667 -131.334 -53 -176.001s-88 -70.667 -158 -78l-10 -44c-0.666992 -3.33301 -1 -6 -1 -8c0 -14.667 7.66699 -22 23 -22h46v-84h-80c-20 0 -38.333 6.33301 -55 19s-25 31.334 -25 56.001c0 6 1 13.667 3 23l13 61
c-68.667 7.33301 -120.334 33.166 -155.001 77.499s-52 102.833 -52 175.5v458h132v-458c0 -41.333 9.66699 -73.666 29 -96.999s49.666 -35 90.999 -35s71.666 11.667 90.999 35s29 55.666 29 96.999v458h132z" />
    <glyph glyph-name="uogonek" unicode="&#x173;" 
d="M414 496l126 -0.000976562v-496h-57l-13 -56c-0.666992 -3.33301 -1 -6 -1 -8c0 -14.667 7.66699 -22 23 -22h48v-84h-82c-20 0 -38.333 6.33301 -55 19s-25 31.334 -25 56.001c0 6 1 13.667 3 23l33 144h-18c-22 -57.333 -69.333 -86 -142 -86
c-24.667 0 -47.667 4 -69 12s-40 20.333 -56 37s-28.5 37.5 -37.5 62.5s-13.5 54.5 -13.5 88.5v310h126v-284c0 -35.333 8.33301 -62.833 25 -82.5s41.667 -29.5 75 -29.5c38 0 65.833 12.167 83.5 36.5s26.5 57.5 26.5 99.5v260z" />
    <glyph glyph-name="Wcircumflex" unicode="&#x174;" 
d="M580 0h-230l-32 532v96h-24v-96l-32 -532h-230l-24 700h120l16 -532v-90h24v90l32 532h212l32 -532v-90h24v90l16 532h120zM355 774l-43 88h-12l-43 -88h-121l84 136h172l84 -136h-121z" />
    <glyph glyph-name="wcircumflex" unicode="&#x175;" 
d="M564 0h-218l-28 376v60h-24v-60l-28 -376h-218l-33 496h116l22 -376v-60h24v60l25 376h208l25 -376v-60h24v60l22 376h116zM355 570l-43 88h-12l-43 -88h-121l84 136h172l84 -136h-121z" />
    <glyph glyph-name="Ycircumflex" unicode="&#x176;" 
d="M240 246h-30l-201 454h144l144 -334h18l144 334h144l-201 -454h-30v-246h-132v246zM355 774l-43 88h-12l-43 -88h-121l84 136h172l84 -136h-121z" />
    <glyph glyph-name="ycircumflex" unicode="&#x177;" 
d="M414 496l126 0.000976562v-618c0 -22.667 -7.16699 -41.334 -21.5 -56.001s-32.833 -22 -55.5 -22h-295v120h219c18 0 27 10 27 30v122h-18c-22 -57.333 -69.333 -86 -142 -86c-24.667 0 -47.667 4 -69 12s-40 20.333 -56 37s-28.5 37.5 -37.5 62.5
s-13.5 54.5 -13.5 88.5v310h126v-284c0 -35.333 8.33301 -62.833 25 -82.5s41.667 -29.5 75 -29.5c38 0 65.833 12.167 83.5 36.5s26.5 57.5 26.5 99.5v260zM358 570.001l-43 88h-12l-43 -88h-121l84 136h172l84 -136h-121z" />
    <glyph glyph-name="Ydieresis" unicode="&#x178;" 
d="M240 246h-30l-201 454h144l144 -334h18l144 334h144l-201 -454h-30v-246h-132v246zM282 843c0 -13.333 -2.5 -25.833 -7.5 -37.5s-11.833 -21.667 -20.5 -30s-18.834 -15 -30.501 -20s-23.834 -7.5 -36.501 -7.5c-13.333 0 -25.666 2.5 -36.999 7.5
s-21.333 11.667 -30 20s-15.5 18.333 -20.5 30s-7.5 24.167 -7.5 37.5s2.5 25.833 7.5 37.5s11.833 21.667 20.5 30s18.667 15 30 20s23.666 7.5 36.999 7.5c12.667 0 24.834 -2.5 36.501 -7.5s21.834 -11.667 30.501 -20s15.5 -18.333 20.5 -30s7.5 -24.167 7.5 -37.5z
M520 843c0 -13.333 -2.5 -25.833 -7.5 -37.5s-11.833 -21.667 -20.5 -30s-18.834 -15 -30.501 -20s-23.834 -7.5 -36.501 -7.5c-13.333 0 -25.666 2.5 -36.999 7.5s-21.333 11.667 -30 20s-15.5 18.333 -20.5 30s-7.5 24.167 -7.5 37.5s2.5 25.833 7.5 37.5
s11.833 21.667 20.5 30s18.667 15 30 20s23.666 7.5 36.999 7.5c12.667 0 24.834 -2.5 36.501 -7.5s21.834 -11.667 30.501 -20s15.5 -18.333 20.5 -30s7.5 -24.167 7.5 -37.5z" />
    <glyph glyph-name="Zacute" unicode="&#x179;" 
d="M53 700h498v-216l-396 -340v-18h408v-126h-516v216l396 340v18h-390v126zM311 910h134l-84 -136h-102z" />
    <glyph glyph-name="zacute" unicode="&#x17a;" 
d="M523 120v-120h-432v210l312 152v18h-306v116h414v-204l-312 -154v-18h324zM308 706h134l-84 -136h-102z" />
    <glyph glyph-name="Zdotaccent" unicode="&#x17b;" 
d="M53 700h498v-216l-396 -340v-18h408v-126h-516v216l396 340v18h-390v126zM398 873c0 -13.333 -2.5 -25.833 -7.5 -37.5s-11.833 -21.667 -20.5 -30s-18.834 -15 -30.501 -20s-23.834 -7.5 -36.501 -7.5c-13.333 0 -25.666 2.5 -36.999 7.5s-21.333 11.667 -30 20
s-15.5 18.333 -20.5 30s-7.5 24.167 -7.5 37.5s2.5 25.833 7.5 37.5s11.833 21.667 20.5 30s18.667 15 30 20s23.666 7.5 36.999 7.5c12.667 0 24.834 -2.5 36.501 -7.5s21.834 -11.667 30.501 -20s15.5 -18.333 20.5 -30s7.5 -24.167 7.5 -37.5z" />
    <glyph glyph-name="zdotaccent" unicode="&#x17c;" 
d="M523 120v-120h-432v210l312 152v18h-306v116h414v-204l-312 -154v-18h324zM400 643c0 -13.333 -2.5 -25.833 -7.5 -37.5s-11.833 -21.667 -20.5 -30s-18.834 -15 -30.501 -20s-23.834 -7.5 -36.501 -7.5c-13.333 0 -25.666 2.5 -36.999 7.5s-21.333 11.667 -30 20
s-15.5 18.333 -20.5 30s-7.5 24.167 -7.5 37.5s2.5 25.833 7.5 37.5s11.833 21.667 20.5 30s18.667 15 30 20s23.666 7.5 36.999 7.5c12.667 0 24.834 -2.5 36.501 -7.5s21.834 -11.667 30.501 -20s15.5 -18.333 20.5 -30s7.5 -24.167 7.5 -37.5z" />
    <glyph glyph-name="Zcaron" unicode="&#x17d;" 
d="M53 700h498v-216l-396 -340v-18h408v-126h-516v216l396 340v18h-390v126zM476 910l-84 -136h-172l-84 136h121l43 -88h12l43 88h121z" />
    <glyph glyph-name="zcaron" unicode="&#x17e;" 
d="M523 120v-120h-432v210l312 152v18h-306v116h414v-204l-312 -154v-18h324zM476 706l-84 -136h-172l-84 136h121l43 -88h12l43 88h121z" />
    <glyph glyph-name="longs" unicode="&#x17f;" 
d="M170 496l60 -0.000976562v102c0 28.667 9.66699 52.834 29 72.501s43.333 29.5 72 29.5h202v-120h-150c-18 0 -27 -10 -27 -30v-550h-126v376h-60v120z" />
    <glyph glyph-name="uni0180" unicode="&#x180;" 
d="M183 0l-126 0.000976562v538h-60v114h60v48h126v-48h155v-114h-155v-114h18c13.333 27.333 32.666 48.5 57.999 63.5s57.666 22.5 96.999 22.5c29.333 0 57.166 -5.66699 83.499 -17s49.333 -27.833 69 -49.5s35.334 -48.167 47.001 -79.5s17.5 -67 17.5 -107v-18
c0 -40.667 -5.66699 -76.667 -17 -108s-26.666 -57.833 -45.999 -79.5s-42.166 -38 -68.499 -49s-54.833 -16.5 -85.5 -16.5c-22.667 0 -42.334 2.33301 -59.001 7s-31.167 11 -43.5 19s-22.666 17.167 -30.999 27.5s-15.5 21.166 -21.5 32.499h-18v-72zM315 106.001
c39.333 0 71.166 12.167 95.499 36.5s36.5 57.5 36.5 99.5v12c0 42 -12.167 75.167 -36.5 99.5s-56.166 36.5 -95.499 36.5s-71.166 -12.5 -95.499 -37.5s-36.5 -57.833 -36.5 -98.5v-12c0 -40.667 12.167 -73.5 36.5 -98.5s56.166 -37.5 95.499 -37.5z" />
    <glyph glyph-name="uni018F" unicode="&#x18f;" 
d="M48 380l384 0.00195312v58c0 20.667 -2.5 40.5 -7.5 59.5s-12.833 35.667 -23.5 50s-24 25.666 -40 33.999s-35 12.5 -57 12.5c-24 0 -44 -4.16699 -60 -12.5s-28.667 -19.166 -38 -32.499s-16 -28.333 -20 -45s-6 -33.334 -6 -50.001v-6h-132v6
c0 80 21.833 143.333 65.5 190s107.167 70 190.5 70c40 0 76 -6.5 108 -19.5s59.333 -31.667 82 -56s40 -54.333 52 -90s18 -75.834 18 -120.501v-156c0 -93.333 -23.333 -164.333 -70 -213s-110 -73 -190 -73c-83.333 0 -146.833 22.667 -190.5 68s-65.5 111.333 -65.5 198
v128zM304 106.002c23.333 0 43.168 3.66699 59.501 11s29.5 17.5 39.5 30.5s17.333 28.5 22 46.5s7 38 7 60h-252v-8c0 -18 1.66699 -35.5 5 -52.5s9.5 -32 18.5 -45s21.667 -23.333 38 -31s37.166 -11.5 62.499 -11.5z" />
    <glyph glyph-name="florin" unicode="&#x192;" 
d="M165 438h84v64c0 28.667 9.66699 52.834 29 72.501s43.333 29.5 72 29.5h142v-108h-102c-18 0 -27 -10 -27 -30v-28h84v-108h-84v-132c0 -28.667 -9.66699 -52.834 -29 -72.501s-43.333 -29.5 -72 -29.5h-142v108h102c18 0 27 10 27 30v96h-84v108z" />
    <glyph glyph-name="uni01A0" unicode="&#x1a0;" 
d="M606 492c0 -25.333 -8.66797 -46.667 -26.001 -64s-38.666 -26 -63.999 -26h-94v-192c0 -73.333 -17.833 -129 -53.5 -167s-85.834 -57 -150.501 -57s-114.834 19 -150.501 57s-53.5 93.667 -53.5 167v280c0 73.333 17.833 129 53.5 167s85.834 57 150.501 57
s114.834 -19 150.501 -57s53.5 -93.667 53.5 -167v-10h79c18 0 27 10 27 30v16h-9c-12 0 -23.167 2.33301 -33.5 7s-19.5 11 -27.5 19s-14.333 17.167 -19 27.5s-7 21.5 -7 33.5s2.33301 23.167 7 33.5s11 19.5 19 27.5s17.167 14.333 27.5 19s21.5 7 33.5 7
s23.167 -2.33301 33.5 -7s19.5 -11 27.5 -19s14.333 -17.167 19 -27.5s7 -21.5 7 -33.5v-121zM217.999 111.999c22 0 39.5 7.5 52.5 22.5s19.5 37.5 19.5 67.5v296c0 30 -6.5 52.5 -19.5 67.5s-30.5 22.5 -52.5 22.5s-39.5 -7.5 -52.5 -22.5s-19.5 -37.5 -19.5 -67.5v-296
c0 -30 6.5 -52.5 19.5 -67.5s30.5 -22.5 52.5 -22.5z" />
    <glyph glyph-name="uni01A1" unicode="&#x1a1;" 
d="M20 254c0 80.667 17.501 143.499 52.501 188.499s84.5 67.5 148.5 67.5c60 0 107.333 -20 142 -60s54 -96 58 -168h73c18 0 27 10 27 30v10h-9c-12 0 -23.167 2.33301 -33.5 7s-19.5 11 -27.5 19s-14.333 17.167 -19 27.5s-7 21.5 -7 33.5s2.33301 23.167 7 33.5
s11 19.5 19 27.5s17.167 14.333 27.5 19s21.5 7 33.5 7s23.167 -2.33301 33.5 -7s19.5 -11 27.5 -19s14.333 -17.167 19 -27.5s7 -21.5 7 -33.5v-115c0 -25.333 -8.66699 -46.666 -26 -63.999s-38.666 -26 -63.999 -26h-88c-5.33301 -70 -25.333 -123.833 -60 -161.5
s-81.334 -56.5 -140.001 -56.5c-64.667 0 -114.334 22.333 -149.001 67s-52 107.667 -52 189v12zM221.001 105.999c22.667 0 40.834 9.66699 54.501 29s20.5 51 20.5 95v36c0 44 -6.83301 75.667 -20.5 95s-31.834 29 -54.501 29s-40.834 -9.66699 -54.501 -29
s-20.5 -51 -20.5 -95v-36c0 -44 6.83301 -75.667 20.5 -95s31.834 -29 54.501 -29z" />
    <glyph glyph-name="uni01AF" unicode="&#x1af;" 
d="M606 492c0 -25.333 -8.66992 -46.667 -26.0029 -64s-38.666 -26 -63.999 -26h-114v-204c0 -70.667 -16.167 -123.667 -48.5 -159s-80.166 -53 -143.499 -53s-111.166 17.667 -143.499 53s-48.5 88.333 -48.5 159v502h132v-516c0 -23.333 4.5 -41.166 13.5 -53.499
s24.5 -18.5 46.5 -18.5s37.5 6.16699 46.5 18.5s13.5 30.166 13.5 53.499v516h132v-220h99c18 0 27 10 27 30v16h-9c-12 0 -23.167 2.33301 -33.5 7s-19.5 11 -27.5 19s-14.333 17.167 -19 27.5s-7 21.5 -7 33.5s2.33301 23.167 7 33.5s11 19.5 19 27.5
s17.167 14.333 27.5 19s21.5 7 33.5 7s23.167 -2.33301 33.5 -7s19.5 -11 27.5 -19s14.333 -17.167 19 -27.5s7 -21.5 7 -33.5v-121z" />
    <glyph glyph-name="uni01B0" unicode="&#x1b0;" 
d="M276 496l126 -0.000976562v-214h99c18 0 27 10 27 30v10h-9c-12 0 -23.167 2.33301 -33.5 7s-19.5 11 -27.5 19s-14.333 17.167 -19 27.5s-7 21.5 -7 33.5s2.33301 23.167 7 33.5s11 19.5 19 27.5s17.167 14.333 27.5 19s21.5 7 33.5 7s23.167 -2.33301 33.5 -7
s19.5 -11 27.5 -19s14.333 -17.167 19 -27.5s7 -21.5 7 -33.5v-115c0 -25.333 -8.66699 -46.666 -26 -63.999s-38.666 -26 -63.999 -26h-114v-204h-126v48h-18c-6 -18 -17.667 -32.833 -35 -44.5s-42 -17.5 -74 -17.5c-40 0 -71.833 12.5 -95.5 37.5
s-35.5 63.167 -35.5 114.5v358h126v-322c0 -23.333 5.16699 -41.5 15.5 -54.5s26.166 -19.5 47.499 -19.5c26 0 44 7.33301 54 22s15 34 15 58v316z" />
    <glyph glyph-name="uni01CD" unicode="&#x1cd;" 
d="M425 150h-238l-34 -150h-138l167 700h248l167 -700h-138zM215 276h181l-81 358h-18zM476 910l-84 -136h-172l-84 136h121l43 -88h12l43 88h121z" />
    <glyph glyph-name="uni01CE" unicode="&#x1ce;" 
d="M399 72c-13.333 -31.333 -32 -53.498 -56 -66.498s-52 -19.5 -84 -19.5c-30 0 -58.167 5.66699 -84.5 17s-49.5 28 -69.5 50s-35.833 48.667 -47.5 80s-17.5 67 -17.5 107v16c0 39.333 5.66699 74.666 17 105.999s26.666 58 45.999 80s41.833 38.833 67.5 50.5
s53.167 17.5 82.5 17.5c35.333 0 63.833 -6 85.5 -18s38.834 -30.667 51.501 -56h18v60h126v-346c0 -20 9 -30 27 -30h19v-120h-86c-22.667 0 -41.167 6.66699 -55.5 20s-21.5 30.666 -21.5 51.999h-18zM287 106.002c36.667 0 66 12.167 88 36.5s33 57.5 33 99.5v12
c0 42 -11 75.167 -33 99.5s-51.333 36.5 -88 36.5s-66 -12.167 -88 -36.5s-33 -57.5 -33 -99.5v-12c0 -42 11 -75.167 33 -99.5s51.333 -36.5 88 -36.5zM424 706.002l-84 -136h-172l-84 136h121l43 -88h12l43 88h121z" />
    <glyph glyph-name="uni01CF" unicode="&#x1cf;" 
d="M72 700h468v-126h-168v-448h168v-126h-468v126h168v448h-168v126zM476 910l-84 -136h-172l-84 136h121l43 -88h12l43 88h121z" />
    <glyph glyph-name="uni01D0" unicode="&#x1d0;" 
d="M87 120h168v256h-156v120h282v-376h144v-120h-438v120zM467 706l-84 -136h-172l-84 136h121l43 -88h12l43 88h121z" />
    <glyph glyph-name="uni01D1" unicode="&#x1d1;" 
d="M48 428c0 90.667 22.833 161 68.5 211s108.834 75 189.501 75s143.834 -25 189.501 -75s68.5 -120.333 68.5 -211v-156c0 -93.333 -22.833 -164.333 -68.5 -213s-108.834 -73 -189.501 -73s-143.834 24.333 -189.501 73s-68.5 119.667 -68.5 213v156zM306 106
c24 0 44 3.83301 60 11.5s29 18.5 39 32.5s17 30.667 21 50s6 40.666 6 63.999v172c0 22 -2.33301 42.667 -7 62s-12 36 -22 50s-23 25.167 -39 33.5s-35.333 12.5 -58 12.5s-42 -4.16699 -58 -12.5s-29 -19.5 -39 -33.5s-17.333 -30.667 -22 -50s-7 -40 -7 -62v-172
c0 -23.333 2 -44.666 6 -63.999s11 -36 21 -50s23 -24.833 39 -32.5s36 -11.5 60 -11.5zM476 910l-84 -136h-172l-84 136h121l43 -88h12l43 88h121z" />
    <glyph glyph-name="uni01D2" unicode="&#x1d2;" 
d="M564 242c0 -41.333 -7 -77.833 -21 -109.5s-33 -58.334 -57 -80.001s-51.5 -38.167 -82.5 -49.5s-63.5 -17 -97.5 -17s-66.5 5.66699 -97.5 17s-58.5 27.833 -82.5 49.5s-43 48.334 -57 80.001s-21 68.167 -21 109.5v12c0 40.667 7 76.834 21 108.501s33 58.5 57 80.5
s51.5 38.667 82.5 50s63.5 17 97.5 17s66.5 -5.66699 97.5 -17s58.5 -28 82.5 -50s43 -48.833 57 -80.5s21 -67.834 21 -108.501v-12zM306 106c18 0 35 3 51 9s30 14.667 42 26s21.5 25.166 28.5 41.499s10.5 34.833 10.5 55.5v20c0 20.667 -3.5 39.167 -10.5 55.5
s-16.5 30.166 -28.5 41.499s-26 20 -42 26s-33 9 -51 9s-35 -3 -51 -9s-30 -14.667 -42 -26s-21.5 -25.166 -28.5 -41.499s-10.5 -34.833 -10.5 -55.5v-20c0 -20.667 3.5 -39.167 10.5 -55.5s16.5 -30.166 28.5 -41.499s26 -20 42 -26s33 -9 51 -9zM476 706l-84 -136h-172
l-84 136h121l43 -88h12l43 88h121z" />
    <glyph glyph-name="uni01D3" unicode="&#x1d3;" 
d="M558 700v-458c0 -80 -21.167 -142.667 -63.5 -188s-105.166 -68 -188.499 -68s-146.166 22.667 -188.499 68s-63.5 108 -63.5 188v458h132v-458c0 -41.333 9.66699 -73.666 29 -96.999s49.666 -35 90.999 -35s71.666 11.667 90.999 35s29 55.666 29 96.999v458h132z
M476 910l-84 -136h-172l-84 136h121l43 -88h12l43 88h121z" />
    <glyph glyph-name="uni01D4" unicode="&#x1d4;" 
d="M414 496h126v-496h-126v72h-18c-22 -57.333 -69.333 -86 -142 -86c-24.667 0 -47.667 4 -69 12s-40 20.333 -56 37s-28.5 37.5 -37.5 62.5s-13.5 54.5 -13.5 88.5v310h126v-284c0 -35.333 8.33301 -62.833 25 -82.5s41.667 -29.5 75 -29.5c38 0 65.833 12.167 83.5 36.5
s26.5 57.5 26.5 99.5v260zM479 706l-84 -136h-172l-84 136h121l43 -88h12l43 88h121z" />
    <glyph glyph-name="uni01D5" unicode="&#x1d5;" 
d="M508 956h-404v102h404v-102zM558 700v-458c0 -80 -21.167 -142.667 -63.5 -188s-105.166 -68 -188.499 -68s-146.166 22.667 -188.499 68s-63.5 108 -63.5 188v458h132v-458c0 -41.333 9.66699 -73.666 29 -96.999s49.666 -35 90.999 -35s71.666 11.667 90.999 35
s29 55.666 29 96.999v458h132zM282 831c0 -13.333 -2.5 -25.833 -7.5 -37.5s-11.833 -21.667 -20.5 -30s-18.834 -15 -30.501 -20s-23.834 -7.5 -36.501 -7.5c-13.333 0 -25.666 2.5 -36.999 7.5s-21.333 11.667 -30 20s-15.5 18.333 -20.5 30s-7.5 24.167 -7.5 37.5
s2.5 25.833 7.5 37.5s11.833 21.667 20.5 30s18.667 15 30 20s23.666 7.5 36.999 7.5c12.667 0 24.834 -2.5 36.501 -7.5s21.834 -11.667 30.501 -20s15.5 -18.333 20.5 -30s7.5 -24.167 7.5 -37.5zM520 831c0 -13.333 -2.5 -25.833 -7.5 -37.5s-11.833 -21.667 -20.5 -30
s-18.834 -15 -30.501 -20s-23.834 -7.5 -36.501 -7.5c-13.333 0 -25.666 2.5 -36.999 7.5s-21.333 11.667 -30 20s-15.5 18.333 -20.5 30s-7.5 24.167 -7.5 37.5s2.5 25.833 7.5 37.5s11.833 21.667 20.5 30s18.667 15 30 20s23.666 7.5 36.999 7.5
c12.667 0 24.834 -2.5 36.501 -7.5s21.834 -11.667 30.501 -20s15.5 -18.333 20.5 -30s7.5 -24.167 7.5 -37.5z" />
    <glyph glyph-name="uni01D6" unicode="&#x1d6;" 
d="M511 752h-404v102h404v-102zM414 496h126v-496h-126v72h-18c-22 -57.333 -69.333 -86 -142 -86c-24.667 0 -47.667 4 -69 12s-40 20.333 -56 37s-28.5 37.5 -37.5 62.5s-13.5 54.5 -13.5 88.5v310h126v-284c0 -35.333 8.33301 -62.833 25 -82.5s41.667 -29.5 75 -29.5
c38 0 65.833 12.167 83.5 36.5s26.5 57.5 26.5 99.5v260zM285 627c0 -13.333 -2.5 -25.833 -7.5 -37.5s-11.833 -21.667 -20.5 -30s-18.834 -15 -30.501 -20s-23.834 -7.5 -36.501 -7.5c-13.333 0 -25.666 2.5 -36.999 7.5s-21.333 11.667 -30 20s-15.5 18.333 -20.5 30
s-7.5 24.167 -7.5 37.5s2.5 25.833 7.5 37.5s11.833 21.667 20.5 30s18.667 15 30 20s23.666 7.5 36.999 7.5c12.667 0 24.834 -2.5 36.501 -7.5s21.834 -11.667 30.501 -20s15.5 -18.333 20.5 -30s7.5 -24.167 7.5 -37.5zM523 627c0 -13.333 -2.5 -25.833 -7.5 -37.5
s-11.833 -21.667 -20.5 -30s-18.834 -15 -30.501 -20s-23.834 -7.5 -36.501 -7.5c-13.333 0 -25.666 2.5 -36.999 7.5s-21.333 11.667 -30 20s-15.5 18.333 -20.5 30s-7.5 24.167 -7.5 37.5s2.5 25.833 7.5 37.5s11.833 21.667 20.5 30s18.667 15 30 20
s23.666 7.5 36.999 7.5c12.667 0 24.834 -2.5 36.501 -7.5s21.834 -11.667 30.501 -20s15.5 -18.333 20.5 -30s7.5 -24.167 7.5 -37.5z" />
    <glyph glyph-name="uni01D7" unicode="&#x1d7;" 
d="M558 700v-458c0 -80 -21.167 -142.667 -63.5 -188s-105.166 -68 -188.499 -68s-146.166 22.667 -188.499 68s-63.5 108 -63.5 188v458h132v-458c0 -41.333 9.66699 -73.666 29 -96.999s49.666 -35 90.999 -35s71.666 11.667 90.999 35s29 55.666 29 96.999v458h132z
M282 831c0 -13.333 -2.5 -25.833 -7.5 -37.5s-11.833 -21.667 -20.5 -30s-18.834 -15 -30.501 -20s-23.834 -7.5 -36.501 -7.5c-13.333 0 -25.666 2.5 -36.999 7.5s-21.333 11.667 -30 20s-15.5 18.333 -20.5 30s-7.5 24.167 -7.5 37.5s2.5 25.833 7.5 37.5
s11.833 21.667 20.5 30s18.667 15 30 20s23.666 7.5 36.999 7.5c12.667 0 24.834 -2.5 36.501 -7.5s21.834 -11.667 30.501 -20s15.5 -18.333 20.5 -30s7.5 -24.167 7.5 -37.5zM520 831c0 -13.333 -2.5 -25.833 -7.5 -37.5s-11.833 -21.667 -20.5 -30
s-18.834 -15 -30.501 -20s-23.834 -7.5 -36.501 -7.5c-13.333 0 -25.666 2.5 -36.999 7.5s-21.333 11.667 -30 20s-15.5 18.333 -20.5 30s-7.5 24.167 -7.5 37.5s2.5 25.833 7.5 37.5s11.833 21.667 20.5 30s18.667 15 30 20s23.666 7.5 36.999 7.5
c12.667 0 24.834 -2.5 36.501 -7.5s21.834 -11.667 30.501 -20s15.5 -18.333 20.5 -30s7.5 -24.167 7.5 -37.5zM307 1086h134l-84 -136h-102z" />
    <glyph glyph-name="uni01D8" unicode="&#x1d8;" 
d="M414 496h126v-496h-126v72h-18c-22 -57.333 -69.333 -86 -142 -86c-24.667 0 -47.667 4 -69 12s-40 20.333 -56 37s-28.5 37.5 -37.5 62.5s-13.5 54.5 -13.5 88.5v310h126v-284c0 -35.333 8.33301 -62.833 25 -82.5s41.667 -29.5 75 -29.5c38 0 65.833 12.167 83.5 36.5
s26.5 57.5 26.5 99.5v260zM285 628c0 -13.333 -2.5 -25.833 -7.5 -37.5s-11.833 -21.667 -20.5 -30s-18.834 -15 -30.501 -20s-23.834 -7.5 -36.501 -7.5c-13.333 0 -25.666 2.5 -36.999 7.5s-21.333 11.667 -30 20s-15.5 18.333 -20.5 30s-7.5 24.167 -7.5 37.5
s2.5 25.833 7.5 37.5s11.833 21.667 20.5 30s18.667 15 30 20s23.666 7.5 36.999 7.5c12.667 0 24.834 -2.5 36.501 -7.5s21.834 -11.667 30.501 -20s15.5 -18.333 20.5 -30s7.5 -24.167 7.5 -37.5zM523 628c0 -13.333 -2.5 -25.833 -7.5 -37.5s-11.833 -21.667 -20.5 -30
s-18.834 -15 -30.501 -20s-23.834 -7.5 -36.501 -7.5c-13.333 0 -25.666 2.5 -36.999 7.5s-21.333 11.667 -30 20s-15.5 18.333 -20.5 30s-7.5 24.167 -7.5 37.5s2.5 25.833 7.5 37.5s11.833 21.667 20.5 30s18.667 15 30 20s23.666 7.5 36.999 7.5
c12.667 0 24.834 -2.5 36.501 -7.5s21.834 -11.667 30.501 -20s15.5 -18.333 20.5 -30s7.5 -24.167 7.5 -37.5zM310 882h134l-84 -136h-102z" />
    <glyph glyph-name="uni01D9" unicode="&#x1d9;" 
d="M558 700v-458c0 -80 -21.167 -142.667 -63.5 -188s-105.166 -68 -188.499 -68s-146.166 22.667 -188.499 68s-63.5 108 -63.5 188v458h132v-458c0 -41.333 9.66699 -73.666 29 -96.999s49.666 -35 90.999 -35s71.666 11.667 90.999 35s29 55.666 29 96.999v458h132z
M282 831c0 -13.333 -2.5 -25.833 -7.5 -37.5s-11.833 -21.667 -20.5 -30s-18.834 -15 -30.501 -20s-23.834 -7.5 -36.501 -7.5c-13.333 0 -25.666 2.5 -36.999 7.5s-21.333 11.667 -30 20s-15.5 18.333 -20.5 30s-7.5 24.167 -7.5 37.5s2.5 25.833 7.5 37.5
s11.833 21.667 20.5 30s18.667 15 30 20s23.666 7.5 36.999 7.5c12.667 0 24.834 -2.5 36.501 -7.5s21.834 -11.667 30.501 -20s15.5 -18.333 20.5 -30s7.5 -24.167 7.5 -37.5zM520 831c0 -13.333 -2.5 -25.833 -7.5 -37.5s-11.833 -21.667 -20.5 -30
s-18.834 -15 -30.501 -20s-23.834 -7.5 -36.501 -7.5c-13.333 0 -25.666 2.5 -36.999 7.5s-21.333 11.667 -30 20s-15.5 18.333 -20.5 30s-7.5 24.167 -7.5 37.5s2.5 25.833 7.5 37.5s11.833 21.667 20.5 30s18.667 15 30 20s23.666 7.5 36.999 7.5
c12.667 0 24.834 -2.5 36.501 -7.5s21.834 -11.667 30.501 -20s15.5 -18.333 20.5 -30s7.5 -24.167 7.5 -37.5zM476 1092l-84 -136h-172l-84 136h121l43 -88h12l43 88h121z" />
    <glyph glyph-name="uni01DA" unicode="&#x1da;" 
d="M414 496h126v-496h-126v72h-18c-22 -57.333 -69.333 -86 -142 -86c-24.667 0 -47.667 4 -69 12s-40 20.333 -56 37s-28.5 37.5 -37.5 62.5s-13.5 54.5 -13.5 88.5v310h126v-284c0 -35.333 8.33301 -62.833 25 -82.5s41.667 -29.5 75 -29.5c38 0 65.833 12.167 83.5 36.5
s26.5 57.5 26.5 99.5v260zM285 628c0 -13.333 -2.5 -25.833 -7.5 -37.5s-11.833 -21.667 -20.5 -30s-18.834 -15 -30.501 -20s-23.834 -7.5 -36.501 -7.5c-13.333 0 -25.666 2.5 -36.999 7.5s-21.333 11.667 -30 20s-15.5 18.333 -20.5 30s-7.5 24.167 -7.5 37.5
s2.5 25.833 7.5 37.5s11.833 21.667 20.5 30s18.667 15 30 20s23.666 7.5 36.999 7.5c12.667 0 24.834 -2.5 36.501 -7.5s21.834 -11.667 30.501 -20s15.5 -18.333 20.5 -30s7.5 -24.167 7.5 -37.5zM523 628c0 -13.333 -2.5 -25.833 -7.5 -37.5s-11.833 -21.667 -20.5 -30
s-18.834 -15 -30.501 -20s-23.834 -7.5 -36.501 -7.5c-13.333 0 -25.666 2.5 -36.999 7.5s-21.333 11.667 -30 20s-15.5 18.333 -20.5 30s-7.5 24.167 -7.5 37.5s2.5 25.833 7.5 37.5s11.833 21.667 20.5 30s18.667 15 30 20s23.666 7.5 36.999 7.5
c12.667 0 24.834 -2.5 36.501 -7.5s21.834 -11.667 30.501 -20s15.5 -18.333 20.5 -30s7.5 -24.167 7.5 -37.5zM479 888l-84 -136h-172l-84 136h121l43 -88h12l43 88h121z" />
    <glyph glyph-name="uni01DB" unicode="&#x1db;" 
d="M558 700v-458c0 -80 -21.167 -142.667 -63.5 -188s-105.166 -68 -188.499 -68s-146.166 22.667 -188.499 68s-63.5 108 -63.5 188v458h132v-458c0 -41.333 9.66699 -73.666 29 -96.999s49.666 -35 90.999 -35s71.666 11.667 90.999 35s29 55.666 29 96.999v458h132z
M282 831c0 -13.333 -2.5 -25.833 -7.5 -37.5s-11.833 -21.667 -20.5 -30s-18.834 -15 -30.501 -20s-23.834 -7.5 -36.501 -7.5c-13.333 0 -25.666 2.5 -36.999 7.5s-21.333 11.667 -30 20s-15.5 18.333 -20.5 30s-7.5 24.167 -7.5 37.5s2.5 25.833 7.5 37.5
s11.833 21.667 20.5 30s18.667 15 30 20s23.666 7.5 36.999 7.5c12.667 0 24.834 -2.5 36.501 -7.5s21.834 -11.667 30.501 -20s15.5 -18.333 20.5 -30s7.5 -24.167 7.5 -37.5zM520 831c0 -13.333 -2.5 -25.833 -7.5 -37.5s-11.833 -21.667 -20.5 -30
s-18.834 -15 -30.501 -20s-23.834 -7.5 -36.501 -7.5c-13.333 0 -25.666 2.5 -36.999 7.5s-21.333 11.667 -30 20s-15.5 18.333 -20.5 30s-7.5 24.167 -7.5 37.5s2.5 25.833 7.5 37.5s11.833 21.667 20.5 30s18.667 15 30 20s23.666 7.5 36.999 7.5
c12.667 0 24.834 -2.5 36.501 -7.5s21.834 -11.667 30.501 -20s15.5 -18.333 20.5 -30s7.5 -24.167 7.5 -37.5zM358 950h-102l-84 136h134z" />
    <glyph glyph-name="uni01DC" unicode="&#x1dc;" 
d="M414 496h126v-496h-126v72h-18c-22 -57.333 -69.333 -86 -142 -86c-24.667 0 -47.667 4 -69 12s-40 20.333 -56 37s-28.5 37.5 -37.5 62.5s-13.5 54.5 -13.5 88.5v310h126v-284c0 -35.333 8.33301 -62.833 25 -82.5s41.667 -29.5 75 -29.5c38 0 65.833 12.167 83.5 36.5
s26.5 57.5 26.5 99.5v260zM285 628c0 -13.333 -2.5 -25.833 -7.5 -37.5s-11.833 -21.667 -20.5 -30s-18.834 -15 -30.501 -20s-23.834 -7.5 -36.501 -7.5c-13.333 0 -25.666 2.5 -36.999 7.5s-21.333 11.667 -30 20s-15.5 18.333 -20.5 30s-7.5 24.167 -7.5 37.5
s2.5 25.833 7.5 37.5s11.833 21.667 20.5 30s18.667 15 30 20s23.666 7.5 36.999 7.5c12.667 0 24.834 -2.5 36.501 -7.5s21.834 -11.667 30.501 -20s15.5 -18.333 20.5 -30s7.5 -24.167 7.5 -37.5zM523 628c0 -13.333 -2.5 -25.833 -7.5 -37.5s-11.833 -21.667 -20.5 -30
s-18.834 -15 -30.501 -20s-23.834 -7.5 -36.501 -7.5c-13.333 0 -25.666 2.5 -36.999 7.5s-21.333 11.667 -30 20s-15.5 18.333 -20.5 30s-7.5 24.167 -7.5 37.5s2.5 25.833 7.5 37.5s11.833 21.667 20.5 30s18.667 15 30 20s23.666 7.5 36.999 7.5
c12.667 0 24.834 -2.5 36.501 -7.5s21.834 -11.667 30.501 -20s15.5 -18.333 20.5 -30s7.5 -24.167 7.5 -37.5zM361 746h-102l-84 136h134z" />
    <glyph glyph-name="uni01E6" unicode="&#x1e6;" 
d="M260 354h300.001v-354h-120v78h-18c-8 -26 -23.333 -47.833 -46 -65.5s-56.667 -26.5 -102 -26.5c-32 0 -62 6 -90 18s-52.333 29.833 -73 53.5s-37 53 -49 88s-18 75.833 -18 122.5v164c0 45.333 6.5 85.5 19.5 120.5s31 64.5 54 88.5s50.5 42.167 82.5 54.5
s67.333 18.5 106 18.5c40 0 75.667 -6.5 107 -19.5s58 -31 80 -54s38.667 -50 50 -81s17 -64.167 17 -99.5v-12h-132v12c0 42 -10.833 73.833 -32.5 95.5s-52.167 32.5 -91.5 32.5c-37.333 0 -68 -12.5 -92 -37.5s-36 -67.833 -36 -128.5v-148c0 -108 44 -162 132 -162
c39.333 0 69.166 10.5 89.499 31.5s30.5 49.167 30.5 84.5h-168v126zM476.001 910l-84 -136h-172l-84 136h121l43 -88h12l43 88h121z" />
    <glyph glyph-name="uni01E7" unicode="&#x1e7;" 
d="M432 72h-17.999c-5.33301 -11.333 -11.833 -22.166 -19.5 -32.499s-17.667 -19.5 -30 -27.5s-27 -14.333 -44 -19s-37.5 -7 -61.5 -7c-30.667 0 -59.167 5.5 -85.5 16.5s-49.333 27.333 -69 49s-35 48.167 -46 79.5s-16.5 67.333 -16.5 108v18
c0 40 5.83301 75.667 17.5 107s27.667 57.833 48 79.5s44 38.167 71 49.5s55.5 17 85.5 17c40 0 71.667 -7.5 95 -22.5s41.666 -36.167 54.999 -63.5h18v72h126v-618c0 -22.667 -7.16699 -41.334 -21.5 -56.001s-32.833 -22 -55.5 -22h-334v120h258c18 0 27 10 27 30v122z
M300.001 106c39.333 0 71.166 12.5 95.499 37.5s36.5 57.833 36.5 98.5v12c0 40.667 -12.167 73.5 -36.5 98.5s-56.166 37.5 -95.499 37.5s-71.166 -12.167 -95.499 -36.5s-36.5 -57.5 -36.5 -99.5v-12c0 -42 12.167 -75.167 36.5 -99.5s56.166 -36.5 95.499 -36.5z
M435.001 706l-84 -136h-172l-84 136h121l43 -88h12l43 88h121z" />
    <glyph glyph-name="uni01EA" unicode="&#x1ea;" 
d="M48 428c0 90.667 22.832 160.997 68.499 210.997s108.834 75 189.501 75s143.834 -25 189.501 -75s68.5 -120.333 68.5 -211v-156c0 -85.333 -19.167 -152 -57.5 -200s-91.5 -75.667 -159.5 -83l-10 -45c-0.666992 -3.33301 -1 -6 -1 -8c0 -14.667 7.66699 -22 23 -22h46
v-84h-80c-20 0 -38.333 6.33301 -55 19s-25 31.334 -25 56.001c0 6 1 13.667 3 23l13 61c-66.667 8.66699 -118.834 36.834 -156.501 84.501s-56.5 113.834 -56.5 198.501v156zM305.999 105.997c24 0 44 3.83301 60 11.5s29 18.5 39 32.5s17 30.667 21 50s6 40.666 6 63.999
v172c0 22 -2.33301 42.667 -7 62s-12 36 -22 50s-23 25.167 -39 33.5s-35.333 12.5 -58 12.5s-42 -4.16699 -58 -12.5s-29 -19.5 -39 -33.5s-17.333 -30.667 -22 -50s-7 -40 -7 -62v-172c0 -23.333 2 -44.666 6 -63.999s11 -36 21 -50s23 -24.833 39 -32.5
s36 -11.5 60 -11.5z" />
    <glyph glyph-name="uni01EB" unicode="&#x1eb;" 
d="M564 242c0 -36.667 -5.6709 -69.668 -17.0039 -99.001s-26.833 -54.666 -46.5 -75.999s-42.667 -38.666 -69 -51.999s-54.166 -22 -83.499 -26l-10 -45c-0.666992 -3.33301 -1 -6 -1 -8c0 -14.667 7.66699 -22 23 -22h46v-84h-80c-20 0 -38.333 6.33301 -55 19
s-25 31.334 -25 56.001c0 6 1 13.667 3 23l14 61c-29.333 4 -57.166 12.667 -83.499 26s-49.166 30.666 -68.499 51.999s-34.666 46.666 -45.999 75.999s-17 62.333 -17 99v12c0 40.667 7 76.834 21 108.501s33 58.5 57 80.5s51.5 38.667 82.5 50s63.5 17 97.5 17
s66.5 -5.66699 97.5 -17s58.5 -28 82.5 -50s43 -48.833 57 -80.5s21 -67.834 21 -108.501v-12zM305.996 105.999c18 0 35 3 51 9s30 14.667 42 26s21.5 25.166 28.5 41.499s10.5 34.833 10.5 55.5v20c0 20.667 -3.5 39.167 -10.5 55.5s-16.5 30.166 -28.5 41.499
s-26 20 -42 26s-33 9 -51 9s-35 -3 -51 -9s-30 -14.667 -42 -26s-21.5 -25.166 -28.5 -41.499s-10.5 -34.833 -10.5 -55.5v-20c0 -20.667 3.5 -39.167 10.5 -55.5s16.5 -30.166 28.5 -41.499s26 -20 42 -26s33 -9 51 -9z" />
    <glyph glyph-name="uni0218" unicode="&#x218;" 
d="M403 -248c0 -25.333 -8.66797 -46.667 -26.001 -64s-38.666 -26 -63.999 -26h-60v78h45c18 0 27 10 27 30v12h-9c-12 0 -23.167 2.33301 -33.5 7s-19.5 11 -27.5 19s-14.333 17.167 -19 27.5s-7 21.5 -7 33.5s2.33301 23.167 7 33.5s11 19.5 19 27.5
s17.167 14.333 27.5 19s21.5 7 33.5 7s23.167 -2.33301 33.5 -7s19.5 -11 27.5 -19s14.333 -17.167 19 -27.5s7 -21.5 7 -33.5v-117zM425.999 485.999c0 28 -10.8369 52.333 -32.5039 73s-52.167 31 -91.5 31c-33.333 0 -59.666 -6.83301 -78.999 -20.5
s-29 -32.167 -29 -55.5c0 -12 2.33301 -22.833 7 -32.5s12.834 -18.334 24.501 -26.001s27 -14.5 46 -20.5s43.167 -11.667 72.5 -17c73.333 -13.333 129.333 -35.666 168 -66.999s58 -77.666 58 -138.999v-12c0 -32.667 -5.83301 -62.167 -17.5 -88.5
s-28.5 -48.833 -50.5 -67.5s-48.667 -33 -80 -43s-66.666 -15 -105.999 -15c-46 0 -86.5 6.5 -121.5 19.5s-64.167 31 -87.5 54s-41 50 -53 81s-18 64.833 -18 101.5v30h132v-24c0 -42 12.167 -75.5 36.5 -100.5s62.166 -37.5 113.499 -37.5c40 0 69.667 8.66699 89 26
s29 38 29 62c0 11.333 -2 22.166 -6 32.499s-11 19.666 -21 27.999s-23.667 15.833 -41 22.5s-39.333 12.334 -66 17.001c-35.333 6 -67.666 13.833 -96.999 23.5s-54.833 22.5 -76.5 38.5s-38.5 36 -50.5 60s-18 53.333 -18 88v6c0 28.667 5.83301 55.167 17.5 79.5
s28 45.5 49 63.5s46.333 32 76 42s62.834 15 99.501 15c41.333 0 78 -5.83301 110 -17.5s58.833 -27.5 80.5 -47.5s38 -43 49 -69s16.5 -53.333 16.5 -82v-36h-132v24z" />
    </font>
</defs>
</svg>
